  0
SECTION
  2
HEADER
  9
$ACADVER
  1
AC1009
  9
$EXTMIN
 10
0.0
 20
0.0
 30
0.0
  9
$EXTMAX
 10
1000.0
 20
1000.0
 30
0.0
  9
$FILLMODE
 70
 0
  9
$SPLFRAME
 70
 1
  0
ENDSEC
  0
SECTION
  2
TABLES
  0
TABLE
  2
LAYER
 70
1
  0
LAYER
  2
0
 70
     0
 62
     7
  6
CONTINUOUS
  0
ENDTAB
  0
ENDSEC
  0
SECTION
  2
ENTITIES
  0
LINE
  8
0
 62
     0
 10
0.0950846
 20
147.157
 30
0.0
 11
347.758
 21
147.157
 31
0.0
  0
LINE
  8
0
 62
     0
 10
347.758
 20
147.157
 30
0.0
 11
347.758
 21
0.0937066
 31
0.0
  0
LINE
  8
0
 62
     0
 10
347.758
 20
0.0937066
 30
0.0
 11
0.0950846
 21
0.0937066
 31
0.0
  0
LINE
  8
0
 62
     0
 10
0.0950846
 20
0.0937066
 30
0.0
 11
0.0950846
 21
147.157
 31
0.0
  0
LINE
  8
0
 62
     0
 10
124.062
 20
24.62
 30
0.0
 11
124.062
 21
23.6196
 31
0.0
  0
LINE
  8
0
 62
     0
 10
124.062
 20
23.6196
 30
0.0
 11
123.263
 21
23.6196
 31
0.0
  0
LINE
  8
0
 62
     0
 10
123.263
 20
23.6196
 30
0.0
 11
123.263
 21
20.519
 31
0.0
  0
LINE
  8
0
 62
     0
 10
123.263
 20
20.519
 30
0.0
 11
124.062
 21
20.519
 31
0.0
  0
LINE
  8
0
 62
     0
 10
124.062
 20
20.519
 30
0.0
 11
124.062
 21
19.9195
 31
0.0
  0
LINE
  8
0
 62
     0
 10
124.062
 20
19.9195
 30
0.0
 11
84.4381
 21
19.9195
 31
0.0
  0
LINE
  8
0
 62
     0
 10
84.4381
 20
19.9195
 30
0.0
 11
84.4381
 21
23.1497
 31
0.0
  0
LINE
  8
0
 62
     0
 10
84.4381
 20
23.1497
 30
0.0
 11
82.7126
 21
23.1497
 31
0.0
  0
LINE
  8
0
 62
     0
 10
82.7126
 20
23.1497
 30
0.0
 11
82.7126
 21
24.0702
 31
0.0
  0
LINE
  8
0
 62
     0
 10
82.7126
 20
24.0702
 30
0.0
 11
79.412
 21
24.0702
 31
0.0
  0
LINE
  8
0
 62
     0
 10
79.412
 20
24.0702
 30
0.0
 11
79.412
 21
23.1497
 31
0.0
  0
LINE
  8
0
 62
     0
 10
79.412
 20
23.1497
 30
0.0
 11
77.6884
 21
23.1497
 31
0.0
  0
LINE
  8
0
 62
     0
 10
77.6884
 20
23.1497
 30
0.0
 11
77.6884
 21
19.9195
 31
0.0
  0
LINE
  8
0
 62
     0
 10
77.6884
 20
19.9195
 30
0.0
 11
76.8629
 21
19.9195
 31
0.0
  0
LINE
  8
0
 62
     0
 10
76.8629
 20
19.9195
 30
0.0
 11
76.8629
 21
17.1194
 31
0.0
  0
LINE
  8
0
 62
     0
 10
76.8629
 20
17.1194
 30
0.0
 11
77.6884
 21
17.1194
 31
0.0
  0
LINE
  8
0
 62
     0
 10
77.6884
 20
17.1194
 30
0.0
 11
77.6884
 21
10.8493
 31
0.0
  0
LINE
  8
0
 62
     0
 10
77.6884
 20
10.8493
 30
0.0
 11
79.412
 21
10.8493
 31
0.0
  0
LINE
  8
0
 62
     0
 10
79.412
 20
10.8493
 30
0.0
 11
79.412
 21
9.86952
 31
0.0
  0
LINE
  8
0
 62
     0
 10
79.412
 20
9.86952
 30
0.0
 11
82.7126
 21
9.86952
 31
0.0
  0
LINE
  8
0
 62
     0
 10
82.7126
 20
9.86952
 30
0.0
 11
82.7126
 21
10.8493
 31
0.0
  0
LINE
  8
0
 62
     0
 10
82.7126
 20
10.8493
 30
0.0
 11
84.4381
 21
10.8493
 31
0.0
  0
LINE
  8
0
 62
     0
 10
84.4381
 20
10.8493
 30
0.0
 11
84.4381
 21
15.3197
 31
0.0
  0
LINE
  8
0
 62
     0
 10
84.4381
 20
15.3197
 30
0.0
 11
124.062
 21
15.3197
 31
0.0
  0
LINE
  8
0
 62
     0
 10
124.062
 20
15.3197
 30
0.0
 11
124.062
 21
14.7202
 31
0.0
  0
LINE
  8
0
 62
     0
 10
124.062
 20
14.7202
 30
0.0
 11
123.263
 21
14.7202
 31
0.0
  0
LINE
  8
0
 62
     0
 10
123.263
 20
14.7202
 30
0.0
 11
123.263
 21
11.6196
 31
0.0
  0
LINE
  8
0
 62
     0
 10
123.263
 20
11.6196
 30
0.0
 11
124.062
 21
11.6196
 31
0.0
  0
LINE
  8
0
 62
     0
 10
124.062
 20
11.6196
 30
0.0
 11
124.062
 21
10.6192
 31
0.0
  0
LINE
  8
0
 62
     0
 10
124.062
 20
10.6192
 30
0.0
 11
138.063
 21
10.6192
 31
0.0
  0
LINE
  8
0
 62
     0
 10
138.063
 20
10.6192
 30
0.0
 11
138.063
 21
11.6196
 31
0.0
  0
LINE
  8
0
 62
     0
 10
138.063
 20
11.6196
 30
0.0
 11
138.862
 21
11.6196
 31
0.0
  0
LINE
  8
0
 62
     0
 10
138.862
 20
11.6196
 30
0.0
 11
138.862
 21
14.7202
 31
0.0
  0
LINE
  8
0
 62
     0
 10
138.862
 20
14.7202
 30
0.0
 11
138.063
 21
14.7202
 31
0.0
  0
LINE
  8
0
 62
     0
 10
138.063
 20
14.7202
 30
0.0
 11
138.063
 21
15.3197
 31
0.0
  0
LINE
  8
0
 62
     0
 10
138.063
 20
15.3197
 30
0.0
 11
177.689
 21
15.3197
 31
0.0
  0
LINE
  8
0
 62
     0
 10
177.689
 20
15.3197
 30
0.0
 11
177.689
 21
10.8493
 31
0.0
  0
LINE
  8
0
 62
     0
 10
177.689
 20
10.8493
 30
0.0
 11
179.412
 21
10.8493
 31
0.0
  0
LINE
  8
0
 62
     0
 10
179.412
 20
10.8493
 30
0.0
 11
179.412
 21
9.86952
 31
0.0
  0
LINE
  8
0
 62
     0
 10
179.412
 20
9.86952
 30
0.0
 11
182.713
 21
9.86952
 31
0.0
  0
LINE
  8
0
 62
     0
 10
182.713
 20
9.86952
 30
0.0
 11
182.713
 21
10.8493
 31
0.0
  0
LINE
  8
0
 62
     0
 10
182.713
 20
10.8493
 30
0.0
 11
184.438
 21
10.8493
 31
0.0
  0
LINE
  8
0
 62
     0
 10
184.438
 20
10.8493
 30
0.0
 11
184.438
 21
17.1194
 31
0.0
  0
LINE
  8
0
 62
     0
 10
184.438
 20
17.1194
 30
0.0
 11
185.262
 21
17.1194
 31
0.0
  0
LINE
  8
0
 62
     0
 10
185.262
 20
17.1194
 30
0.0
 11
185.262
 21
19.9195
 31
0.0
  0
LINE
  8
0
 62
     0
 10
185.262
 20
19.9195
 30
0.0
 11
184.438
 21
19.9195
 31
0.0
  0
LINE
  8
0
 62
     0
 10
184.438
 20
19.9195
 30
0.0
 11
184.438
 21
23.1497
 31
0.0
  0
LINE
  8
0
 62
     0
 10
184.438
 20
23.1497
 30
0.0
 11
182.713
 21
23.1497
 31
0.0
  0
LINE
  8
0
 62
     0
 10
182.713
 20
23.1497
 30
0.0
 11
182.713
 21
24.0702
 31
0.0
  0
LINE
  8
0
 62
     0
 10
182.713
 20
24.0702
 30
0.0
 11
179.412
 21
24.0702
 31
0.0
  0
LINE
  8
0
 62
     0
 10
179.412
 20
24.0702
 30
0.0
 11
179.412
 21
23.1497
 31
0.0
  0
LINE
  8
0
 62
     0
 10
179.412
 20
23.1497
 30
0.0
 11
177.689
 21
23.1497
 31
0.0
  0
LINE
  8
0
 62
     0
 10
177.689
 20
23.1497
 30
0.0
 11
177.689
 21
19.9195
 31
0.0
  0
LINE
  8
0
 62
     0
 10
177.689
 20
19.9195
 30
0.0
 11
138.063
 21
19.9195
 31
0.0
  0
LINE
  8
0
 62
     0
 10
138.063
 20
19.9195
 30
0.0
 11
138.063
 21
20.519
 31
0.0
  0
LINE
  8
0
 62
     0
 10
138.063
 20
20.519
 30
0.0
 11
138.862
 21
20.519
 31
0.0
  0
LINE
  8
0
 62
     0
 10
138.862
 20
20.519
 30
0.0
 11
138.862
 21
23.6196
 31
0.0
  0
LINE
  8
0
 62
     0
 10
138.862
 20
23.6196
 30
0.0
 11
138.063
 21
23.6196
 31
0.0
  0
LINE
  8
0
 62
     0
 10
138.063
 20
23.6196
 30
0.0
 11
138.063
 21
24.62
 31
0.0
  0
LINE
  8
0
 62
     0
 10
138.063
 20
24.62
 30
0.0
 11
124.062
 21
24.62
 31
0.0
  0
LINE
  8
0
 62
     0
 10
5.00091
 20
24.62
 30
0.0
 11
5.00091
 21
23.6196
 31
0.0
  0
LINE
  8
0
 62
     0
 10
5.00091
 20
23.6196
 30
0.0
 11
4.20028
 21
23.6196
 31
0.0
  0
LINE
  8
0
 62
     0
 10
4.20028
 20
23.6196
 30
0.0
 11
4.20028
 21
20.519
 31
0.0
  0
LINE
  8
0
 62
     0
 10
4.20028
 20
20.519
 30
0.0
 11
5.00091
 21
20.519
 31
0.0
  0
LINE
  8
0
 62
     0
 10
5.00091
 20
20.519
 30
0.0
 11
5.00091
 21
14.7202
 31
0.0
  0
LINE
  8
0
 62
     0
 10
5.00091
 20
14.7202
 30
0.0
 11
4.20028
 21
14.7202
 31
0.0
  0
LINE
  8
0
 62
     0
 10
4.20028
 20
14.7202
 30
0.0
 11
4.20028
 21
11.6196
 31
0.0
  0
LINE
  8
0
 62
     0
 10
4.20028
 20
11.6196
 30
0.0
 11
5.00091
 21
11.6196
 31
0.0
  0
LINE
  8
0
 62
     0
 10
5.00091
 20
11.6196
 30
0.0
 11
5.00091
 21
10.6192
 31
0.0
  0
LINE
  8
0
 62
     0
 10
5.00091
 20
10.6192
 30
0.0
 11
19.0004
 21
10.6192
 31
0.0
  0
LINE
  8
0
 62
     0
 10
19.0004
 20
10.6192
 30
0.0
 11
19.0004
 21
11.6196
 31
0.0
  0
LINE
  8
0
 62
     0
 10
19.0004
 20
11.6196
 30
0.0
 11
19.801
 21
11.6196
 31
0.0
  0
LINE
  8
0
 62
     0
 10
19.801
 20
11.6196
 30
0.0
 11
19.801
 21
14.7202
 31
0.0
  0
LINE
  8
0
 62
     0
 10
19.801
 20
14.7202
 30
0.0
 11
19.0004
 21
14.7202
 31
0.0
  0
LINE
  8
0
 62
     0
 10
19.0004
 20
14.7202
 30
0.0
 11
19.0004
 21
20.519
 31
0.0
  0
LINE
  8
0
 62
     0
 10
19.0004
 20
20.519
 30
0.0
 11
19.801
 21
20.519
 31
0.0
  0
LINE
  8
0
 62
     0
 10
19.801
 20
20.519
 30
0.0
 11
19.801
 21
23.6196
 31
0.0
  0
LINE
  8
0
 62
     0
 10
19.801
 20
23.6196
 30
0.0
 11
19.0004
 21
23.6196
 31
0.0
  0
LINE
  8
0
 62
     0
 10
19.0004
 20
23.6196
 30
0.0
 11
19.0004
 21
24.62
 31
0.0
  0
LINE
  8
0
 62
     0
 10
19.0004
 20
24.62
 30
0.0
 11
5.00091
 21
24.62
 31
0.0
  0
LINE
  8
0
 62
     0
 10
28.8134
 20
24.62
 30
0.0
 11
28.8134
 21
23.6196
 31
0.0
  0
LINE
  8
0
 62
     0
 10
28.8134
 20
23.6196
 30
0.0
 11
28.0128
 21
23.6196
 31
0.0
  0
LINE
  8
0
 62
     0
 10
28.0128
 20
23.6196
 30
0.0
 11
28.0128
 21
20.519
 31
0.0
  0
LINE
  8
0
 62
     0
 10
28.0128
 20
20.519
 30
0.0
 11
28.8134
 21
20.519
 31
0.0
  0
LINE
  8
0
 62
     0
 10
28.8134
 20
20.519
 30
0.0
 11
28.8134
 21
14.7202
 31
0.0
  0
LINE
  8
0
 62
     0
 10
28.8134
 20
14.7202
 30
0.0
 11
28.0128
 21
14.7202
 31
0.0
  0
LINE
  8
0
 62
     0
 10
28.0128
 20
14.7202
 30
0.0
 11
28.0128
 21
11.6196
 31
0.0
  0
LINE
  8
0
 62
     0
 10
28.0128
 20
11.6196
 30
0.0
 11
28.8134
 21
11.6196
 31
0.0
  0
LINE
  8
0
 62
     0
 10
28.8134
 20
11.6196
 30
0.0
 11
28.8134
 21
10.6192
 31
0.0
  0
LINE
  8
0
 62
     0
 10
28.8134
 20
10.6192
 30
0.0
 11
42.8128
 21
10.6192
 31
0.0
  0
LINE
  8
0
 62
     0
 10
42.8128
 20
10.6192
 30
0.0
 11
42.8128
 21
11.6196
 31
0.0
  0
LINE
  8
0
 62
     0
 10
42.8128
 20
11.6196
 30
0.0
 11
43.6122
 21
11.6196
 31
0.0
  0
LINE
  8
0
 62
     0
 10
43.6122
 20
11.6196
 30
0.0
 11
43.6122
 21
14.7202
 31
0.0
  0
LINE
  8
0
 62
     0
 10
43.6122
 20
14.7202
 30
0.0
 11
42.8128
 21
14.7202
 31
0.0
  0
LINE
  8
0
 62
     0
 10
42.8128
 20
14.7202
 30
0.0
 11
42.8128
 21
20.519
 31
0.0
  0
LINE
  8
0
 62
     0
 10
42.8128
 20
20.519
 30
0.0
 11
43.6122
 21
20.519
 31
0.0
  0
LINE
  8
0
 62
     0
 10
43.6122
 20
20.519
 30
0.0
 11
43.6122
 21
23.6196
 31
0.0
  0
LINE
  8
0
 62
     0
 10
43.6122
 20
23.6196
 30
0.0
 11
42.8128
 21
23.6196
 31
0.0
  0
LINE
  8
0
 62
     0
 10
42.8128
 20
23.6196
 30
0.0
 11
42.8128
 21
24.62
 31
0.0
  0
LINE
  8
0
 62
     0
 10
42.8128
 20
24.62
 30
0.0
 11
28.8134
 21
24.62
 31
0.0
  0
LINE
  8
0
 62
     0
 10
52.626
 20
24.62
 30
0.0
 11
52.626
 21
23.6196
 31
0.0
  0
LINE
  8
0
 62
     0
 10
52.626
 20
23.6196
 30
0.0
 11
51.8252
 21
23.6196
 31
0.0
  0
LINE
  8
0
 62
     0
 10
51.8252
 20
23.6196
 30
0.0
 11
51.8252
 21
20.519
 31
0.0
  0
LINE
  8
0
 62
     0
 10
51.8252
 20
20.519
 30
0.0
 11
52.626
 21
20.519
 31
0.0
  0
LINE
  8
0
 62
     0
 10
52.626
 20
20.519
 30
0.0
 11
52.626
 21
14.7202
 31
0.0
  0
LINE
  8
0
 62
     0
 10
52.626
 20
14.7202
 30
0.0
 11
51.8252
 21
14.7202
 31
0.0
  0
LINE
  8
0
 62
     0
 10
51.8252
 20
14.7202
 30
0.0
 11
51.8252
 21
11.6196
 31
0.0
  0
LINE
  8
0
 62
     0
 10
51.8252
 20
11.6196
 30
0.0
 11
52.626
 21
11.6196
 31
0.0
  0
LINE
  8
0
 62
     0
 10
52.626
 20
11.6196
 30
0.0
 11
52.626
 21
10.6192
 31
0.0
  0
LINE
  8
0
 62
     0
 10
52.626
 20
10.6192
 30
0.0
 11
66.6253
 21
10.6192
 31
0.0
  0
LINE
  8
0
 62
     0
 10
66.6253
 20
10.6192
 30
0.0
 11
66.6253
 21
11.6196
 31
0.0
  0
LINE
  8
0
 62
     0
 10
66.6253
 20
11.6196
 30
0.0
 11
67.4261
 21
11.6196
 31
0.0
  0
LINE
  8
0
 62
     0
 10
67.4261
 20
11.6196
 30
0.0
 11
67.4261
 21
14.7202
 31
0.0
  0
LINE
  8
0
 62
     0
 10
67.4261
 20
14.7202
 30
0.0
 11
66.6253
 21
14.7202
 31
0.0
  0
LINE
  8
0
 62
     0
 10
66.6253
 20
14.7202
 30
0.0
 11
66.6253
 21
20.519
 31
0.0
  0
LINE
  8
0
 62
     0
 10
66.6253
 20
20.519
 30
0.0
 11
67.4261
 21
20.519
 31
0.0
  0
LINE
  8
0
 62
     0
 10
67.4261
 20
20.519
 30
0.0
 11
67.4261
 21
23.6196
 31
0.0
  0
LINE
  8
0
 62
     0
 10
67.4261
 20
23.6196
 30
0.0
 11
66.6253
 21
23.6196
 31
0.0
  0
LINE
  8
0
 62
     0
 10
66.6253
 20
23.6196
 30
0.0
 11
66.6253
 21
24.62
 31
0.0
  0
LINE
  8
0
 62
     0
 10
66.6253
 20
24.62
 30
0.0
 11
52.626
 21
24.62
 31
0.0
  0
LINE
  8
0
 62
     0
 10
195.501
 20
24.62
 30
0.0
 11
195.501
 21
23.6196
 31
0.0
  0
LINE
  8
0
 62
     0
 10
195.501
 20
23.6196
 30
0.0
 11
194.7
 21
23.6196
 31
0.0
  0
LINE
  8
0
 62
     0
 10
194.7
 20
23.6196
 30
0.0
 11
194.7
 21
20.519
 31
0.0
  0
LINE
  8
0
 62
     0
 10
194.7
 20
20.519
 30
0.0
 11
195.501
 21
20.519
 31
0.0
  0
LINE
  8
0
 62
     0
 10
195.501
 20
20.519
 30
0.0
 11
195.501
 21
14.7202
 31
0.0
  0
LINE
  8
0
 62
     0
 10
195.501
 20
14.7202
 30
0.0
 11
194.7
 21
14.7202
 31
0.0
  0
LINE
  8
0
 62
     0
 10
194.7
 20
14.7202
 30
0.0
 11
194.7
 21
11.6196
 31
0.0
  0
LINE
  8
0
 62
     0
 10
194.7
 20
11.6196
 30
0.0
 11
195.501
 21
11.6196
 31
0.0
  0
LINE
  8
0
 62
     0
 10
195.501
 20
11.6196
 30
0.0
 11
195.501
 21
10.6192
 31
0.0
  0
LINE
  8
0
 62
     0
 10
195.501
 20
10.6192
 30
0.0
 11
209.5
 21
10.6192
 31
0.0
  0
LINE
  8
0
 62
     0
 10
209.5
 20
10.6192
 30
0.0
 11
209.5
 21
11.6196
 31
0.0
  0
LINE
  8
0
 62
     0
 10
209.5
 20
11.6196
 30
0.0
 11
210.301
 21
11.6196
 31
0.0
  0
LINE
  8
0
 62
     0
 10
210.301
 20
11.6196
 30
0.0
 11
210.301
 21
14.7202
 31
0.0
  0
LINE
  8
0
 62
     0
 10
210.301
 20
14.7202
 30
0.0
 11
209.5
 21
14.7202
 31
0.0
  0
LINE
  8
0
 62
     0
 10
209.5
 20
14.7202
 30
0.0
 11
209.5
 21
20.519
 31
0.0
  0
LINE
  8
0
 62
     0
 10
209.5
 20
20.519
 30
0.0
 11
210.301
 21
20.519
 31
0.0
  0
LINE
  8
0
 62
     0
 10
210.301
 20
20.519
 30
0.0
 11
210.301
 21
23.6196
 31
0.0
  0
LINE
  8
0
 62
     0
 10
210.301
 20
23.6196
 30
0.0
 11
209.5
 21
23.6196
 31
0.0
  0
LINE
  8
0
 62
     0
 10
209.5
 20
23.6196
 30
0.0
 11
209.5
 21
24.62
 31
0.0
  0
LINE
  8
0
 62
     0
 10
209.5
 20
24.62
 30
0.0
 11
195.501
 21
24.62
 31
0.0
  0
LINE
  8
0
 62
     0
 10
219.313
 20
24.62
 30
0.0
 11
219.313
 21
23.6196
 31
0.0
  0
LINE
  8
0
 62
     0
 10
219.313
 20
23.6196
 30
0.0
 11
218.513
 21
23.6196
 31
0.0
  0
LINE
  8
0
 62
     0
 10
218.513
 20
23.6196
 30
0.0
 11
218.513
 21
20.519
 31
0.0
  0
LINE
  8
0
 62
     0
 10
218.513
 20
20.519
 30
0.0
 11
219.313
 21
20.519
 31
0.0
  0
LINE
  8
0
 62
     0
 10
219.313
 20
20.519
 30
0.0
 11
219.313
 21
14.7202
 31
0.0
  0
LINE
  8
0
 62
     0
 10
219.313
 20
14.7202
 30
0.0
 11
218.513
 21
14.7202
 31
0.0
  0
LINE
  8
0
 62
     0
 10
218.513
 20
14.7202
 30
0.0
 11
218.513
 21
11.6196
 31
0.0
  0
LINE
  8
0
 62
     0
 10
218.513
 20
11.6196
 30
0.0
 11
219.313
 21
11.6196
 31
0.0
  0
LINE
  8
0
 62
     0
 10
219.313
 20
11.6196
 30
0.0
 11
219.313
 21
10.6192
 31
0.0
  0
LINE
  8
0
 62
     0
 10
219.313
 20
10.6192
 30
0.0
 11
233.313
 21
10.6192
 31
0.0
  0
LINE
  8
0
 62
     0
 10
233.313
 20
10.6192
 30
0.0
 11
233.313
 21
11.6196
 31
0.0
  0
LINE
  8
0
 62
     0
 10
233.313
 20
11.6196
 30
0.0
 11
234.112
 21
11.6196
 31
0.0
  0
LINE
  8
0
 62
     0
 10
234.112
 20
11.6196
 30
0.0
 11
234.112
 21
14.7202
 31
0.0
  0
LINE
  8
0
 62
     0
 10
234.112
 20
14.7202
 30
0.0
 11
233.313
 21
14.7202
 31
0.0
  0
LINE
  8
0
 62
     0
 10
233.313
 20
14.7202
 30
0.0
 11
233.313
 21
20.519
 31
0.0
  0
LINE
  8
0
 62
     0
 10
233.313
 20
20.519
 30
0.0
 11
234.112
 21
20.519
 31
0.0
  0
LINE
  8
0
 62
     0
 10
234.112
 20
20.519
 30
0.0
 11
234.112
 21
23.6196
 31
0.0
  0
LINE
  8
0
 62
     0
 10
234.112
 20
23.6196
 30
0.0
 11
233.313
 21
23.6196
 31
0.0
  0
LINE
  8
0
 62
     0
 10
233.313
 20
23.6196
 30
0.0
 11
233.313
 21
24.62
 31
0.0
  0
LINE
  8
0
 62
     0
 10
233.313
 20
24.62
 30
0.0
 11
219.313
 21
24.62
 31
0.0
  0
LINE
  8
0
 62
     0
 10
243.126
 20
24.62
 30
0.0
 11
243.126
 21
23.6196
 31
0.0
  0
LINE
  8
0
 62
     0
 10
243.126
 20
23.6196
 30
0.0
 11
242.325
 21
23.6196
 31
0.0
  0
LINE
  8
0
 62
     0
 10
242.325
 20
23.6196
 30
0.0
 11
242.325
 21
20.519
 31
0.0
  0
LINE
  8
0
 62
     0
 10
242.325
 20
20.519
 30
0.0
 11
243.126
 21
20.519
 31
0.0
  0
LINE
  8
0
 62
     0
 10
243.126
 20
20.519
 30
0.0
 11
243.126
 21
14.7202
 31
0.0
  0
LINE
  8
0
 62
     0
 10
243.126
 20
14.7202
 30
0.0
 11
242.325
 21
14.7202
 31
0.0
  0
LINE
  8
0
 62
     0
 10
242.325
 20
14.7202
 30
0.0
 11
242.325
 21
11.6196
 31
0.0
  0
LINE
  8
0
 62
     0
 10
242.325
 20
11.6196
 30
0.0
 11
243.126
 21
11.6196
 31
0.0
  0
LINE
  8
0
 62
     0
 10
243.126
 20
11.6196
 30
0.0
 11
243.126
 21
10.6192
 31
0.0
  0
LINE
  8
0
 62
     0
 10
243.126
 20
10.6192
 30
0.0
 11
257.125
 21
10.6192
 31
0.0
  0
LINE
  8
0
 62
     0
 10
257.125
 20
10.6192
 30
0.0
 11
257.125
 21
11.6196
 31
0.0
  0
LINE
  8
0
 62
     0
 10
257.125
 20
11.6196
 30
0.0
 11
257.926
 21
11.6196
 31
0.0
  0
LINE
  8
0
 62
     0
 10
257.926
 20
11.6196
 30
0.0
 11
257.926
 21
14.7202
 31
0.0
  0
LINE
  8
0
 62
     0
 10
257.926
 20
14.7202
 30
0.0
 11
257.125
 21
14.7202
 31
0.0
  0
LINE
  8
0
 62
     0
 10
257.125
 20
14.7202
 30
0.0
 11
257.125
 21
20.519
 31
0.0
  0
LINE
  8
0
 62
     0
 10
257.125
 20
20.519
 30
0.0
 11
257.926
 21
20.519
 31
0.0
  0
LINE
  8
0
 62
     0
 10
257.926
 20
20.519
 30
0.0
 11
257.926
 21
23.6196
 31
0.0
  0
LINE
  8
0
 62
     0
 10
257.926
 20
23.6196
 30
0.0
 11
257.125
 21
23.6196
 31
0.0
  0
LINE
  8
0
 62
     0
 10
257.125
 20
23.6196
 30
0.0
 11
257.125
 21
24.62
 31
0.0
  0
LINE
  8
0
 62
     0
 10
257.125
 20
24.62
 30
0.0
 11
243.126
 21
24.62
 31
0.0
  0
LINE
  8
0
 62
     0
 10
266.938
 20
24.62
 30
0.0
 11
266.938
 21
23.6196
 31
0.0
  0
LINE
  8
0
 62
     0
 10
266.938
 20
23.6196
 30
0.0
 11
266.138
 21
23.6196
 31
0.0
  0
LINE
  8
0
 62
     0
 10
266.138
 20
23.6196
 30
0.0
 11
266.138
 21
20.519
 31
0.0
  0
LINE
  8
0
 62
     0
 10
266.138
 20
20.519
 30
0.0
 11
266.938
 21
20.519
 31
0.0
  0
LINE
  8
0
 62
     0
 10
266.938
 20
20.519
 30
0.0
 11
266.938
 21
14.7202
 31
0.0
  0
LINE
  8
0
 62
     0
 10
266.938
 20
14.7202
 30
0.0
 11
266.138
 21
14.7202
 31
0.0
  0
LINE
  8
0
 62
     0
 10
266.138
 20
14.7202
 30
0.0
 11
266.138
 21
11.6196
 31
0.0
  0
LINE
  8
0
 62
     0
 10
266.138
 20
11.6196
 30
0.0
 11
266.938
 21
11.6196
 31
0.0
  0
LINE
  8
0
 62
     0
 10
266.938
 20
11.6196
 30
0.0
 11
266.938
 21
10.6192
 31
0.0
  0
LINE
  8
0
 62
     0
 10
266.938
 20
10.6192
 30
0.0
 11
280.938
 21
10.6192
 31
0.0
  0
LINE
  8
0
 62
     0
 10
280.938
 20
10.6192
 30
0.0
 11
280.938
 21
11.6196
 31
0.0
  0
LINE
  8
0
 62
     0
 10
280.938
 20
11.6196
 30
0.0
 11
281.737
 21
11.6196
 31
0.0
  0
LINE
  8
0
 62
     0
 10
281.737
 20
11.6196
 30
0.0
 11
281.737
 21
14.7202
 31
0.0
  0
LINE
  8
0
 62
     0
 10
281.737
 20
14.7202
 30
0.0
 11
280.938
 21
14.7202
 31
0.0
  0
LINE
  8
0
 62
     0
 10
280.938
 20
14.7202
 30
0.0
 11
280.938
 21
20.519
 31
0.0
  0
LINE
  8
0
 62
     0
 10
280.938
 20
20.519
 30
0.0
 11
281.737
 21
20.519
 31
0.0
  0
LINE
  8
0
 62
     0
 10
281.737
 20
20.519
 30
0.0
 11
281.737
 21
23.6196
 31
0.0
  0
LINE
  8
0
 62
     0
 10
281.737
 20
23.6196
 30
0.0
 11
280.938
 21
23.6196
 31
0.0
  0
LINE
  8
0
 62
     0
 10
280.938
 20
23.6196
 30
0.0
 11
280.938
 21
24.62
 31
0.0
  0
LINE
  8
0
 62
     0
 10
280.938
 20
24.62
 30
0.0
 11
266.938
 21
24.62
 31
0.0
  0
LINE
  8
0
 62
     0
 10
293.132
 20
24.62
 30
0.0
 11
293.132
 21
23.6196
 31
0.0
  0
LINE
  8
0
 62
     0
 10
293.132
 20
23.6196
 30
0.0
 11
292.331
 21
23.6196
 31
0.0
  0
LINE
  8
0
 62
     0
 10
292.331
 20
23.6196
 30
0.0
 11
292.331
 21
20.519
 31
0.0
  0
LINE
  8
0
 62
     0
 10
292.331
 20
20.519
 30
0.0
 11
293.132
 21
20.519
 31
0.0
  0
LINE
  8
0
 62
     0
 10
293.132
 20
20.519
 30
0.0
 11
293.132
 21
14.7202
 31
0.0
  0
LINE
  8
0
 62
     0
 10
293.132
 20
14.7202
 30
0.0
 11
292.331
 21
14.7202
 31
0.0
  0
LINE
  8
0
 62
     0
 10
292.331
 20
14.7202
 30
0.0
 11
292.331
 21
11.6196
 31
0.0
  0
LINE
  8
0
 62
     0
 10
292.331
 20
11.6196
 30
0.0
 11
293.132
 21
11.6196
 31
0.0
  0
LINE
  8
0
 62
     0
 10
293.132
 20
11.6196
 30
0.0
 11
293.132
 21
10.6192
 31
0.0
  0
LINE
  8
0
 62
     0
 10
293.132
 20
10.6192
 30
0.0
 11
307.132
 21
10.6192
 31
0.0
  0
LINE
  8
0
 62
     0
 10
307.132
 20
10.6192
 30
0.0
 11
307.132
 21
11.6196
 31
0.0
  0
LINE
  8
0
 62
     0
 10
307.132
 20
11.6196
 30
0.0
 11
307.932
 21
11.6196
 31
0.0
  0
LINE
  8
0
 62
     0
 10
307.932
 20
11.6196
 30
0.0
 11
307.932
 21
14.7202
 31
0.0
  0
LINE
  8
0
 62
     0
 10
307.932
 20
14.7202
 30
0.0
 11
307.132
 21
14.7202
 31
0.0
  0
LINE
  8
0
 62
     0
 10
307.132
 20
14.7202
 30
0.0
 11
307.132
 21
20.519
 31
0.0
  0
LINE
  8
0
 62
     0
 10
307.132
 20
20.519
 30
0.0
 11
307.932
 21
20.519
 31
0.0
  0
LINE
  8
0
 62
     0
 10
307.932
 20
20.519
 30
0.0
 11
307.932
 21
23.6196
 31
0.0
  0
LINE
  8
0
 62
     0
 10
307.932
 20
23.6196
 30
0.0
 11
307.132
 21
23.6196
 31
0.0
  0
LINE
  8
0
 62
     0
 10
307.132
 20
23.6196
 30
0.0
 11
307.132
 21
24.62
 31
0.0
  0
LINE
  8
0
 62
     0
 10
307.132
 20
24.62
 30
0.0
 11
293.132
 21
24.62
 31
0.0
  0
LINE
  8
0
 62
     0
 10
312.182
 20
24.62
 30
0.0
 11
312.182
 21
23.6196
 31
0.0
  0
LINE
  8
0
 62
     0
 10
312.182
 20
23.6196
 30
0.0
 11
311.381
 21
23.6196
 31
0.0
  0
LINE
  8
0
 62
     0
 10
311.381
 20
23.6196
 30
0.0
 11
311.381
 21
20.519
 31
0.0
  0
LINE
  8
0
 62
     0
 10
311.381
 20
20.519
 30
0.0
 11
312.182
 21
20.519
 31
0.0
  0
LINE
  8
0
 62
     0
 10
312.182
 20
20.519
 30
0.0
 11
312.182
 21
14.7202
 31
0.0
  0
LINE
  8
0
 62
     0
 10
312.182
 20
14.7202
 30
0.0
 11
311.381
 21
14.7202
 31
0.0
  0
LINE
  8
0
 62
     0
 10
311.381
 20
14.7202
 30
0.0
 11
311.381
 21
11.6196
 31
0.0
  0
LINE
  8
0
 62
     0
 10
311.381
 20
11.6196
 30
0.0
 11
312.182
 21
11.6196
 31
0.0
  0
LINE
  8
0
 62
     0
 10
312.182
 20
11.6196
 30
0.0
 11
312.182
 21
10.6192
 31
0.0
  0
LINE
  8
0
 62
     0
 10
312.182
 20
10.6192
 30
0.0
 11
326.182
 21
10.6192
 31
0.0
  0
LINE
  8
0
 62
     0
 10
326.182
 20
10.6192
 30
0.0
 11
326.182
 21
11.6196
 31
0.0
  0
LINE
  8
0
 62
     0
 10
326.182
 20
11.6196
 30
0.0
 11
326.982
 21
11.6196
 31
0.0
  0
LINE
  8
0
 62
     0
 10
326.982
 20
11.6196
 30
0.0
 11
326.982
 21
14.7202
 31
0.0
  0
LINE
  8
0
 62
     0
 10
326.982
 20
14.7202
 30
0.0
 11
326.182
 21
14.7202
 31
0.0
  0
LINE
  8
0
 62
     0
 10
326.182
 20
14.7202
 30
0.0
 11
326.182
 21
20.519
 31
0.0
  0
LINE
  8
0
 62
     0
 10
326.182
 20
20.519
 30
0.0
 11
326.982
 21
20.519
 31
0.0
  0
LINE
  8
0
 62
     0
 10
326.982
 20
20.519
 30
0.0
 11
326.982
 21
23.6196
 31
0.0
  0
LINE
  8
0
 62
     0
 10
326.982
 20
23.6196
 30
0.0
 11
326.182
 21
23.6196
 31
0.0
  0
LINE
  8
0
 62
     0
 10
326.182
 20
23.6196
 30
0.0
 11
326.182
 21
24.62
 31
0.0
  0
LINE
  8
0
 62
     0
 10
326.182
 20
24.62
 30
0.0
 11
312.182
 21
24.62
 31
0.0
  0
LINE
  8
0
 62
     0
 10
331.232
 20
24.62
 30
0.0
 11
331.232
 21
23.6196
 31
0.0
  0
LINE
  8
0
 62
     0
 10
331.232
 20
23.6196
 30
0.0
 11
330.431
 21
23.6196
 31
0.0
  0
LINE
  8
0
 62
     0
 10
330.431
 20
23.6196
 30
0.0
 11
330.431
 21
20.519
 31
0.0
  0
LINE
  8
0
 62
     0
 10
330.431
 20
20.519
 30
0.0
 11
331.232
 21
20.519
 31
0.0
  0
LINE
  8
0
 62
     0
 10
331.232
 20
20.519
 30
0.0
 11
331.232
 21
14.7202
 31
0.0
  0
LINE
  8
0
 62
     0
 10
331.232
 20
14.7202
 30
0.0
 11
330.431
 21
14.7202
 31
0.0
  0
LINE
  8
0
 62
     0
 10
330.431
 20
14.7202
 30
0.0
 11
330.431
 21
11.6196
 31
0.0
  0
LINE
  8
0
 62
     0
 10
330.431
 20
11.6196
 30
0.0
 11
331.232
 21
11.6196
 31
0.0
  0
LINE
  8
0
 62
     0
 10
331.232
 20
11.6196
 30
0.0
 11
331.232
 21
10.6192
 31
0.0
  0
LINE
  8
0
 62
     0
 10
331.232
 20
10.6192
 30
0.0
 11
345.232
 21
10.6192
 31
0.0
  0
LINE
  8
0
 62
     0
 10
345.232
 20
10.6192
 30
0.0
 11
345.232
 21
11.6196
 31
0.0
  0
LINE
  8
0
 62
     0
 10
345.232
 20
11.6196
 30
0.0
 11
346.032
 21
11.6196
 31
0.0
  0
LINE
  8
0
 62
     0
 10
346.032
 20
11.6196
 30
0.0
 11
346.032
 21
14.7202
 31
0.0
  0
LINE
  8
0
 62
     0
 10
346.032
 20
14.7202
 30
0.0
 11
345.232
 21
14.7202
 31
0.0
  0
LINE
  8
0
 62
     0
 10
345.232
 20
14.7202
 30
0.0
 11
345.232
 21
20.519
 31
0.0
  0
LINE
  8
0
 62
     0
 10
345.232
 20
20.519
 30
0.0
 11
346.032
 21
20.519
 31
0.0
  0
LINE
  8
0
 62
     0
 10
346.032
 20
20.519
 30
0.0
 11
346.032
 21
23.6196
 31
0.0
  0
LINE
  8
0
 62
     0
 10
346.032
 20
23.6196
 30
0.0
 11
345.232
 21
23.6196
 31
0.0
  0
LINE
  8
0
 62
     0
 10
345.232
 20
23.6196
 30
0.0
 11
345.232
 21
24.62
 31
0.0
  0
LINE
  8
0
 62
     0
 10
345.232
 20
24.62
 30
0.0
 11
331.232
 21
24.62
 31
0.0
  0
LINE
  8
0
 62
     0
 10
14.5259
 20
43.67
 30
0.0
 11
14.5259
 21
42.6695
 31
0.0
  0
LINE
  8
0
 62
     0
 10
14.5259
 20
42.6695
 30
0.0
 11
13.7253
 21
42.6695
 31
0.0
  0
LINE
  8
0
 62
     0
 10
13.7253
 20
42.6695
 30
0.0
 11
13.7253
 21
39.569
 31
0.0
  0
LINE
  8
0
 62
     0
 10
13.7253
 20
39.569
 30
0.0
 11
14.5259
 21
39.569
 31
0.0
  0
LINE
  8
0
 62
     0
 10
14.5259
 20
39.569
 30
0.0
 11
14.5259
 21
38.9696
 31
0.0
  0
LINE
  8
0
 62
     0
 10
14.5259
 20
38.9696
 30
0.0
 11
13.0004
 21
38.9696
 31
0.0
  0
LINE
  8
0
 62
     0
 10
13.0004
 20
38.9696
 30
0.0
 11
13.0004
 21
42.1996
 31
0.0
  0
LINE
  8
0
 62
     0
 10
13.0004
 20
42.1996
 30
0.0
 11
11.2751
 21
42.1996
 31
0.0
  0
LINE
  8
0
 62
     0
 10
11.2751
 20
42.1996
 30
0.0
 11
11.2751
 21
43.12
 31
0.0
  0
LINE
  8
0
 62
     0
 10
11.2751
 20
43.12
 30
0.0
 11
7.97609
 21
43.12
 31
0.0
  0
LINE
  8
0
 62
     0
 10
7.97609
 20
43.12
 30
0.0
 11
7.97609
 21
42.1996
 31
0.0
  0
LINE
  8
0
 62
     0
 10
7.97609
 20
42.1996
 30
0.0
 11
6.2508
 21
42.1996
 31
0.0
  0
LINE
  8
0
 62
     0
 10
6.2508
 20
42.1996
 30
0.0
 11
6.2508
 21
38.9696
 31
0.0
  0
LINE
  8
0
 62
     0
 10
6.2508
 20
38.9696
 30
0.0
 11
5.42533
 21
38.9696
 31
0.0
  0
LINE
  8
0
 62
     0
 10
5.42533
 20
38.9696
 30
0.0
 11
5.42533
 21
36.1692
 31
0.0
  0
LINE
  8
0
 62
     0
 10
5.42533
 20
36.1692
 30
0.0
 11
6.2508
 21
36.1692
 31
0.0
  0
LINE
  8
0
 62
     0
 10
6.2508
 20
36.1692
 30
0.0
 11
6.2508
 21
29.8993
 31
0.0
  0
LINE
  8
0
 62
     0
 10
6.2508
 20
29.8993
 30
0.0
 11
7.97609
 21
29.8993
 31
0.0
  0
LINE
  8
0
 62
     0
 10
7.97609
 20
29.8993
 30
0.0
 11
7.97609
 21
28.9195
 31
0.0
  0
LINE
  8
0
 62
     0
 10
7.97609
 20
28.9195
 30
0.0
 11
11.2751
 21
28.9195
 31
0.0
  0
LINE
  8
0
 62
     0
 10
11.2751
 20
28.9195
 30
0.0
 11
11.2751
 21
29.8993
 31
0.0
  0
LINE
  8
0
 62
     0
 10
11.2751
 20
29.8993
 30
0.0
 11
13.0004
 21
29.8993
 31
0.0
  0
LINE
  8
0
 62
     0
 10
13.0004
 20
29.8993
 30
0.0
 11
13.0004
 21
34.3697
 31
0.0
  0
LINE
  8
0
 62
     0
 10
13.0004
 20
34.3697
 30
0.0
 11
14.5259
 21
34.3697
 31
0.0
  0
LINE
  8
0
 62
     0
 10
14.5259
 20
34.3697
 30
0.0
 11
14.5259
 21
33.7702
 31
0.0
  0
LINE
  8
0
 62
     0
 10
14.5259
 20
33.7702
 30
0.0
 11
13.7253
 21
33.7702
 31
0.0
  0
LINE
  8
0
 62
     0
 10
13.7253
 20
33.7702
 30
0.0
 11
13.7253
 21
30.6696
 31
0.0
  0
LINE
  8
0
 62
     0
 10
13.7253
 20
30.6696
 30
0.0
 11
14.5259
 21
30.6696
 31
0.0
  0
LINE
  8
0
 62
     0
 10
14.5259
 20
30.6696
 30
0.0
 11
14.5259
 21
29.6692
 31
0.0
  0
LINE
  8
0
 62
     0
 10
14.5259
 20
29.6692
 30
0.0
 11
28.5254
 21
29.6692
 31
0.0
  0
LINE
  8
0
 62
     0
 10
28.5254
 20
29.6692
 30
0.0
 11
28.5254
 21
30.6696
 31
0.0
  0
LINE
  8
0
 62
     0
 10
28.5254
 20
30.6696
 30
0.0
 11
29.326
 21
30.6696
 31
0.0
  0
LINE
  8
0
 62
     0
 10
29.326
 20
30.6696
 30
0.0
 11
29.326
 21
33.7702
 31
0.0
  0
LINE
  8
0
 62
     0
 10
29.326
 20
33.7702
 30
0.0
 11
28.5254
 21
33.7702
 31
0.0
  0
LINE
  8
0
 62
     0
 10
28.5254
 20
33.7702
 30
0.0
 11
28.5254
 21
34.3697
 31
0.0
  0
LINE
  8
0
 62
     0
 10
28.5254
 20
34.3697
 30
0.0
 11
30.0509
 21
34.3697
 31
0.0
  0
LINE
  8
0
 62
     0
 10
30.0509
 20
34.3697
 30
0.0
 11
30.0509
 21
29.8993
 31
0.0
  0
LINE
  8
0
 62
     0
 10
30.0509
 20
29.8993
 30
0.0
 11
31.7762
 21
29.8993
 31
0.0
  0
LINE
  8
0
 62
     0
 10
31.7762
 20
29.8993
 30
0.0
 11
31.7762
 21
28.9195
 31
0.0
  0
LINE
  8
0
 62
     0
 10
31.7762
 20
28.9195
 30
0.0
 11
35.0752
 21
28.9195
 31
0.0
  0
LINE
  8
0
 62
     0
 10
35.0752
 20
28.9195
 30
0.0
 11
35.0752
 21
29.8993
 31
0.0
  0
LINE
  8
0
 62
     0
 10
35.0752
 20
29.8993
 30
0.0
 11
36.8004
 21
29.8993
 31
0.0
  0
LINE
  8
0
 62
     0
 10
36.8004
 20
29.8993
 30
0.0
 11
36.8004
 21
36.1692
 31
0.0
  0
LINE
  8
0
 62
     0
 10
36.8004
 20
36.1692
 30
0.0
 11
37.6259
 21
36.1692
 31
0.0
  0
LINE
  8
0
 62
     0
 10
37.6259
 20
36.1692
 30
0.0
 11
37.6259
 21
38.9696
 31
0.0
  0
LINE
  8
0
 62
     0
 10
37.6259
 20
38.9696
 30
0.0
 11
36.8004
 21
38.9696
 31
0.0
  0
LINE
  8
0
 62
     0
 10
36.8004
 20
38.9696
 30
0.0
 11
36.8004
 21
42.1996
 31
0.0
  0
LINE
  8
0
 62
     0
 10
36.8004
 20
42.1996
 30
0.0
 11
35.0752
 21
42.1996
 31
0.0
  0
LINE
  8
0
 62
     0
 10
35.0752
 20
42.1996
 30
0.0
 11
35.0752
 21
43.12
 31
0.0
  0
LINE
  8
0
 62
     0
 10
35.0752
 20
43.12
 30
0.0
 11
31.7762
 21
43.12
 31
0.0
  0
LINE
  8
0
 62
     0
 10
31.7762
 20
43.12
 30
0.0
 11
31.7762
 21
42.1996
 31
0.0
  0
LINE
  8
0
 62
     0
 10
31.7762
 20
42.1996
 30
0.0
 11
30.0509
 21
42.1996
 31
0.0
  0
LINE
  8
0
 62
     0
 10
30.0509
 20
42.1996
 30
0.0
 11
30.0509
 21
38.9696
 31
0.0
  0
LINE
  8
0
 62
     0
 10
30.0509
 20
38.9696
 30
0.0
 11
28.5254
 21
38.9696
 31
0.0
  0
LINE
  8
0
 62
     0
 10
28.5254
 20
38.9696
 30
0.0
 11
28.5254
 21
39.569
 31
0.0
  0
LINE
  8
0
 62
     0
 10
28.5254
 20
39.569
 30
0.0
 11
29.326
 21
39.569
 31
0.0
  0
LINE
  8
0
 62
     0
 10
29.326
 20
39.569
 30
0.0
 11
29.326
 21
42.6695
 31
0.0
  0
LINE
  8
0
 62
     0
 10
29.326
 20
42.6695
 30
0.0
 11
28.5254
 21
42.6695
 31
0.0
  0
LINE
  8
0
 62
     0
 10
28.5254
 20
42.6695
 30
0.0
 11
28.5254
 21
43.67
 31
0.0
  0
LINE
  8
0
 62
     0
 10
28.5254
 20
43.67
 30
0.0
 11
14.5259
 21
43.67
 31
0.0
  0
LINE
  8
0
 62
     0
 10
252.65
 20
43.67
 30
0.0
 11
252.65
 21
42.6695
 31
0.0
  0
LINE
  8
0
 62
     0
 10
252.65
 20
42.6695
 30
0.0
 11
251.85
 21
42.6695
 31
0.0
  0
LINE
  8
0
 62
     0
 10
251.85
 20
42.6695
 30
0.0
 11
251.85
 21
39.569
 31
0.0
  0
LINE
  8
0
 62
     0
 10
251.85
 20
39.569
 30
0.0
 11
252.65
 21
39.569
 31
0.0
  0
LINE
  8
0
 62
     0
 10
252.65
 20
39.569
 30
0.0
 11
252.65
 21
38.9696
 31
0.0
  0
LINE
  8
0
 62
     0
 10
252.65
 20
38.9696
 30
0.0
 11
251.126
 21
38.9696
 31
0.0
  0
LINE
  8
0
 62
     0
 10
251.126
 20
38.9696
 30
0.0
 11
251.126
 21
42.1996
 31
0.0
  0
LINE
  8
0
 62
     0
 10
251.126
 20
42.1996
 30
0.0
 11
249.4
 21
42.1996
 31
0.0
  0
LINE
  8
0
 62
     0
 10
249.4
 20
42.1996
 30
0.0
 11
249.4
 21
43.12
 31
0.0
  0
LINE
  8
0
 62
     0
 10
249.4
 20
43.12
 30
0.0
 11
246.101
 21
43.12
 31
0.0
  0
LINE
  8
0
 62
     0
 10
246.101
 20
43.12
 30
0.0
 11
246.101
 21
42.1996
 31
0.0
  0
LINE
  8
0
 62
     0
 10
246.101
 20
42.1996
 30
0.0
 11
244.376
 21
42.1996
 31
0.0
  0
LINE
  8
0
 62
     0
 10
244.376
 20
42.1996
 30
0.0
 11
244.376
 21
38.9696
 31
0.0
  0
LINE
  8
0
 62
     0
 10
244.376
 20
38.9696
 30
0.0
 11
243.55
 21
38.9696
 31
0.0
  0
LINE
  8
0
 62
     0
 10
243.55
 20
38.9696
 30
0.0
 11
243.55
 21
36.1692
 31
0.0
  0
LINE
  8
0
 62
     0
 10
243.55
 20
36.1692
 30
0.0
 11
244.376
 21
36.1692
 31
0.0
  0
LINE
  8
0
 62
     0
 10
244.376
 20
36.1692
 30
0.0
 11
244.376
 21
29.8993
 31
0.0
  0
LINE
  8
0
 62
     0
 10
244.376
 20
29.8993
 30
0.0
 11
246.101
 21
29.8993
 31
0.0
  0
LINE
  8
0
 62
     0
 10
246.101
 20
29.8993
 30
0.0
 11
246.101
 21
28.9195
 31
0.0
  0
LINE
  8
0
 62
     0
 10
246.101
 20
28.9195
 30
0.0
 11
249.4
 21
28.9195
 31
0.0
  0
LINE
  8
0
 62
     0
 10
249.4
 20
28.9195
 30
0.0
 11
249.4
 21
29.8993
 31
0.0
  0
LINE
  8
0
 62
     0
 10
249.4
 20
29.8993
 30
0.0
 11
251.126
 21
29.8993
 31
0.0
  0
LINE
  8
0
 62
     0
 10
251.126
 20
29.8993
 30
0.0
 11
251.126
 21
34.3697
 31
0.0
  0
LINE
  8
0
 62
     0
 10
251.126
 20
34.3697
 30
0.0
 11
252.65
 21
34.3697
 31
0.0
  0
LINE
  8
0
 62
     0
 10
252.65
 20
34.3697
 30
0.0
 11
252.65
 21
33.7702
 31
0.0
  0
LINE
  8
0
 62
     0
 10
252.65
 20
33.7702
 30
0.0
 11
251.85
 21
33.7702
 31
0.0
  0
LINE
  8
0
 62
     0
 10
251.85
 20
33.7702
 30
0.0
 11
251.85
 21
30.6696
 31
0.0
  0
LINE
  8
0
 62
     0
 10
251.85
 20
30.6696
 30
0.0
 11
252.65
 21
30.6696
 31
0.0
  0
LINE
  8
0
 62
     0
 10
252.65
 20
30.6696
 30
0.0
 11
252.65
 21
29.6692
 31
0.0
  0
LINE
  8
0
 62
     0
 10
252.65
 20
29.6692
 30
0.0
 11
266.65
 21
29.6692
 31
0.0
  0
LINE
  8
0
 62
     0
 10
266.65
 20
29.6692
 30
0.0
 11
266.65
 21
30.6696
 31
0.0
  0
LINE
  8
0
 62
     0
 10
266.65
 20
30.6696
 30
0.0
 11
267.451
 21
30.6696
 31
0.0
  0
LINE
  8
0
 62
     0
 10
267.451
 20
30.6696
 30
0.0
 11
267.451
 21
33.7702
 31
0.0
  0
LINE
  8
0
 62
     0
 10
267.451
 20
33.7702
 30
0.0
 11
266.65
 21
33.7702
 31
0.0
  0
LINE
  8
0
 62
     0
 10
266.65
 20
33.7702
 30
0.0
 11
266.65
 21
34.3697
 31
0.0
  0
LINE
  8
0
 62
     0
 10
266.65
 20
34.3697
 30
0.0
 11
268.176
 21
34.3697
 31
0.0
  0
LINE
  8
0
 62
     0
 10
268.176
 20
34.3697
 30
0.0
 11
268.176
 21
29.8993
 31
0.0
  0
LINE
  8
0
 62
     0
 10
268.176
 20
29.8993
 30
0.0
 11
269.901
 21
29.8993
 31
0.0
  0
LINE
  8
0
 62
     0
 10
269.901
 20
29.8993
 30
0.0
 11
269.901
 21
28.9195
 31
0.0
  0
LINE
  8
0
 62
     0
 10
269.901
 20
28.9195
 30
0.0
 11
273.2
 21
28.9195
 31
0.0
  0
LINE
  8
0
 62
     0
 10
273.2
 20
28.9195
 30
0.0
 11
273.2
 21
29.8993
 31
0.0
  0
LINE
  8
0
 62
     0
 10
273.2
 20
29.8993
 30
0.0
 11
274.925
 21
29.8993
 31
0.0
  0
LINE
  8
0
 62
     0
 10
274.925
 20
29.8993
 30
0.0
 11
274.925
 21
36.1692
 31
0.0
  0
LINE
  8
0
 62
     0
 10
274.925
 20
36.1692
 30
0.0
 11
275.751
 21
36.1692
 31
0.0
  0
LINE
  8
0
 62
     0
 10
275.751
 20
36.1692
 30
0.0
 11
275.751
 21
38.9696
 31
0.0
  0
LINE
  8
0
 62
     0
 10
275.751
 20
38.9696
 30
0.0
 11
274.925
 21
38.9696
 31
0.0
  0
LINE
  8
0
 62
     0
 10
274.925
 20
38.9696
 30
0.0
 11
274.925
 21
42.1996
 31
0.0
  0
LINE
  8
0
 62
     0
 10
274.925
 20
42.1996
 30
0.0
 11
273.2
 21
42.1996
 31
0.0
  0
LINE
  8
0
 62
     0
 10
273.2
 20
42.1996
 30
0.0
 11
273.2
 21
43.12
 31
0.0
  0
LINE
  8
0
 62
     0
 10
273.2
 20
43.12
 30
0.0
 11
269.901
 21
43.12
 31
0.0
  0
LINE
  8
0
 62
     0
 10
269.901
 20
43.12
 30
0.0
 11
269.901
 21
42.1996
 31
0.0
  0
LINE
  8
0
 62
     0
 10
269.901
 20
42.1996
 30
0.0
 11
268.176
 21
42.1996
 31
0.0
  0
LINE
  8
0
 62
     0
 10
268.176
 20
42.1996
 30
0.0
 11
268.176
 21
38.9696
 31
0.0
  0
LINE
  8
0
 62
     0
 10
268.176
 20
38.9696
 30
0.0
 11
266.65
 21
38.9696
 31
0.0
  0
LINE
  8
0
 62
     0
 10
266.65
 20
38.9696
 30
0.0
 11
266.65
 21
39.569
 31
0.0
  0
LINE
  8
0
 62
     0
 10
266.65
 20
39.569
 30
0.0
 11
267.451
 21
39.569
 31
0.0
  0
LINE
  8
0
 62
     0
 10
267.451
 20
39.569
 30
0.0
 11
267.451
 21
42.6695
 31
0.0
  0
LINE
  8
0
 62
     0
 10
267.451
 20
42.6695
 30
0.0
 11
266.65
 21
42.6695
 31
0.0
  0
LINE
  8
0
 62
     0
 10
266.65
 20
42.6695
 30
0.0
 11
266.65
 21
43.67
 31
0.0
  0
LINE
  8
0
 62
     0
 10
266.65
 20
43.67
 30
0.0
 11
252.65
 21
43.67
 31
0.0
  0
LINE
  8
0
 62
     0
 10
45.4822
 20
43.67
 30
0.0
 11
45.4822
 21
42.6695
 31
0.0
  0
LINE
  8
0
 62
     0
 10
45.4822
 20
42.6695
 30
0.0
 11
44.6814
 21
42.6695
 31
0.0
  0
LINE
  8
0
 62
     0
 10
44.6814
 20
42.6695
 30
0.0
 11
44.6814
 21
39.569
 31
0.0
  0
LINE
  8
0
 62
     0
 10
44.6814
 20
39.569
 30
0.0
 11
45.4822
 21
39.569
 31
0.0
  0
LINE
  8
0
 62
     0
 10
45.4822
 20
39.569
 30
0.0
 11
45.4822
 21
33.7702
 31
0.0
  0
LINE
  8
0
 62
     0
 10
45.4822
 20
33.7702
 30
0.0
 11
44.6814
 21
33.7702
 31
0.0
  0
LINE
  8
0
 62
     0
 10
44.6814
 20
33.7702
 30
0.0
 11
44.6814
 21
30.6696
 31
0.0
  0
LINE
  8
0
 62
     0
 10
44.6814
 20
30.6696
 30
0.0
 11
45.4822
 21
30.6696
 31
0.0
  0
LINE
  8
0
 62
     0
 10
45.4822
 20
30.6696
 30
0.0
 11
45.4822
 21
29.6692
 31
0.0
  0
LINE
  8
0
 62
     0
 10
45.4822
 20
29.6692
 30
0.0
 11
59.4815
 21
29.6692
 31
0.0
  0
LINE
  8
0
 62
     0
 10
59.4815
 20
29.6692
 30
0.0
 11
59.4815
 21
30.6696
 31
0.0
  0
LINE
  8
0
 62
     0
 10
59.4815
 20
30.6696
 30
0.0
 11
60.2823
 21
30.6696
 31
0.0
  0
LINE
  8
0
 62
     0
 10
60.2823
 20
30.6696
 30
0.0
 11
60.2823
 21
33.7702
 31
0.0
  0
LINE
  8
0
 62
     0
 10
60.2823
 20
33.7702
 30
0.0
 11
59.4815
 21
33.7702
 31
0.0
  0
LINE
  8
0
 62
     0
 10
59.4815
 20
33.7702
 30
0.0
 11
59.4815
 21
39.569
 31
0.0
  0
LINE
  8
0
 62
     0
 10
59.4815
 20
39.569
 30
0.0
 11
60.2823
 21
39.569
 31
0.0
  0
LINE
  8
0
 62
     0
 10
60.2823
 20
39.569
 30
0.0
 11
60.2823
 21
42.6695
 31
0.0
  0
LINE
  8
0
 62
     0
 10
60.2823
 20
42.6695
 30
0.0
 11
59.4815
 21
42.6695
 31
0.0
  0
LINE
  8
0
 62
     0
 10
59.4815
 20
42.6695
 30
0.0
 11
59.4815
 21
43.67
 31
0.0
  0
LINE
  8
0
 62
     0
 10
59.4815
 20
43.67
 30
0.0
 11
45.4822
 21
43.67
 31
0.0
  0
LINE
  8
0
 62
     0
 10
64.5322
 20
43.67
 30
0.0
 11
64.5322
 21
42.6695
 31
0.0
  0
LINE
  8
0
 62
     0
 10
64.5322
 20
42.6695
 30
0.0
 11
63.7314
 21
42.6695
 31
0.0
  0
LINE
  8
0
 62
     0
 10
63.7314
 20
42.6695
 30
0.0
 11
63.7314
 21
39.569
 31
0.0
  0
LINE
  8
0
 62
     0
 10
63.7314
 20
39.569
 30
0.0
 11
64.5322
 21
39.569
 31
0.0
  0
LINE
  8
0
 62
     0
 10
64.5322
 20
39.569
 30
0.0
 11
64.5322
 21
33.7702
 31
0.0
  0
LINE
  8
0
 62
     0
 10
64.5322
 20
33.7702
 30
0.0
 11
63.7314
 21
33.7702
 31
0.0
  0
LINE
  8
0
 62
     0
 10
63.7314
 20
33.7702
 30
0.0
 11
63.7314
 21
30.6696
 31
0.0
  0
LINE
  8
0
 62
     0
 10
63.7314
 20
30.6696
 30
0.0
 11
64.5322
 21
30.6696
 31
0.0
  0
LINE
  8
0
 62
     0
 10
64.5322
 20
30.6696
 30
0.0
 11
64.5322
 21
29.6692
 31
0.0
  0
LINE
  8
0
 62
     0
 10
64.5322
 20
29.6692
 30
0.0
 11
78.5315
 21
29.6692
 31
0.0
  0
LINE
  8
0
 62
     0
 10
78.5315
 20
29.6692
 30
0.0
 11
78.5315
 21
30.6696
 31
0.0
  0
LINE
  8
0
 62
     0
 10
78.5315
 20
30.6696
 30
0.0
 11
79.3323
 21
30.6696
 31
0.0
  0
LINE
  8
0
 62
     0
 10
79.3323
 20
30.6696
 30
0.0
 11
79.3323
 21
33.7702
 31
0.0
  0
LINE
  8
0
 62
     0
 10
79.3323
 20
33.7702
 30
0.0
 11
78.5315
 21
33.7702
 31
0.0
  0
LINE
  8
0
 62
     0
 10
78.5315
 20
33.7702
 30
0.0
 11
78.5315
 21
39.569
 31
0.0
  0
LINE
  8
0
 62
     0
 10
78.5315
 20
39.569
 30
0.0
 11
79.3323
 21
39.569
 31
0.0
  0
LINE
  8
0
 62
     0
 10
79.3323
 20
39.569
 30
0.0
 11
79.3323
 21
42.6695
 31
0.0
  0
LINE
  8
0
 62
     0
 10
79.3323
 20
42.6695
 30
0.0
 11
78.5315
 21
42.6695
 31
0.0
  0
LINE
  8
0
 62
     0
 10
78.5315
 20
42.6695
 30
0.0
 11
78.5315
 21
43.67
 31
0.0
  0
LINE
  8
0
 62
     0
 10
78.5315
 20
43.67
 30
0.0
 11
64.5322
 21
43.67
 31
0.0
  0
LINE
  8
0
 62
     0
 10
83.5822
 20
43.67
 30
0.0
 11
83.5822
 21
42.6695
 31
0.0
  0
LINE
  8
0
 62
     0
 10
83.5822
 20
42.6695
 30
0.0
 11
82.7814
 21
42.6695
 31
0.0
  0
LINE
  8
0
 62
     0
 10
82.7814
 20
42.6695
 30
0.0
 11
82.7814
 21
39.569
 31
0.0
  0
LINE
  8
0
 62
     0
 10
82.7814
 20
39.569
 30
0.0
 11
83.5822
 21
39.569
 31
0.0
  0
LINE
  8
0
 62
     0
 10
83.5822
 20
39.569
 30
0.0
 11
83.5822
 21
33.7702
 31
0.0
  0
LINE
  8
0
 62
     0
 10
83.5822
 20
33.7702
 30
0.0
 11
82.7814
 21
33.7702
 31
0.0
  0
LINE
  8
0
 62
     0
 10
82.7814
 20
33.7702
 30
0.0
 11
82.7814
 21
30.6696
 31
0.0
  0
LINE
  8
0
 62
     0
 10
82.7814
 20
30.6696
 30
0.0
 11
83.5822
 21
30.6696
 31
0.0
  0
LINE
  8
0
 62
     0
 10
83.5822
 20
30.6696
 30
0.0
 11
83.5822
 21
29.6692
 31
0.0
  0
LINE
  8
0
 62
     0
 10
83.5822
 20
29.6692
 30
0.0
 11
97.5815
 21
29.6692
 31
0.0
  0
LINE
  8
0
 62
     0
 10
97.5815
 20
29.6692
 30
0.0
 11
97.5815
 21
30.6696
 31
0.0
  0
LINE
  8
0
 62
     0
 10
97.5815
 20
30.6696
 30
0.0
 11
98.3823
 21
30.6696
 31
0.0
  0
LINE
  8
0
 62
     0
 10
98.3823
 20
30.6696
 30
0.0
 11
98.3823
 21
33.7702
 31
0.0
  0
LINE
  8
0
 62
     0
 10
98.3823
 20
33.7702
 30
0.0
 11
97.5815
 21
33.7702
 31
0.0
  0
LINE
  8
0
 62
     0
 10
97.5815
 20
33.7702
 30
0.0
 11
97.5815
 21
39.569
 31
0.0
  0
LINE
  8
0
 62
     0
 10
97.5815
 20
39.569
 30
0.0
 11
98.3823
 21
39.569
 31
0.0
  0
LINE
  8
0
 62
     0
 10
98.3823
 20
39.569
 30
0.0
 11
98.3823
 21
42.6695
 31
0.0
  0
LINE
  8
0
 62
     0
 10
98.3823
 20
42.6695
 30
0.0
 11
97.5815
 21
42.6695
 31
0.0
  0
LINE
  8
0
 62
     0
 10
97.5815
 20
42.6695
 30
0.0
 11
97.5815
 21
43.67
 31
0.0
  0
LINE
  8
0
 62
     0
 10
97.5815
 20
43.67
 30
0.0
 11
83.5822
 21
43.67
 31
0.0
  0
LINE
  8
0
 62
     0
 10
102.632
 20
43.67
 30
0.0
 11
102.632
 21
42.6695
 31
0.0
  0
LINE
  8
0
 62
     0
 10
102.632
 20
42.6695
 30
0.0
 11
101.831
 21
42.6695
 31
0.0
  0
LINE
  8
0
 62
     0
 10
101.831
 20
42.6695
 30
0.0
 11
101.831
 21
39.569
 31
0.0
  0
LINE
  8
0
 62
     0
 10
101.831
 20
39.569
 30
0.0
 11
102.632
 21
39.569
 31
0.0
  0
LINE
  8
0
 62
     0
 10
102.632
 20
39.569
 30
0.0
 11
102.632
 21
33.7702
 31
0.0
  0
LINE
  8
0
 62
     0
 10
102.632
 20
33.7702
 30
0.0
 11
101.831
 21
33.7702
 31
0.0
  0
LINE
  8
0
 62
     0
 10
101.831
 20
33.7702
 30
0.0
 11
101.831
 21
30.6696
 31
0.0
  0
LINE
  8
0
 62
     0
 10
101.831
 20
30.6696
 30
0.0
 11
102.632
 21
30.6696
 31
0.0
  0
LINE
  8
0
 62
     0
 10
102.632
 20
30.6696
 30
0.0
 11
102.632
 21
29.6692
 31
0.0
  0
LINE
  8
0
 62
     0
 10
102.632
 20
29.6692
 30
0.0
 11
116.632
 21
29.6692
 31
0.0
  0
LINE
  8
0
 62
     0
 10
116.632
 20
29.6692
 30
0.0
 11
116.632
 21
30.6696
 31
0.0
  0
LINE
  8
0
 62
     0
 10
116.632
 20
30.6696
 30
0.0
 11
117.432
 21
30.6696
 31
0.0
  0
LINE
  8
0
 62
     0
 10
117.432
 20
30.6696
 30
0.0
 11
117.432
 21
33.7702
 31
0.0
  0
LINE
  8
0
 62
     0
 10
117.432
 20
33.7702
 30
0.0
 11
116.632
 21
33.7702
 31
0.0
  0
LINE
  8
0
 62
     0
 10
116.632
 20
33.7702
 30
0.0
 11
116.632
 21
39.569
 31
0.0
  0
LINE
  8
0
 62
     0
 10
116.632
 20
39.569
 30
0.0
 11
117.432
 21
39.569
 31
0.0
  0
LINE
  8
0
 62
     0
 10
117.432
 20
39.569
 30
0.0
 11
117.432
 21
42.6695
 31
0.0
  0
LINE
  8
0
 62
     0
 10
117.432
 20
42.6695
 30
0.0
 11
116.632
 21
42.6695
 31
0.0
  0
LINE
  8
0
 62
     0
 10
116.632
 20
42.6695
 30
0.0
 11
116.632
 21
43.67
 31
0.0
  0
LINE
  8
0
 62
     0
 10
116.632
 20
43.67
 30
0.0
 11
102.632
 21
43.67
 31
0.0
  0
LINE
  8
0
 62
     0
 10
121.682
 20
43.67
 30
0.0
 11
121.682
 21
42.6695
 31
0.0
  0
LINE
  8
0
 62
     0
 10
121.682
 20
42.6695
 30
0.0
 11
120.881
 21
42.6695
 31
0.0
  0
LINE
  8
0
 62
     0
 10
120.881
 20
42.6695
 30
0.0
 11
120.881
 21
39.569
 31
0.0
  0
LINE
  8
0
 62
     0
 10
120.881
 20
39.569
 30
0.0
 11
121.682
 21
39.569
 31
0.0
  0
LINE
  8
0
 62
     0
 10
121.682
 20
39.569
 30
0.0
 11
121.682
 21
33.7702
 31
0.0
  0
LINE
  8
0
 62
     0
 10
121.682
 20
33.7702
 30
0.0
 11
120.881
 21
33.7702
 31
0.0
  0
LINE
  8
0
 62
     0
 10
120.881
 20
33.7702
 30
0.0
 11
120.881
 21
30.6696
 31
0.0
  0
LINE
  8
0
 62
     0
 10
120.881
 20
30.6696
 30
0.0
 11
121.682
 21
30.6696
 31
0.0
  0
LINE
  8
0
 62
     0
 10
121.682
 20
30.6696
 30
0.0
 11
121.682
 21
29.6692
 31
0.0
  0
LINE
  8
0
 62
     0
 10
121.682
 20
29.6692
 30
0.0
 11
135.682
 21
29.6692
 31
0.0
  0
LINE
  8
0
 62
     0
 10
135.682
 20
29.6692
 30
0.0
 11
135.682
 21
30.6696
 31
0.0
  0
LINE
  8
0
 62
     0
 10
135.682
 20
30.6696
 30
0.0
 11
136.482
 21
30.6696
 31
0.0
  0
LINE
  8
0
 62
     0
 10
136.482
 20
30.6696
 30
0.0
 11
136.482
 21
33.7702
 31
0.0
  0
LINE
  8
0
 62
     0
 10
136.482
 20
33.7702
 30
0.0
 11
135.682
 21
33.7702
 31
0.0
  0
LINE
  8
0
 62
     0
 10
135.682
 20
33.7702
 30
0.0
 11
135.682
 21
39.569
 31
0.0
  0
LINE
  8
0
 62
     0
 10
135.682
 20
39.569
 30
0.0
 11
136.482
 21
39.569
 31
0.0
  0
LINE
  8
0
 62
     0
 10
136.482
 20
39.569
 30
0.0
 11
136.482
 21
42.6695
 31
0.0
  0
LINE
  8
0
 62
     0
 10
136.482
 20
42.6695
 30
0.0
 11
135.682
 21
42.6695
 31
0.0
  0
LINE
  8
0
 62
     0
 10
135.682
 20
42.6695
 30
0.0
 11
135.682
 21
43.67
 31
0.0
  0
LINE
  8
0
 62
     0
 10
135.682
 20
43.67
 30
0.0
 11
121.682
 21
43.67
 31
0.0
  0
LINE
  8
0
 62
     0
 10
140.732
 20
43.67
 30
0.0
 11
140.732
 21
42.6695
 31
0.0
  0
LINE
  8
0
 62
     0
 10
140.732
 20
42.6695
 30
0.0
 11
139.931
 21
42.6695
 31
0.0
  0
LINE
  8
0
 62
     0
 10
139.931
 20
42.6695
 30
0.0
 11
139.931
 21
39.569
 31
0.0
  0
LINE
  8
0
 62
     0
 10
139.931
 20
39.569
 30
0.0
 11
140.732
 21
39.569
 31
0.0
  0
LINE
  8
0
 62
     0
 10
140.732
 20
39.569
 30
0.0
 11
140.732
 21
33.7702
 31
0.0
  0
LINE
  8
0
 62
     0
 10
140.732
 20
33.7702
 30
0.0
 11
139.931
 21
33.7702
 31
0.0
  0
LINE
  8
0
 62
     0
 10
139.931
 20
33.7702
 30
0.0
 11
139.931
 21
30.6696
 31
0.0
  0
LINE
  8
0
 62
     0
 10
139.931
 20
30.6696
 30
0.0
 11
140.732
 21
30.6696
 31
0.0
  0
LINE
  8
0
 62
     0
 10
140.732
 20
30.6696
 30
0.0
 11
140.732
 21
29.6692
 31
0.0
  0
LINE
  8
0
 62
     0
 10
140.732
 20
29.6692
 30
0.0
 11
154.732
 21
29.6692
 31
0.0
  0
LINE
  8
0
 62
     0
 10
154.732
 20
29.6692
 30
0.0
 11
154.732
 21
30.6696
 31
0.0
  0
LINE
  8
0
 62
     0
 10
154.732
 20
30.6696
 30
0.0
 11
155.532
 21
30.6696
 31
0.0
  0
LINE
  8
0
 62
     0
 10
155.532
 20
30.6696
 30
0.0
 11
155.532
 21
33.7702
 31
0.0
  0
LINE
  8
0
 62
     0
 10
155.532
 20
33.7702
 30
0.0
 11
154.732
 21
33.7702
 31
0.0
  0
LINE
  8
0
 62
     0
 10
154.732
 20
33.7702
 30
0.0
 11
154.732
 21
39.569
 31
0.0
  0
LINE
  8
0
 62
     0
 10
154.732
 20
39.569
 30
0.0
 11
155.532
 21
39.569
 31
0.0
  0
LINE
  8
0
 62
     0
 10
155.532
 20
39.569
 30
0.0
 11
155.532
 21
42.6695
 31
0.0
  0
LINE
  8
0
 62
     0
 10
155.532
 20
42.6695
 30
0.0
 11
154.732
 21
42.6695
 31
0.0
  0
LINE
  8
0
 62
     0
 10
154.732
 20
42.6695
 30
0.0
 11
154.732
 21
43.67
 31
0.0
  0
LINE
  8
0
 62
     0
 10
154.732
 20
43.67
 30
0.0
 11
140.732
 21
43.67
 31
0.0
  0
LINE
  8
0
 62
     0
 10
159.782
 20
43.67
 30
0.0
 11
159.782
 21
42.6695
 31
0.0
  0
LINE
  8
0
 62
     0
 10
159.782
 20
42.6695
 30
0.0
 11
158.981
 21
42.6695
 31
0.0
  0
LINE
  8
0
 62
     0
 10
158.981
 20
42.6695
 30
0.0
 11
158.981
 21
39.569
 31
0.0
  0
LINE
  8
0
 62
     0
 10
158.981
 20
39.569
 30
0.0
 11
159.782
 21
39.569
 31
0.0
  0
LINE
  8
0
 62
     0
 10
159.782
 20
39.569
 30
0.0
 11
159.782
 21
33.7702
 31
0.0
  0
LINE
  8
0
 62
     0
 10
159.782
 20
33.7702
 30
0.0
 11
158.981
 21
33.7702
 31
0.0
  0
LINE
  8
0
 62
     0
 10
158.981
 20
33.7702
 30
0.0
 11
158.981
 21
30.6696
 31
0.0
  0
LINE
  8
0
 62
     0
 10
158.981
 20
30.6696
 30
0.0
 11
159.782
 21
30.6696
 31
0.0
  0
LINE
  8
0
 62
     0
 10
159.782
 20
30.6696
 30
0.0
 11
159.782
 21
29.6692
 31
0.0
  0
LINE
  8
0
 62
     0
 10
159.782
 20
29.6692
 30
0.0
 11
173.782
 21
29.6692
 31
0.0
  0
LINE
  8
0
 62
     0
 10
173.782
 20
29.6692
 30
0.0
 11
173.782
 21
30.6696
 31
0.0
  0
LINE
  8
0
 62
     0
 10
173.782
 20
30.6696
 30
0.0
 11
174.582
 21
30.6696
 31
0.0
  0
LINE
  8
0
 62
     0
 10
174.582
 20
30.6696
 30
0.0
 11
174.582
 21
33.7702
 31
0.0
  0
LINE
  8
0
 62
     0
 10
174.582
 20
33.7702
 30
0.0
 11
173.782
 21
33.7702
 31
0.0
  0
LINE
  8
0
 62
     0
 10
173.782
 20
33.7702
 30
0.0
 11
173.782
 21
39.569
 31
0.0
  0
LINE
  8
0
 62
     0
 10
173.782
 20
39.569
 30
0.0
 11
174.582
 21
39.569
 31
0.0
  0
LINE
  8
0
 62
     0
 10
174.582
 20
39.569
 30
0.0
 11
174.582
 21
42.6695
 31
0.0
  0
LINE
  8
0
 62
     0
 10
174.582
 20
42.6695
 30
0.0
 11
173.782
 21
42.6695
 31
0.0
  0
LINE
  8
0
 62
     0
 10
173.782
 20
42.6695
 30
0.0
 11
173.782
 21
43.67
 31
0.0
  0
LINE
  8
0
 62
     0
 10
173.782
 20
43.67
 30
0.0
 11
159.782
 21
43.67
 31
0.0
  0
LINE
  8
0
 62
     0
 10
178.832
 20
43.67
 30
0.0
 11
178.832
 21
42.6695
 31
0.0
  0
LINE
  8
0
 62
     0
 10
178.832
 20
42.6695
 30
0.0
 11
178.031
 21
42.6695
 31
0.0
  0
LINE
  8
0
 62
     0
 10
178.031
 20
42.6695
 30
0.0
 11
178.031
 21
39.569
 31
0.0
  0
LINE
  8
0
 62
     0
 10
178.031
 20
39.569
 30
0.0
 11
178.832
 21
39.569
 31
0.0
  0
LINE
  8
0
 62
     0
 10
178.832
 20
39.569
 30
0.0
 11
178.832
 21
33.7702
 31
0.0
  0
LINE
  8
0
 62
     0
 10
178.832
 20
33.7702
 30
0.0
 11
178.031
 21
33.7702
 31
0.0
  0
LINE
  8
0
 62
     0
 10
178.031
 20
33.7702
 30
0.0
 11
178.031
 21
30.6696
 31
0.0
  0
LINE
  8
0
 62
     0
 10
178.031
 20
30.6696
 30
0.0
 11
178.832
 21
30.6696
 31
0.0
  0
LINE
  8
0
 62
     0
 10
178.832
 20
30.6696
 30
0.0
 11
178.832
 21
29.6692
 31
0.0
  0
LINE
  8
0
 62
     0
 10
178.832
 20
29.6692
 30
0.0
 11
192.832
 21
29.6692
 31
0.0
  0
LINE
  8
0
 62
     0
 10
192.832
 20
29.6692
 30
0.0
 11
192.832
 21
30.6696
 31
0.0
  0
LINE
  8
0
 62
     0
 10
192.832
 20
30.6696
 30
0.0
 11
193.632
 21
30.6696
 31
0.0
  0
LINE
  8
0
 62
     0
 10
193.632
 20
30.6696
 30
0.0
 11
193.632
 21
33.7702
 31
0.0
  0
LINE
  8
0
 62
     0
 10
193.632
 20
33.7702
 30
0.0
 11
192.832
 21
33.7702
 31
0.0
  0
LINE
  8
0
 62
     0
 10
192.832
 20
33.7702
 30
0.0
 11
192.832
 21
39.569
 31
0.0
  0
LINE
  8
0
 62
     0
 10
192.832
 20
39.569
 30
0.0
 11
193.632
 21
39.569
 31
0.0
  0
LINE
  8
0
 62
     0
 10
193.632
 20
39.569
 30
0.0
 11
193.632
 21
42.6695
 31
0.0
  0
LINE
  8
0
 62
     0
 10
193.632
 20
42.6695
 30
0.0
 11
192.832
 21
42.6695
 31
0.0
  0
LINE
  8
0
 62
     0
 10
192.832
 20
42.6695
 30
0.0
 11
192.832
 21
43.67
 31
0.0
  0
LINE
  8
0
 62
     0
 10
192.832
 20
43.67
 30
0.0
 11
178.832
 21
43.67
 31
0.0
  0
LINE
  8
0
 62
     0
 10
197.882
 20
43.67
 30
0.0
 11
197.882
 21
42.6695
 31
0.0
  0
LINE
  8
0
 62
     0
 10
197.882
 20
42.6695
 30
0.0
 11
197.081
 21
42.6695
 31
0.0
  0
LINE
  8
0
 62
     0
 10
197.081
 20
42.6695
 30
0.0
 11
197.081
 21
39.569
 31
0.0
  0
LINE
  8
0
 62
     0
 10
197.081
 20
39.569
 30
0.0
 11
197.882
 21
39.569
 31
0.0
  0
LINE
  8
0
 62
     0
 10
197.882
 20
39.569
 30
0.0
 11
197.882
 21
33.7702
 31
0.0
  0
LINE
  8
0
 62
     0
 10
197.882
 20
33.7702
 30
0.0
 11
197.081
 21
33.7702
 31
0.0
  0
LINE
  8
0
 62
     0
 10
197.081
 20
33.7702
 30
0.0
 11
197.081
 21
30.6696
 31
0.0
  0
LINE
  8
0
 62
     0
 10
197.081
 20
30.6696
 30
0.0
 11
197.882
 21
30.6696
 31
0.0
  0
LINE
  8
0
 62
     0
 10
197.882
 20
30.6696
 30
0.0
 11
197.882
 21
29.6692
 31
0.0
  0
LINE
  8
0
 62
     0
 10
197.882
 20
29.6692
 30
0.0
 11
211.882
 21
29.6692
 31
0.0
  0
LINE
  8
0
 62
     0
 10
211.882
 20
29.6692
 30
0.0
 11
211.882
 21
30.6696
 31
0.0
  0
LINE
  8
0
 62
     0
 10
211.882
 20
30.6696
 30
0.0
 11
212.682
 21
30.6696
 31
0.0
  0
LINE
  8
0
 62
     0
 10
212.682
 20
30.6696
 30
0.0
 11
212.682
 21
33.7702
 31
0.0
  0
LINE
  8
0
 62
     0
 10
212.682
 20
33.7702
 30
0.0
 11
211.882
 21
33.7702
 31
0.0
  0
LINE
  8
0
 62
     0
 10
211.882
 20
33.7702
 30
0.0
 11
211.882
 21
39.569
 31
0.0
  0
LINE
  8
0
 62
     0
 10
211.882
 20
39.569
 30
0.0
 11
212.682
 21
39.569
 31
0.0
  0
LINE
  8
0
 62
     0
 10
212.682
 20
39.569
 30
0.0
 11
212.682
 21
42.6695
 31
0.0
  0
LINE
  8
0
 62
     0
 10
212.682
 20
42.6695
 30
0.0
 11
211.882
 21
42.6695
 31
0.0
  0
LINE
  8
0
 62
     0
 10
211.882
 20
42.6695
 30
0.0
 11
211.882
 21
43.67
 31
0.0
  0
LINE
  8
0
 62
     0
 10
211.882
 20
43.67
 30
0.0
 11
197.882
 21
43.67
 31
0.0
  0
LINE
  8
0
 62
     0
 10
216.932
 20
43.67
 30
0.0
 11
216.932
 21
42.6695
 31
0.0
  0
LINE
  8
0
 62
     0
 10
216.932
 20
42.6695
 30
0.0
 11
216.131
 21
42.6695
 31
0.0
  0
LINE
  8
0
 62
     0
 10
216.131
 20
42.6695
 30
0.0
 11
216.131
 21
39.569
 31
0.0
  0
LINE
  8
0
 62
     0
 10
216.131
 20
39.569
 30
0.0
 11
216.932
 21
39.569
 31
0.0
  0
LINE
  8
0
 62
     0
 10
216.932
 20
39.569
 30
0.0
 11
216.932
 21
33.7702
 31
0.0
  0
LINE
  8
0
 62
     0
 10
216.932
 20
33.7702
 30
0.0
 11
216.131
 21
33.7702
 31
0.0
  0
LINE
  8
0
 62
     0
 10
216.131
 20
33.7702
 30
0.0
 11
216.131
 21
30.6696
 31
0.0
  0
LINE
  8
0
 62
     0
 10
216.131
 20
30.6696
 30
0.0
 11
216.932
 21
30.6696
 31
0.0
  0
LINE
  8
0
 62
     0
 10
216.932
 20
30.6696
 30
0.0
 11
216.932
 21
29.6692
 31
0.0
  0
LINE
  8
0
 62
     0
 10
216.932
 20
29.6692
 30
0.0
 11
230.932
 21
29.6692
 31
0.0
  0
LINE
  8
0
 62
     0
 10
230.932
 20
29.6692
 30
0.0
 11
230.932
 21
30.6696
 31
0.0
  0
LINE
  8
0
 62
     0
 10
230.932
 20
30.6696
 30
0.0
 11
231.732
 21
30.6696
 31
0.0
  0
LINE
  8
0
 62
     0
 10
231.732
 20
30.6696
 30
0.0
 11
231.732
 21
33.7702
 31
0.0
  0
LINE
  8
0
 62
     0
 10
231.732
 20
33.7702
 30
0.0
 11
230.932
 21
33.7702
 31
0.0
  0
LINE
  8
0
 62
     0
 10
230.932
 20
33.7702
 30
0.0
 11
230.932
 21
39.569
 31
0.0
  0
LINE
  8
0
 62
     0
 10
230.932
 20
39.569
 30
0.0
 11
231.732
 21
39.569
 31
0.0
  0
LINE
  8
0
 62
     0
 10
231.732
 20
39.569
 30
0.0
 11
231.732
 21
42.6695
 31
0.0
  0
LINE
  8
0
 62
     0
 10
231.732
 20
42.6695
 30
0.0
 11
230.932
 21
42.6695
 31
0.0
  0
LINE
  8
0
 62
     0
 10
230.932
 20
42.6695
 30
0.0
 11
230.932
 21
43.67
 31
0.0
  0
LINE
  8
0
 62
     0
 10
230.932
 20
43.67
 30
0.0
 11
216.932
 21
43.67
 31
0.0
  0
LINE
  8
0
 62
     0
 10
312.182
 20
43.67
 30
0.0
 11
312.182
 21
42.6695
 31
0.0
  0
LINE
  8
0
 62
     0
 10
312.182
 20
42.6695
 30
0.0
 11
311.381
 21
42.6695
 31
0.0
  0
LINE
  8
0
 62
     0
 10
311.381
 20
42.6695
 30
0.0
 11
311.381
 21
39.569
 31
0.0
  0
LINE
  8
0
 62
     0
 10
311.381
 20
39.569
 30
0.0
 11
312.182
 21
39.569
 31
0.0
  0
LINE
  8
0
 62
     0
 10
312.182
 20
39.569
 30
0.0
 11
312.182
 21
33.7702
 31
0.0
  0
LINE
  8
0
 62
     0
 10
312.182
 20
33.7702
 30
0.0
 11
311.381
 21
33.7702
 31
0.0
  0
LINE
  8
0
 62
     0
 10
311.381
 20
33.7702
 30
0.0
 11
311.381
 21
30.6696
 31
0.0
  0
LINE
  8
0
 62
     0
 10
311.381
 20
30.6696
 30
0.0
 11
312.182
 21
30.6696
 31
0.0
  0
LINE
  8
0
 62
     0
 10
312.182
 20
30.6696
 30
0.0
 11
312.182
 21
29.6692
 31
0.0
  0
LINE
  8
0
 62
     0
 10
312.182
 20
29.6692
 30
0.0
 11
326.182
 21
29.6692
 31
0.0
  0
LINE
  8
0
 62
     0
 10
326.182
 20
29.6692
 30
0.0
 11
326.182
 21
30.6696
 31
0.0
  0
LINE
  8
0
 62
     0
 10
326.182
 20
30.6696
 30
0.0
 11
326.982
 21
30.6696
 31
0.0
  0
LINE
  8
0
 62
     0
 10
326.982
 20
30.6696
 30
0.0
 11
326.982
 21
33.7702
 31
0.0
  0
LINE
  8
0
 62
     0
 10
326.982
 20
33.7702
 30
0.0
 11
326.182
 21
33.7702
 31
0.0
  0
LINE
  8
0
 62
     0
 10
326.182
 20
33.7702
 30
0.0
 11
326.182
 21
39.569
 31
0.0
  0
LINE
  8
0
 62
     0
 10
326.182
 20
39.569
 30
0.0
 11
326.982
 21
39.569
 31
0.0
  0
LINE
  8
0
 62
     0
 10
326.982
 20
39.569
 30
0.0
 11
326.982
 21
42.6695
 31
0.0
  0
LINE
  8
0
 62
     0
 10
326.982
 20
42.6695
 30
0.0
 11
326.182
 21
42.6695
 31
0.0
  0
LINE
  8
0
 62
     0
 10
326.182
 20
42.6695
 30
0.0
 11
326.182
 21
43.67
 31
0.0
  0
LINE
  8
0
 62
     0
 10
326.182
 20
43.67
 30
0.0
 11
312.182
 21
43.67
 31
0.0
  0
LINE
  8
0
 62
     0
 10
257.413
 20
62.72
 30
0.0
 11
257.413
 21
61.7195
 31
0.0
  0
LINE
  8
0
 62
     0
 10
257.413
 20
61.7195
 30
0.0
 11
256.611
 21
61.7195
 31
0.0
  0
LINE
  8
0
 62
     0
 10
256.611
 20
61.7195
 30
0.0
 11
256.611
 21
58.619
 31
0.0
  0
LINE
  8
0
 62
     0
 10
256.611
 20
58.619
 30
0.0
 11
257.413
 21
58.619
 31
0.0
  0
LINE
  8
0
 62
     0
 10
257.413
 20
58.619
 30
0.0
 11
257.413
 21
58.0196
 31
0.0
  0
LINE
  8
0
 62
     0
 10
257.413
 20
58.0196
 30
0.0
 11
255.888
 21
58.0196
 31
0.0
  0
LINE
  8
0
 62
     0
 10
255.888
 20
58.0196
 30
0.0
 11
255.888
 21
61.2496
 31
0.0
  0
LINE
  8
0
 62
     0
 10
255.888
 20
61.2496
 30
0.0
 11
254.161
 21
61.2496
 31
0.0
  0
LINE
  8
0
 62
     0
 10
254.161
 20
61.2496
 30
0.0
 11
254.161
 21
62.17
 31
0.0
  0
LINE
  8
0
 62
     0
 10
254.161
 20
62.17
 30
0.0
 11
250.862
 21
62.17
 31
0.0
  0
LINE
  8
0
 62
     0
 10
250.862
 20
62.17
 30
0.0
 11
250.862
 21
61.2496
 31
0.0
  0
LINE
  8
0
 62
     0
 10
250.862
 20
61.2496
 30
0.0
 11
249.138
 21
61.2496
 31
0.0
  0
LINE
  8
0
 62
     0
 10
249.138
 20
61.2496
 30
0.0
 11
249.138
 21
58.0196
 31
0.0
  0
LINE
  8
0
 62
     0
 10
249.138
 20
58.0196
 30
0.0
 11
248.313
 21
58.0196
 31
0.0
  0
LINE
  8
0
 62
     0
 10
248.313
 20
58.0196
 30
0.0
 11
248.313
 21
55.2192
 31
0.0
  0
LINE
  8
0
 62
     0
 10
248.313
 20
55.2192
 30
0.0
 11
249.138
 21
55.2192
 31
0.0
  0
LINE
  8
0
 62
     0
 10
249.138
 20
55.2192
 30
0.0
 11
249.138
 21
48.9493
 31
0.0
  0
LINE
  8
0
 62
     0
 10
249.138
 20
48.9493
 30
0.0
 11
250.862
 21
48.9493
 31
0.0
  0
LINE
  8
0
 62
     0
 10
250.862
 20
48.9493
 30
0.0
 11
250.862
 21
47.9697
 31
0.0
  0
LINE
  8
0
 62
     0
 10
250.862
 20
47.9697
 30
0.0
 11
254.161
 21
47.9697
 31
0.0
  0
LINE
  8
0
 62
     0
 10
254.161
 20
47.9697
 30
0.0
 11
254.161
 21
48.9493
 31
0.0
  0
LINE
  8
0
 62
     0
 10
254.161
 20
48.9493
 30
0.0
 11
255.888
 21
48.9493
 31
0.0
  0
LINE
  8
0
 62
     0
 10
255.888
 20
48.9493
 30
0.0
 11
255.888
 21
53.4197
 31
0.0
  0
LINE
  8
0
 62
     0
 10
255.888
 20
53.4197
 30
0.0
 11
257.413
 21
53.4197
 31
0.0
  0
LINE
  8
0
 62
     0
 10
257.413
 20
53.4197
 30
0.0
 11
257.413
 21
52.8204
 31
0.0
  0
LINE
  8
0
 62
     0
 10
257.413
 20
52.8204
 30
0.0
 11
256.611
 21
52.8204
 31
0.0
  0
LINE
  8
0
 62
     0
 10
256.611
 20
52.8204
 30
0.0
 11
256.611
 21
49.7198
 31
0.0
  0
LINE
  8
0
 62
     0
 10
256.611
 20
49.7198
 30
0.0
 11
257.413
 21
49.7198
 31
0.0
  0
LINE
  8
0
 62
     0
 10
257.413
 20
49.7198
 30
0.0
 11
257.413
 21
48.7193
 31
0.0
  0
LINE
  8
0
 62
     0
 10
257.413
 20
48.7193
 30
0.0
 11
271.413
 21
48.7193
 31
0.0
  0
LINE
  8
0
 62
     0
 10
271.413
 20
48.7193
 30
0.0
 11
271.413
 21
49.7198
 31
0.0
  0
LINE
  8
0
 62
     0
 10
271.413
 20
49.7198
 30
0.0
 11
272.212
 21
49.7198
 31
0.0
  0
LINE
  8
0
 62
     0
 10
272.212
 20
49.7198
 30
0.0
 11
272.212
 21
52.8204
 31
0.0
  0
LINE
  8
0
 62
     0
 10
272.212
 20
52.8204
 30
0.0
 11
271.413
 21
52.8204
 31
0.0
  0
LINE
  8
0
 62
     0
 10
271.413
 20
52.8204
 30
0.0
 11
271.413
 21
53.4197
 31
0.0
  0
LINE
  8
0
 62
     0
 10
271.413
 20
53.4197
 30
0.0
 11
272.939
 21
53.4197
 31
0.0
  0
LINE
  8
0
 62
     0
 10
272.939
 20
53.4197
 30
0.0
 11
272.939
 21
48.9493
 31
0.0
  0
LINE
  8
0
 62
     0
 10
272.939
 20
48.9493
 30
0.0
 11
274.662
 21
48.9493
 31
0.0
  0
LINE
  8
0
 62
     0
 10
274.662
 20
48.9493
 30
0.0
 11
274.662
 21
47.9697
 31
0.0
  0
LINE
  8
0
 62
     0
 10
274.662
 20
47.9697
 30
0.0
 11
277.963
 21
47.9697
 31
0.0
  0
LINE
  8
0
 62
     0
 10
277.963
 20
47.9697
 30
0.0
 11
277.963
 21
48.9493
 31
0.0
  0
LINE
  8
0
 62
     0
 10
277.963
 20
48.9493
 30
0.0
 11
279.688
 21
48.9493
 31
0.0
  0
LINE
  8
0
 62
     0
 10
279.688
 20
48.9493
 30
0.0
 11
279.688
 21
55.2192
 31
0.0
  0
LINE
  8
0
 62
     0
 10
279.688
 20
55.2192
 30
0.0
 11
280.512
 21
55.2192
 31
0.0
  0
LINE
  8
0
 62
     0
 10
280.512
 20
55.2192
 30
0.0
 11
280.512
 21
58.0196
 31
0.0
  0
LINE
  8
0
 62
     0
 10
280.512
 20
58.0196
 30
0.0
 11
279.688
 21
58.0196
 31
0.0
  0
LINE
  8
0
 62
     0
 10
279.688
 20
58.0196
 30
0.0
 11
279.688
 21
61.2496
 31
0.0
  0
LINE
  8
0
 62
     0
 10
279.688
 20
61.2496
 30
0.0
 11
277.963
 21
61.2496
 31
0.0
  0
LINE
  8
0
 62
     0
 10
277.963
 20
61.2496
 30
0.0
 11
277.963
 21
62.17
 31
0.0
  0
LINE
  8
0
 62
     0
 10
277.963
 20
62.17
 30
0.0
 11
274.662
 21
62.17
 31
0.0
  0
LINE
  8
0
 62
     0
 10
274.662
 20
62.17
 30
0.0
 11
274.662
 21
61.2496
 31
0.0
  0
LINE
  8
0
 62
     0
 10
274.662
 20
61.2496
 30
0.0
 11
272.939
 21
61.2496
 31
0.0
  0
LINE
  8
0
 62
     0
 10
272.939
 20
61.2496
 30
0.0
 11
272.939
 21
58.0196
 31
0.0
  0
LINE
  8
0
 62
     0
 10
272.939
 20
58.0196
 30
0.0
 11
271.413
 21
58.0196
 31
0.0
  0
LINE
  8
0
 62
     0
 10
271.413
 20
58.0196
 30
0.0
 11
271.413
 21
58.619
 31
0.0
  0
LINE
  8
0
 62
     0
 10
271.413
 20
58.619
 30
0.0
 11
272.212
 21
58.619
 31
0.0
  0
LINE
  8
0
 62
     0
 10
272.212
 20
58.619
 30
0.0
 11
272.212
 21
61.7195
 31
0.0
  0
LINE
  8
0
 62
     0
 10
272.212
 20
61.7195
 30
0.0
 11
271.413
 21
61.7195
 31
0.0
  0
LINE
  8
0
 62
     0
 10
271.413
 20
61.7195
 30
0.0
 11
271.413
 21
62.72
 31
0.0
  0
LINE
  8
0
 62
     0
 10
271.413
 20
62.72
 30
0.0
 11
257.413
 21
62.72
 31
0.0
  0
LINE
  8
0
 62
     0
 10
9.76341
 20
62.72
 30
0.0
 11
9.76341
 21
61.7195
 31
0.0
  0
LINE
  8
0
 62
     0
 10
9.76341
 20
61.7195
 30
0.0
 11
8.96278
 21
61.7195
 31
0.0
  0
LINE
  8
0
 62
     0
 10
8.96278
 20
61.7195
 30
0.0
 11
8.96278
 21
58.619
 31
0.0
  0
LINE
  8
0
 62
     0
 10
8.96278
 20
58.619
 30
0.0
 11
9.76341
 21
58.619
 31
0.0
  0
LINE
  8
0
 62
     0
 10
9.76341
 20
58.619
 30
0.0
 11
9.76341
 21
52.8204
 31
0.0
  0
LINE
  8
0
 62
     0
 10
9.76341
 20
52.8204
 30
0.0
 11
8.96278
 21
52.8204
 31
0.0
  0
LINE
  8
0
 62
     0
 10
8.96278
 20
52.8204
 30
0.0
 11
8.96278
 21
49.7198
 31
0.0
  0
LINE
  8
0
 62
     0
 10
8.96278
 20
49.7198
 30
0.0
 11
9.76341
 21
49.7198
 31
0.0
  0
LINE
  8
0
 62
     0
 10
9.76341
 20
49.7198
 30
0.0
 11
9.76341
 21
48.7193
 31
0.0
  0
LINE
  8
0
 62
     0
 10
9.76341
 20
48.7193
 30
0.0
 11
23.7629
 21
48.7193
 31
0.0
  0
LINE
  8
0
 62
     0
 10
23.7629
 20
48.7193
 30
0.0
 11
23.7629
 21
49.7198
 31
0.0
  0
LINE
  8
0
 62
     0
 10
23.7629
 20
49.7198
 30
0.0
 11
24.5622
 21
49.7198
 31
0.0
  0
LINE
  8
0
 62
     0
 10
24.5622
 20
49.7198
 30
0.0
 11
24.5622
 21
52.8204
 31
0.0
  0
LINE
  8
0
 62
     0
 10
24.5622
 20
52.8204
 30
0.0
 11
23.7629
 21
52.8204
 31
0.0
  0
LINE
  8
0
 62
     0
 10
23.7629
 20
52.8204
 30
0.0
 11
23.7629
 21
58.619
 31
0.0
  0
LINE
  8
0
 62
     0
 10
23.7629
 20
58.619
 30
0.0
 11
24.5622
 21
58.619
 31
0.0
  0
LINE
  8
0
 62
     0
 10
24.5622
 20
58.619
 30
0.0
 11
24.5622
 21
61.7195
 31
0.0
  0
LINE
  8
0
 62
     0
 10
24.5622
 20
61.7195
 30
0.0
 11
23.7629
 21
61.7195
 31
0.0
  0
LINE
  8
0
 62
     0
 10
23.7629
 20
61.7195
 30
0.0
 11
23.7629
 21
62.72
 31
0.0
  0
LINE
  8
0
 62
     0
 10
23.7629
 20
62.72
 30
0.0
 11
9.76341
 21
62.72
 31
0.0
  0
LINE
  8
0
 62
     0
 10
35.9572
 20
62.72
 30
0.0
 11
35.9572
 21
61.7195
 31
0.0
  0
LINE
  8
0
 62
     0
 10
35.9572
 20
61.7195
 30
0.0
 11
35.1565
 21
61.7195
 31
0.0
  0
LINE
  8
0
 62
     0
 10
35.1565
 20
61.7195
 30
0.0
 11
35.1565
 21
58.619
 31
0.0
  0
LINE
  8
0
 62
     0
 10
35.1565
 20
58.619
 30
0.0
 11
35.9572
 21
58.619
 31
0.0
  0
LINE
  8
0
 62
     0
 10
35.9572
 20
58.619
 30
0.0
 11
35.9572
 21
52.8204
 31
0.0
  0
LINE
  8
0
 62
     0
 10
35.9572
 20
52.8204
 30
0.0
 11
35.1565
 21
52.8204
 31
0.0
  0
LINE
  8
0
 62
     0
 10
35.1565
 20
52.8204
 30
0.0
 11
35.1565
 21
49.7198
 31
0.0
  0
LINE
  8
0
 62
     0
 10
35.1565
 20
49.7198
 30
0.0
 11
35.9572
 21
49.7198
 31
0.0
  0
LINE
  8
0
 62
     0
 10
35.9572
 20
49.7198
 30
0.0
 11
35.9572
 21
48.7193
 31
0.0
  0
LINE
  8
0
 62
     0
 10
35.9572
 20
48.7193
 30
0.0
 11
49.9565
 21
48.7193
 31
0.0
  0
LINE
  8
0
 62
     0
 10
49.9565
 20
48.7193
 30
0.0
 11
49.9565
 21
49.7198
 31
0.0
  0
LINE
  8
0
 62
     0
 10
49.9565
 20
49.7198
 30
0.0
 11
50.7573
 21
49.7198
 31
0.0
  0
LINE
  8
0
 62
     0
 10
50.7573
 20
49.7198
 30
0.0
 11
50.7573
 21
52.8204
 31
0.0
  0
LINE
  8
0
 62
     0
 10
50.7573
 20
52.8204
 30
0.0
 11
49.9565
 21
52.8204
 31
0.0
  0
LINE
  8
0
 62
     0
 10
49.9565
 20
52.8204
 30
0.0
 11
49.9565
 21
58.619
 31
0.0
  0
LINE
  8
0
 62
     0
 10
49.9565
 20
58.619
 30
0.0
 11
50.7573
 21
58.619
 31
0.0
  0
LINE
  8
0
 62
     0
 10
50.7573
 20
58.619
 30
0.0
 11
50.7573
 21
61.7195
 31
0.0
  0
LINE
  8
0
 62
     0
 10
50.7573
 20
61.7195
 30
0.0
 11
49.9565
 21
61.7195
 31
0.0
  0
LINE
  8
0
 62
     0
 10
49.9565
 20
61.7195
 30
0.0
 11
49.9565
 21
62.72
 31
0.0
  0
LINE
  8
0
 62
     0
 10
49.9565
 20
62.72
 30
0.0
 11
35.9572
 21
62.72
 31
0.0
  0
LINE
  8
0
 62
     0
 10
55.0072
 20
62.72
 30
0.0
 11
55.0072
 21
61.7195
 31
0.0
  0
LINE
  8
0
 62
     0
 10
55.0072
 20
61.7195
 30
0.0
 11
54.2064
 21
61.7195
 31
0.0
  0
LINE
  8
0
 62
     0
 10
54.2064
 20
61.7195
 30
0.0
 11
54.2064
 21
58.619
 31
0.0
  0
LINE
  8
0
 62
     0
 10
54.2064
 20
58.619
 30
0.0
 11
55.0072
 21
58.619
 31
0.0
  0
LINE
  8
0
 62
     0
 10
55.0072
 20
58.619
 30
0.0
 11
55.0072
 21
52.8204
 31
0.0
  0
LINE
  8
0
 62
     0
 10
55.0072
 20
52.8204
 30
0.0
 11
54.2064
 21
52.8204
 31
0.0
  0
LINE
  8
0
 62
     0
 10
54.2064
 20
52.8204
 30
0.0
 11
54.2064
 21
49.7198
 31
0.0
  0
LINE
  8
0
 62
     0
 10
54.2064
 20
49.7198
 30
0.0
 11
55.0072
 21
49.7198
 31
0.0
  0
LINE
  8
0
 62
     0
 10
55.0072
 20
49.7198
 30
0.0
 11
55.0072
 21
48.7193
 31
0.0
  0
LINE
  8
0
 62
     0
 10
55.0072
 20
48.7193
 30
0.0
 11
69.0065
 21
48.7193
 31
0.0
  0
LINE
  8
0
 62
     0
 10
69.0065
 20
48.7193
 30
0.0
 11
69.0065
 21
49.7198
 31
0.0
  0
LINE
  8
0
 62
     0
 10
69.0065
 20
49.7198
 30
0.0
 11
69.8073
 21
49.7198
 31
0.0
  0
LINE
  8
0
 62
     0
 10
69.8073
 20
49.7198
 30
0.0
 11
69.8073
 21
52.8204
 31
0.0
  0
LINE
  8
0
 62
     0
 10
69.8073
 20
52.8204
 30
0.0
 11
69.0065
 21
52.8204
 31
0.0
  0
LINE
  8
0
 62
     0
 10
69.0065
 20
52.8204
 30
0.0
 11
69.0065
 21
58.619
 31
0.0
  0
LINE
  8
0
 62
     0
 10
69.0065
 20
58.619
 30
0.0
 11
69.8073
 21
58.619
 31
0.0
  0
LINE
  8
0
 62
     0
 10
69.8073
 20
58.619
 30
0.0
 11
69.8073
 21
61.7195
 31
0.0
  0
LINE
  8
0
 62
     0
 10
69.8073
 20
61.7195
 30
0.0
 11
69.0065
 21
61.7195
 31
0.0
  0
LINE
  8
0
 62
     0
 10
69.0065
 20
61.7195
 30
0.0
 11
69.0065
 21
62.72
 31
0.0
  0
LINE
  8
0
 62
     0
 10
69.0065
 20
62.72
 30
0.0
 11
55.0072
 21
62.72
 31
0.0
  0
LINE
  8
0
 62
     0
 10
74.0572
 20
62.72
 30
0.0
 11
74.0572
 21
61.7195
 31
0.0
  0
LINE
  8
0
 62
     0
 10
74.0572
 20
61.7195
 30
0.0
 11
73.2564
 21
61.7195
 31
0.0
  0
LINE
  8
0
 62
     0
 10
73.2564
 20
61.7195
 30
0.0
 11
73.2564
 21
58.619
 31
0.0
  0
LINE
  8
0
 62
     0
 10
73.2564
 20
58.619
 30
0.0
 11
74.0572
 21
58.619
 31
0.0
  0
LINE
  8
0
 62
     0
 10
74.0572
 20
58.619
 30
0.0
 11
74.0572
 21
52.8204
 31
0.0
  0
LINE
  8
0
 62
     0
 10
74.0572
 20
52.8204
 30
0.0
 11
73.2564
 21
52.8204
 31
0.0
  0
LINE
  8
0
 62
     0
 10
73.2564
 20
52.8204
 30
0.0
 11
73.2564
 21
49.7198
 31
0.0
  0
LINE
  8
0
 62
     0
 10
73.2564
 20
49.7198
 30
0.0
 11
74.0572
 21
49.7198
 31
0.0
  0
LINE
  8
0
 62
     0
 10
74.0572
 20
49.7198
 30
0.0
 11
74.0572
 21
48.7193
 31
0.0
  0
LINE
  8
0
 62
     0
 10
74.0572
 20
48.7193
 30
0.0
 11
88.0565
 21
48.7193
 31
0.0
  0
LINE
  8
0
 62
     0
 10
88.0565
 20
48.7193
 30
0.0
 11
88.0565
 21
49.7198
 31
0.0
  0
LINE
  8
0
 62
     0
 10
88.0565
 20
49.7198
 30
0.0
 11
88.8573
 21
49.7198
 31
0.0
  0
LINE
  8
0
 62
     0
 10
88.8573
 20
49.7198
 30
0.0
 11
88.8573
 21
52.8204
 31
0.0
  0
LINE
  8
0
 62
     0
 10
88.8573
 20
52.8204
 30
0.0
 11
88.0565
 21
52.8204
 31
0.0
  0
LINE
  8
0
 62
     0
 10
88.0565
 20
52.8204
 30
0.0
 11
88.0565
 21
58.619
 31
0.0
  0
LINE
  8
0
 62
     0
 10
88.0565
 20
58.619
 30
0.0
 11
88.8573
 21
58.619
 31
0.0
  0
LINE
  8
0
 62
     0
 10
88.8573
 20
58.619
 30
0.0
 11
88.8573
 21
61.7195
 31
0.0
  0
LINE
  8
0
 62
     0
 10
88.8573
 20
61.7195
 30
0.0
 11
88.0565
 21
61.7195
 31
0.0
  0
LINE
  8
0
 62
     0
 10
88.0565
 20
61.7195
 30
0.0
 11
88.0565
 21
62.72
 31
0.0
  0
LINE
  8
0
 62
     0
 10
88.0565
 20
62.72
 30
0.0
 11
74.0572
 21
62.72
 31
0.0
  0
LINE
  8
0
 62
     0
 10
93.1072
 20
62.72
 30
0.0
 11
93.1072
 21
61.7195
 31
0.0
  0
LINE
  8
0
 62
     0
 10
93.1072
 20
61.7195
 30
0.0
 11
92.3064
 21
61.7195
 31
0.0
  0
LINE
  8
0
 62
     0
 10
92.3064
 20
61.7195
 30
0.0
 11
92.3064
 21
58.619
 31
0.0
  0
LINE
  8
0
 62
     0
 10
92.3064
 20
58.619
 30
0.0
 11
93.1072
 21
58.619
 31
0.0
  0
LINE
  8
0
 62
     0
 10
93.1072
 20
58.619
 30
0.0
 11
93.1072
 21
52.8204
 31
0.0
  0
LINE
  8
0
 62
     0
 10
93.1072
 20
52.8204
 30
0.0
 11
92.3064
 21
52.8204
 31
0.0
  0
LINE
  8
0
 62
     0
 10
92.3064
 20
52.8204
 30
0.0
 11
92.3064
 21
49.7198
 31
0.0
  0
LINE
  8
0
 62
     0
 10
92.3064
 20
49.7198
 30
0.0
 11
93.1072
 21
49.7198
 31
0.0
  0
LINE
  8
0
 62
     0
 10
93.1072
 20
49.7198
 30
0.0
 11
93.1072
 21
48.7193
 31
0.0
  0
LINE
  8
0
 62
     0
 10
93.1072
 20
48.7193
 30
0.0
 11
107.107
 21
48.7193
 31
0.0
  0
LINE
  8
0
 62
     0
 10
107.107
 20
48.7193
 30
0.0
 11
107.107
 21
49.7198
 31
0.0
  0
LINE
  8
0
 62
     0
 10
107.107
 20
49.7198
 30
0.0
 11
107.907
 21
49.7198
 31
0.0
  0
LINE
  8
0
 62
     0
 10
107.907
 20
49.7198
 30
0.0
 11
107.907
 21
52.8204
 31
0.0
  0
LINE
  8
0
 62
     0
 10
107.907
 20
52.8204
 30
0.0
 11
107.107
 21
52.8204
 31
0.0
  0
LINE
  8
0
 62
     0
 10
107.107
 20
52.8204
 30
0.0
 11
107.107
 21
58.619
 31
0.0
  0
LINE
  8
0
 62
     0
 10
107.107
 20
58.619
 30
0.0
 11
107.907
 21
58.619
 31
0.0
  0
LINE
  8
0
 62
     0
 10
107.907
 20
58.619
 30
0.0
 11
107.907
 21
61.7195
 31
0.0
  0
LINE
  8
0
 62
     0
 10
107.907
 20
61.7195
 30
0.0
 11
107.107
 21
61.7195
 31
0.0
  0
LINE
  8
0
 62
     0
 10
107.107
 20
61.7195
 30
0.0
 11
107.107
 21
62.72
 31
0.0
  0
LINE
  8
0
 62
     0
 10
107.107
 20
62.72
 30
0.0
 11
93.1072
 21
62.72
 31
0.0
  0
LINE
  8
0
 62
     0
 10
112.157
 20
62.72
 30
0.0
 11
112.157
 21
61.7195
 31
0.0
  0
LINE
  8
0
 62
     0
 10
112.157
 20
61.7195
 30
0.0
 11
111.356
 21
61.7195
 31
0.0
  0
LINE
  8
0
 62
     0
 10
111.356
 20
61.7195
 30
0.0
 11
111.356
 21
58.619
 31
0.0
  0
LINE
  8
0
 62
     0
 10
111.356
 20
58.619
 30
0.0
 11
112.157
 21
58.619
 31
0.0
  0
LINE
  8
0
 62
     0
 10
112.157
 20
58.619
 30
0.0
 11
112.157
 21
52.8204
 31
0.0
  0
LINE
  8
0
 62
     0
 10
112.157
 20
52.8204
 30
0.0
 11
111.356
 21
52.8204
 31
0.0
  0
LINE
  8
0
 62
     0
 10
111.356
 20
52.8204
 30
0.0
 11
111.356
 21
49.7198
 31
0.0
  0
LINE
  8
0
 62
     0
 10
111.356
 20
49.7198
 30
0.0
 11
112.157
 21
49.7198
 31
0.0
  0
LINE
  8
0
 62
     0
 10
112.157
 20
49.7198
 30
0.0
 11
112.157
 21
48.7193
 31
0.0
  0
LINE
  8
0
 62
     0
 10
112.157
 20
48.7193
 30
0.0
 11
126.157
 21
48.7193
 31
0.0
  0
LINE
  8
0
 62
     0
 10
126.157
 20
48.7193
 30
0.0
 11
126.157
 21
49.7198
 31
0.0
  0
LINE
  8
0
 62
     0
 10
126.157
 20
49.7198
 30
0.0
 11
126.957
 21
49.7198
 31
0.0
  0
LINE
  8
0
 62
     0
 10
126.957
 20
49.7198
 30
0.0
 11
126.957
 21
52.8204
 31
0.0
  0
LINE
  8
0
 62
     0
 10
126.957
 20
52.8204
 30
0.0
 11
126.157
 21
52.8204
 31
0.0
  0
LINE
  8
0
 62
     0
 10
126.157
 20
52.8204
 30
0.0
 11
126.157
 21
58.619
 31
0.0
  0
LINE
  8
0
 62
     0
 10
126.157
 20
58.619
 30
0.0
 11
126.957
 21
58.619
 31
0.0
  0
LINE
  8
0
 62
     0
 10
126.957
 20
58.619
 30
0.0
 11
126.957
 21
61.7195
 31
0.0
  0
LINE
  8
0
 62
     0
 10
126.957
 20
61.7195
 30
0.0
 11
126.157
 21
61.7195
 31
0.0
  0
LINE
  8
0
 62
     0
 10
126.157
 20
61.7195
 30
0.0
 11
126.157
 21
62.72
 31
0.0
  0
LINE
  8
0
 62
     0
 10
126.157
 20
62.72
 30
0.0
 11
112.157
 21
62.72
 31
0.0
  0
LINE
  8
0
 62
     0
 10
131.207
 20
62.72
 30
0.0
 11
131.207
 21
61.7195
 31
0.0
  0
LINE
  8
0
 62
     0
 10
131.207
 20
61.7195
 30
0.0
 11
130.406
 21
61.7195
 31
0.0
  0
LINE
  8
0
 62
     0
 10
130.406
 20
61.7195
 30
0.0
 11
130.406
 21
58.619
 31
0.0
  0
LINE
  8
0
 62
     0
 10
130.406
 20
58.619
 30
0.0
 11
131.207
 21
58.619
 31
0.0
  0
LINE
  8
0
 62
     0
 10
131.207
 20
58.619
 30
0.0
 11
131.207
 21
52.8204
 31
0.0
  0
LINE
  8
0
 62
     0
 10
131.207
 20
52.8204
 30
0.0
 11
130.406
 21
52.8204
 31
0.0
  0
LINE
  8
0
 62
     0
 10
130.406
 20
52.8204
 30
0.0
 11
130.406
 21
49.7198
 31
0.0
  0
LINE
  8
0
 62
     0
 10
130.406
 20
49.7198
 30
0.0
 11
131.207
 21
49.7198
 31
0.0
  0
LINE
  8
0
 62
     0
 10
131.207
 20
49.7198
 30
0.0
 11
131.207
 21
48.7193
 31
0.0
  0
LINE
  8
0
 62
     0
 10
131.207
 20
48.7193
 30
0.0
 11
145.207
 21
48.7193
 31
0.0
  0
LINE
  8
0
 62
     0
 10
145.207
 20
48.7193
 30
0.0
 11
145.207
 21
49.7198
 31
0.0
  0
LINE
  8
0
 62
     0
 10
145.207
 20
49.7198
 30
0.0
 11
146.007
 21
49.7198
 31
0.0
  0
LINE
  8
0
 62
     0
 10
146.007
 20
49.7198
 30
0.0
 11
146.007
 21
52.8204
 31
0.0
  0
LINE
  8
0
 62
     0
 10
146.007
 20
52.8204
 30
0.0
 11
145.207
 21
52.8204
 31
0.0
  0
LINE
  8
0
 62
     0
 10
145.207
 20
52.8204
 30
0.0
 11
145.207
 21
58.619
 31
0.0
  0
LINE
  8
0
 62
     0
 10
145.207
 20
58.619
 30
0.0
 11
146.007
 21
58.619
 31
0.0
  0
LINE
  8
0
 62
     0
 10
146.007
 20
58.619
 30
0.0
 11
146.007
 21
61.7195
 31
0.0
  0
LINE
  8
0
 62
     0
 10
146.007
 20
61.7195
 30
0.0
 11
145.207
 21
61.7195
 31
0.0
  0
LINE
  8
0
 62
     0
 10
145.207
 20
61.7195
 30
0.0
 11
145.207
 21
62.72
 31
0.0
  0
LINE
  8
0
 62
     0
 10
145.207
 20
62.72
 30
0.0
 11
131.207
 21
62.72
 31
0.0
  0
LINE
  8
0
 62
     0
 10
150.257
 20
62.72
 30
0.0
 11
150.257
 21
61.7195
 31
0.0
  0
LINE
  8
0
 62
     0
 10
150.257
 20
61.7195
 30
0.0
 11
149.456
 21
61.7195
 31
0.0
  0
LINE
  8
0
 62
     0
 10
149.456
 20
61.7195
 30
0.0
 11
149.456
 21
58.619
 31
0.0
  0
LINE
  8
0
 62
     0
 10
149.456
 20
58.619
 30
0.0
 11
150.257
 21
58.619
 31
0.0
  0
LINE
  8
0
 62
     0
 10
150.257
 20
58.619
 30
0.0
 11
150.257
 21
52.8204
 31
0.0
  0
LINE
  8
0
 62
     0
 10
150.257
 20
52.8204
 30
0.0
 11
149.456
 21
52.8204
 31
0.0
  0
LINE
  8
0
 62
     0
 10
149.456
 20
52.8204
 30
0.0
 11
149.456
 21
49.7198
 31
0.0
  0
LINE
  8
0
 62
     0
 10
149.456
 20
49.7198
 30
0.0
 11
150.257
 21
49.7198
 31
0.0
  0
LINE
  8
0
 62
     0
 10
150.257
 20
49.7198
 30
0.0
 11
150.257
 21
48.7193
 31
0.0
  0
LINE
  8
0
 62
     0
 10
150.257
 20
48.7193
 30
0.0
 11
164.257
 21
48.7193
 31
0.0
  0
LINE
  8
0
 62
     0
 10
164.257
 20
48.7193
 30
0.0
 11
164.257
 21
49.7198
 31
0.0
  0
LINE
  8
0
 62
     0
 10
164.257
 20
49.7198
 30
0.0
 11
165.057
 21
49.7198
 31
0.0
  0
LINE
  8
0
 62
     0
 10
165.057
 20
49.7198
 30
0.0
 11
165.057
 21
52.8204
 31
0.0
  0
LINE
  8
0
 62
     0
 10
165.057
 20
52.8204
 30
0.0
 11
164.257
 21
52.8204
 31
0.0
  0
LINE
  8
0
 62
     0
 10
164.257
 20
52.8204
 30
0.0
 11
164.257
 21
58.619
 31
0.0
  0
LINE
  8
0
 62
     0
 10
164.257
 20
58.619
 30
0.0
 11
165.057
 21
58.619
 31
0.0
  0
LINE
  8
0
 62
     0
 10
165.057
 20
58.619
 30
0.0
 11
165.057
 21
61.7195
 31
0.0
  0
LINE
  8
0
 62
     0
 10
165.057
 20
61.7195
 30
0.0
 11
164.257
 21
61.7195
 31
0.0
  0
LINE
  8
0
 62
     0
 10
164.257
 20
61.7195
 30
0.0
 11
164.257
 21
62.72
 31
0.0
  0
LINE
  8
0
 62
     0
 10
164.257
 20
62.72
 30
0.0
 11
150.257
 21
62.72
 31
0.0
  0
LINE
  8
0
 62
     0
 10
169.307
 20
62.72
 30
0.0
 11
169.307
 21
61.7195
 31
0.0
  0
LINE
  8
0
 62
     0
 10
169.307
 20
61.7195
 30
0.0
 11
168.506
 21
61.7195
 31
0.0
  0
LINE
  8
0
 62
     0
 10
168.506
 20
61.7195
 30
0.0
 11
168.506
 21
58.619
 31
0.0
  0
LINE
  8
0
 62
     0
 10
168.506
 20
58.619
 30
0.0
 11
169.307
 21
58.619
 31
0.0
  0
LINE
  8
0
 62
     0
 10
169.307
 20
58.619
 30
0.0
 11
169.307
 21
52.8204
 31
0.0
  0
LINE
  8
0
 62
     0
 10
169.307
 20
52.8204
 30
0.0
 11
168.506
 21
52.8204
 31
0.0
  0
LINE
  8
0
 62
     0
 10
168.506
 20
52.8204
 30
0.0
 11
168.506
 21
49.7198
 31
0.0
  0
LINE
  8
0
 62
     0
 10
168.506
 20
49.7198
 30
0.0
 11
169.307
 21
49.7198
 31
0.0
  0
LINE
  8
0
 62
     0
 10
169.307
 20
49.7198
 30
0.0
 11
169.307
 21
48.7193
 31
0.0
  0
LINE
  8
0
 62
     0
 10
169.307
 20
48.7193
 30
0.0
 11
183.307
 21
48.7193
 31
0.0
  0
LINE
  8
0
 62
     0
 10
183.307
 20
48.7193
 30
0.0
 11
183.307
 21
49.7198
 31
0.0
  0
LINE
  8
0
 62
     0
 10
183.307
 20
49.7198
 30
0.0
 11
184.107
 21
49.7198
 31
0.0
  0
LINE
  8
0
 62
     0
 10
184.107
 20
49.7198
 30
0.0
 11
184.107
 21
52.8204
 31
0.0
  0
LINE
  8
0
 62
     0
 10
184.107
 20
52.8204
 30
0.0
 11
183.307
 21
52.8204
 31
0.0
  0
LINE
  8
0
 62
     0
 10
183.307
 20
52.8204
 30
0.0
 11
183.307
 21
58.619
 31
0.0
  0
LINE
  8
0
 62
     0
 10
183.307
 20
58.619
 30
0.0
 11
184.107
 21
58.619
 31
0.0
  0
LINE
  8
0
 62
     0
 10
184.107
 20
58.619
 30
0.0
 11
184.107
 21
61.7195
 31
0.0
  0
LINE
  8
0
 62
     0
 10
184.107
 20
61.7195
 30
0.0
 11
183.307
 21
61.7195
 31
0.0
  0
LINE
  8
0
 62
     0
 10
183.307
 20
61.7195
 30
0.0
 11
183.307
 21
62.72
 31
0.0
  0
LINE
  8
0
 62
     0
 10
183.307
 20
62.72
 30
0.0
 11
169.307
 21
62.72
 31
0.0
  0
LINE
  8
0
 62
     0
 10
188.357
 20
62.72
 30
0.0
 11
188.357
 21
61.7195
 31
0.0
  0
LINE
  8
0
 62
     0
 10
188.357
 20
61.7195
 30
0.0
 11
187.556
 21
61.7195
 31
0.0
  0
LINE
  8
0
 62
     0
 10
187.556
 20
61.7195
 30
0.0
 11
187.556
 21
58.619
 31
0.0
  0
LINE
  8
0
 62
     0
 10
187.556
 20
58.619
 30
0.0
 11
188.357
 21
58.619
 31
0.0
  0
LINE
  8
0
 62
     0
 10
188.357
 20
58.619
 30
0.0
 11
188.357
 21
52.8204
 31
0.0
  0
LINE
  8
0
 62
     0
 10
188.357
 20
52.8204
 30
0.0
 11
187.556
 21
52.8204
 31
0.0
  0
LINE
  8
0
 62
     0
 10
187.556
 20
52.8204
 30
0.0
 11
187.556
 21
49.7198
 31
0.0
  0
LINE
  8
0
 62
     0
 10
187.556
 20
49.7198
 30
0.0
 11
188.357
 21
49.7198
 31
0.0
  0
LINE
  8
0
 62
     0
 10
188.357
 20
49.7198
 30
0.0
 11
188.357
 21
48.7193
 31
0.0
  0
LINE
  8
0
 62
     0
 10
188.357
 20
48.7193
 30
0.0
 11
202.357
 21
48.7193
 31
0.0
  0
LINE
  8
0
 62
     0
 10
202.357
 20
48.7193
 30
0.0
 11
202.357
 21
49.7198
 31
0.0
  0
LINE
  8
0
 62
     0
 10
202.357
 20
49.7198
 30
0.0
 11
203.157
 21
49.7198
 31
0.0
  0
LINE
  8
0
 62
     0
 10
203.157
 20
49.7198
 30
0.0
 11
203.157
 21
52.8204
 31
0.0
  0
LINE
  8
0
 62
     0
 10
203.157
 20
52.8204
 30
0.0
 11
202.357
 21
52.8204
 31
0.0
  0
LINE
  8
0
 62
     0
 10
202.357
 20
52.8204
 30
0.0
 11
202.357
 21
58.619
 31
0.0
  0
LINE
  8
0
 62
     0
 10
202.357
 20
58.619
 30
0.0
 11
203.157
 21
58.619
 31
0.0
  0
LINE
  8
0
 62
     0
 10
203.157
 20
58.619
 30
0.0
 11
203.157
 21
61.7195
 31
0.0
  0
LINE
  8
0
 62
     0
 10
203.157
 20
61.7195
 30
0.0
 11
202.357
 21
61.7195
 31
0.0
  0
LINE
  8
0
 62
     0
 10
202.357
 20
61.7195
 30
0.0
 11
202.357
 21
62.72
 31
0.0
  0
LINE
  8
0
 62
     0
 10
202.357
 20
62.72
 30
0.0
 11
188.357
 21
62.72
 31
0.0
  0
LINE
  8
0
 62
     0
 10
207.407
 20
62.72
 30
0.0
 11
207.407
 21
61.7195
 31
0.0
  0
LINE
  8
0
 62
     0
 10
207.407
 20
61.7195
 30
0.0
 11
206.606
 21
61.7195
 31
0.0
  0
LINE
  8
0
 62
     0
 10
206.606
 20
61.7195
 30
0.0
 11
206.606
 21
58.619
 31
0.0
  0
LINE
  8
0
 62
     0
 10
206.606
 20
58.619
 30
0.0
 11
207.407
 21
58.619
 31
0.0
  0
LINE
  8
0
 62
     0
 10
207.407
 20
58.619
 30
0.0
 11
207.407
 21
52.8204
 31
0.0
  0
LINE
  8
0
 62
     0
 10
207.407
 20
52.8204
 30
0.0
 11
206.606
 21
52.8204
 31
0.0
  0
LINE
  8
0
 62
     0
 10
206.606
 20
52.8204
 30
0.0
 11
206.606
 21
49.7198
 31
0.0
  0
LINE
  8
0
 62
     0
 10
206.606
 20
49.7198
 30
0.0
 11
207.407
 21
49.7198
 31
0.0
  0
LINE
  8
0
 62
     0
 10
207.407
 20
49.7198
 30
0.0
 11
207.407
 21
48.7193
 31
0.0
  0
LINE
  8
0
 62
     0
 10
207.407
 20
48.7193
 30
0.0
 11
221.407
 21
48.7193
 31
0.0
  0
LINE
  8
0
 62
     0
 10
221.407
 20
48.7193
 30
0.0
 11
221.407
 21
49.7198
 31
0.0
  0
LINE
  8
0
 62
     0
 10
221.407
 20
49.7198
 30
0.0
 11
222.207
 21
49.7198
 31
0.0
  0
LINE
  8
0
 62
     0
 10
222.207
 20
49.7198
 30
0.0
 11
222.207
 21
52.8204
 31
0.0
  0
LINE
  8
0
 62
     0
 10
222.207
 20
52.8204
 30
0.0
 11
221.407
 21
52.8204
 31
0.0
  0
LINE
  8
0
 62
     0
 10
221.407
 20
52.8204
 30
0.0
 11
221.407
 21
58.619
 31
0.0
  0
LINE
  8
0
 62
     0
 10
221.407
 20
58.619
 30
0.0
 11
222.207
 21
58.619
 31
0.0
  0
LINE
  8
0
 62
     0
 10
222.207
 20
58.619
 30
0.0
 11
222.207
 21
61.7195
 31
0.0
  0
LINE
  8
0
 62
     0
 10
222.207
 20
61.7195
 30
0.0
 11
221.407
 21
61.7195
 31
0.0
  0
LINE
  8
0
 62
     0
 10
221.407
 20
61.7195
 30
0.0
 11
221.407
 21
62.72
 31
0.0
  0
LINE
  8
0
 62
     0
 10
221.407
 20
62.72
 30
0.0
 11
207.407
 21
62.72
 31
0.0
  0
LINE
  8
0
 62
     0
 10
226.457
 20
62.72
 30
0.0
 11
226.457
 21
61.7195
 31
0.0
  0
LINE
  8
0
 62
     0
 10
226.457
 20
61.7195
 30
0.0
 11
225.656
 21
61.7195
 31
0.0
  0
LINE
  8
0
 62
     0
 10
225.656
 20
61.7195
 30
0.0
 11
225.656
 21
58.619
 31
0.0
  0
LINE
  8
0
 62
     0
 10
225.656
 20
58.619
 30
0.0
 11
226.457
 21
58.619
 31
0.0
  0
LINE
  8
0
 62
     0
 10
226.457
 20
58.619
 30
0.0
 11
226.457
 21
52.8204
 31
0.0
  0
LINE
  8
0
 62
     0
 10
226.457
 20
52.8204
 30
0.0
 11
225.656
 21
52.8204
 31
0.0
  0
LINE
  8
0
 62
     0
 10
225.656
 20
52.8204
 30
0.0
 11
225.656
 21
49.7198
 31
0.0
  0
LINE
  8
0
 62
     0
 10
225.656
 20
49.7198
 30
0.0
 11
226.457
 21
49.7198
 31
0.0
  0
LINE
  8
0
 62
     0
 10
226.457
 20
49.7198
 30
0.0
 11
226.457
 21
48.7193
 31
0.0
  0
LINE
  8
0
 62
     0
 10
226.457
 20
48.7193
 30
0.0
 11
240.457
 21
48.7193
 31
0.0
  0
LINE
  8
0
 62
     0
 10
240.457
 20
48.7193
 30
0.0
 11
240.457
 21
49.7198
 31
0.0
  0
LINE
  8
0
 62
     0
 10
240.457
 20
49.7198
 30
0.0
 11
241.257
 21
49.7198
 31
0.0
  0
LINE
  8
0
 62
     0
 10
241.257
 20
49.7198
 30
0.0
 11
241.257
 21
52.8204
 31
0.0
  0
LINE
  8
0
 62
     0
 10
241.257
 20
52.8204
 30
0.0
 11
240.457
 21
52.8204
 31
0.0
  0
LINE
  8
0
 62
     0
 10
240.457
 20
52.8204
 30
0.0
 11
240.457
 21
58.619
 31
0.0
  0
LINE
  8
0
 62
     0
 10
240.457
 20
58.619
 30
0.0
 11
241.257
 21
58.619
 31
0.0
  0
LINE
  8
0
 62
     0
 10
241.257
 20
58.619
 30
0.0
 11
241.257
 21
61.7195
 31
0.0
  0
LINE
  8
0
 62
     0
 10
241.257
 20
61.7195
 30
0.0
 11
240.457
 21
61.7195
 31
0.0
  0
LINE
  8
0
 62
     0
 10
240.457
 20
61.7195
 30
0.0
 11
240.457
 21
62.72
 31
0.0
  0
LINE
  8
0
 62
     0
 10
240.457
 20
62.72
 30
0.0
 11
226.457
 21
62.72
 31
0.0
  0
LINE
  8
0
 62
     0
 10
7.38216
 20
81.77
 30
0.0
 11
7.38216
 21
80.7695
 31
0.0
  0
LINE
  8
0
 62
     0
 10
7.38216
 20
80.7695
 30
0.0
 11
6.58153
 21
80.7695
 31
0.0
  0
LINE
  8
0
 62
     0
 10
6.58153
 20
80.7695
 30
0.0
 11
6.58153
 21
77.669
 31
0.0
  0
LINE
  8
0
 62
     0
 10
6.58153
 20
77.669
 30
0.0
 11
7.38216
 21
77.669
 31
0.0
  0
LINE
  8
0
 62
     0
 10
7.38216
 20
77.669
 30
0.0
 11
7.38216
 21
71.8704
 31
0.0
  0
LINE
  8
0
 62
     0
 10
7.38216
 20
71.8704
 30
0.0
 11
6.58153
 21
71.8704
 31
0.0
  0
LINE
  8
0
 62
     0
 10
6.58153
 20
71.8704
 30
0.0
 11
6.58153
 21
68.7698
 31
0.0
  0
LINE
  8
0
 62
     0
 10
6.58153
 20
68.7698
 30
0.0
 11
7.38216
 21
68.7698
 31
0.0
  0
LINE
  8
0
 62
     0
 10
7.38216
 20
68.7698
 30
0.0
 11
7.38216
 21
67.7693
 31
0.0
  0
LINE
  8
0
 62
     0
 10
7.38216
 20
67.7693
 30
0.0
 11
21.3817
 21
67.7693
 31
0.0
  0
LINE
  8
0
 62
     0
 10
21.3817
 20
67.7693
 30
0.0
 11
21.3817
 21
68.7698
 31
0.0
  0
LINE
  8
0
 62
     0
 10
21.3817
 20
68.7698
 30
0.0
 11
22.1823
 21
68.7698
 31
0.0
  0
LINE
  8
0
 62
     0
 10
22.1823
 20
68.7698
 30
0.0
 11
22.1823
 21
71.8704
 31
0.0
  0
LINE
  8
0
 62
     0
 10
22.1823
 20
71.8704
 30
0.0
 11
21.3817
 21
71.8704
 31
0.0
  0
LINE
  8
0
 62
     0
 10
21.3817
 20
71.8704
 30
0.0
 11
21.3817
 21
77.669
 31
0.0
  0
LINE
  8
0
 62
     0
 10
21.3817
 20
77.669
 30
0.0
 11
22.1823
 21
77.669
 31
0.0
  0
LINE
  8
0
 62
     0
 10
22.1823
 20
77.669
 30
0.0
 11
22.1823
 21
80.7695
 31
0.0
  0
LINE
  8
0
 62
     0
 10
22.1823
 20
80.7695
 30
0.0
 11
21.3817
 21
80.7695
 31
0.0
  0
LINE
  8
0
 62
     0
 10
21.3817
 20
80.7695
 30
0.0
 11
21.3817
 21
81.77
 31
0.0
  0
LINE
  8
0
 62
     0
 10
21.3817
 20
81.77
 30
0.0
 11
7.38216
 21
81.77
 31
0.0
  0
LINE
  8
0
 62
     0
 10
31.1947
 20
81.77
 30
0.0
 11
31.1947
 21
80.7695
 31
0.0
  0
LINE
  8
0
 62
     0
 10
31.1947
 20
80.7695
 30
0.0
 11
30.3954
 21
80.7695
 31
0.0
  0
LINE
  8
0
 62
     0
 10
30.3954
 20
80.7695
 30
0.0
 11
30.3954
 21
77.669
 31
0.0
  0
LINE
  8
0
 62
     0
 10
30.3954
 20
77.669
 30
0.0
 11
31.1947
 21
77.669
 31
0.0
  0
LINE
  8
0
 62
     0
 10
31.1947
 20
77.669
 30
0.0
 11
31.1947
 21
71.8704
 31
0.0
  0
LINE
  8
0
 62
     0
 10
31.1947
 20
71.8704
 30
0.0
 11
30.3954
 21
71.8704
 31
0.0
  0
LINE
  8
0
 62
     0
 10
30.3954
 20
71.8704
 30
0.0
 11
30.3954
 21
68.7698
 31
0.0
  0
LINE
  8
0
 62
     0
 10
30.3954
 20
68.7698
 30
0.0
 11
31.1947
 21
68.7698
 31
0.0
  0
LINE
  8
0
 62
     0
 10
31.1947
 20
68.7698
 30
0.0
 11
31.1947
 21
67.7693
 31
0.0
  0
LINE
  8
0
 62
     0
 10
31.1947
 20
67.7693
 30
0.0
 11
45.194
 21
67.7693
 31
0.0
  0
LINE
  8
0
 62
     0
 10
45.194
 20
67.7693
 30
0.0
 11
45.194
 21
68.7698
 31
0.0
  0
LINE
  8
0
 62
     0
 10
45.194
 20
68.7698
 30
0.0
 11
45.9948
 21
68.7698
 31
0.0
  0
LINE
  8
0
 62
     0
 10
45.9948
 20
68.7698
 30
0.0
 11
45.9948
 21
71.8704
 31
0.0
  0
LINE
  8
0
 62
     0
 10
45.9948
 20
71.8704
 30
0.0
 11
45.194
 21
71.8704
 31
0.0
  0
LINE
  8
0
 62
     0
 10
45.194
 20
71.8704
 30
0.0
 11
45.194
 21
77.669
 31
0.0
  0
LINE
  8
0
 62
     0
 10
45.194
 20
77.669
 30
0.0
 11
45.9948
 21
77.669
 31
0.0
  0
LINE
  8
0
 62
     0
 10
45.9948
 20
77.669
 30
0.0
 11
45.9948
 21
80.7695
 31
0.0
  0
LINE
  8
0
 62
     0
 10
45.9948
 20
80.7695
 30
0.0
 11
45.194
 21
80.7695
 31
0.0
  0
LINE
  8
0
 62
     0
 10
45.194
 20
80.7695
 30
0.0
 11
45.194
 21
81.77
 31
0.0
  0
LINE
  8
0
 62
     0
 10
45.194
 20
81.77
 30
0.0
 11
31.1947
 21
81.77
 31
0.0
  0
LINE
  8
0
 62
     0
 10
50.2447
 20
81.77
 30
0.0
 11
50.2447
 21
80.7695
 31
0.0
  0
LINE
  8
0
 62
     0
 10
50.2447
 20
80.7695
 30
0.0
 11
49.4453
 21
80.7695
 31
0.0
  0
LINE
  8
0
 62
     0
 10
49.4453
 20
80.7695
 30
0.0
 11
49.4453
 21
77.669
 31
0.0
  0
LINE
  8
0
 62
     0
 10
49.4453
 20
77.669
 30
0.0
 11
50.2447
 21
77.669
 31
0.0
  0
LINE
  8
0
 62
     0
 10
50.2447
 20
77.669
 30
0.0
 11
50.2447
 21
71.8704
 31
0.0
  0
LINE
  8
0
 62
     0
 10
50.2447
 20
71.8704
 30
0.0
 11
49.4453
 21
71.8704
 31
0.0
  0
LINE
  8
0
 62
     0
 10
49.4453
 20
71.8704
 30
0.0
 11
49.4453
 21
68.7698
 31
0.0
  0
LINE
  8
0
 62
     0
 10
49.4453
 20
68.7698
 30
0.0
 11
50.2447
 21
68.7698
 31
0.0
  0
LINE
  8
0
 62
     0
 10
50.2447
 20
68.7698
 30
0.0
 11
50.2447
 21
67.7693
 31
0.0
  0
LINE
  8
0
 62
     0
 10
50.2447
 20
67.7693
 30
0.0
 11
64.244
 21
67.7693
 31
0.0
  0
LINE
  8
0
 62
     0
 10
64.244
 20
67.7693
 30
0.0
 11
64.244
 21
68.7698
 31
0.0
  0
LINE
  8
0
 62
     0
 10
64.244
 20
68.7698
 30
0.0
 11
65.0448
 21
68.7698
 31
0.0
  0
LINE
  8
0
 62
     0
 10
65.0448
 20
68.7698
 30
0.0
 11
65.0448
 21
71.8704
 31
0.0
  0
LINE
  8
0
 62
     0
 10
65.0448
 20
71.8704
 30
0.0
 11
64.244
 21
71.8704
 31
0.0
  0
LINE
  8
0
 62
     0
 10
64.244
 20
71.8704
 30
0.0
 11
64.244
 21
77.669
 31
0.0
  0
LINE
  8
0
 62
     0
 10
64.244
 20
77.669
 30
0.0
 11
65.0448
 21
77.669
 31
0.0
  0
LINE
  8
0
 62
     0
 10
65.0448
 20
77.669
 30
0.0
 11
65.0448
 21
80.7695
 31
0.0
  0
LINE
  8
0
 62
     0
 10
65.0448
 20
80.7695
 30
0.0
 11
64.244
 21
80.7695
 31
0.0
  0
LINE
  8
0
 62
     0
 10
64.244
 20
80.7695
 30
0.0
 11
64.244
 21
81.77
 31
0.0
  0
LINE
  8
0
 62
     0
 10
64.244
 20
81.77
 30
0.0
 11
50.2447
 21
81.77
 31
0.0
  0
LINE
  8
0
 62
     0
 10
69.2947
 20
81.77
 30
0.0
 11
69.2947
 21
80.7695
 31
0.0
  0
LINE
  8
0
 62
     0
 10
69.2947
 20
80.7695
 30
0.0
 11
68.4953
 21
80.7695
 31
0.0
  0
LINE
  8
0
 62
     0
 10
68.4953
 20
80.7695
 30
0.0
 11
68.4953
 21
77.669
 31
0.0
  0
LINE
  8
0
 62
     0
 10
68.4953
 20
77.669
 30
0.0
 11
69.2947
 21
77.669
 31
0.0
  0
LINE
  8
0
 62
     0
 10
69.2947
 20
77.669
 30
0.0
 11
69.2947
 21
71.8704
 31
0.0
  0
LINE
  8
0
 62
     0
 10
69.2947
 20
71.8704
 30
0.0
 11
68.4953
 21
71.8704
 31
0.0
  0
LINE
  8
0
 62
     0
 10
68.4953
 20
71.8704
 30
0.0
 11
68.4953
 21
68.7698
 31
0.0
  0
LINE
  8
0
 62
     0
 10
68.4953
 20
68.7698
 30
0.0
 11
69.2947
 21
68.7698
 31
0.0
  0
LINE
  8
0
 62
     0
 10
69.2947
 20
68.7698
 30
0.0
 11
69.2947
 21
67.7693
 31
0.0
  0
LINE
  8
0
 62
     0
 10
69.2947
 20
67.7693
 30
0.0
 11
83.294
 21
67.7693
 31
0.0
  0
LINE
  8
0
 62
     0
 10
83.294
 20
67.7693
 30
0.0
 11
83.294
 21
68.7698
 31
0.0
  0
LINE
  8
0
 62
     0
 10
83.294
 20
68.7698
 30
0.0
 11
84.0948
 21
68.7698
 31
0.0
  0
LINE
  8
0
 62
     0
 10
84.0948
 20
68.7698
 30
0.0
 11
84.0948
 21
71.8704
 31
0.0
  0
LINE
  8
0
 62
     0
 10
84.0948
 20
71.8704
 30
0.0
 11
83.294
 21
71.8704
 31
0.0
  0
LINE
  8
0
 62
     0
 10
83.294
 20
71.8704
 30
0.0
 11
83.294
 21
77.669
 31
0.0
  0
LINE
  8
0
 62
     0
 10
83.294
 20
77.669
 30
0.0
 11
84.0948
 21
77.669
 31
0.0
  0
LINE
  8
0
 62
     0
 10
84.0948
 20
77.669
 30
0.0
 11
84.0948
 21
80.7695
 31
0.0
  0
LINE
  8
0
 62
     0
 10
84.0948
 20
80.7695
 30
0.0
 11
83.294
 21
80.7695
 31
0.0
  0
LINE
  8
0
 62
     0
 10
83.294
 20
80.7695
 30
0.0
 11
83.294
 21
81.77
 31
0.0
  0
LINE
  8
0
 62
     0
 10
83.294
 20
81.77
 30
0.0
 11
69.2947
 21
81.77
 31
0.0
  0
LINE
  8
0
 62
     0
 10
88.3447
 20
81.77
 30
0.0
 11
88.3447
 21
80.7695
 31
0.0
  0
LINE
  8
0
 62
     0
 10
88.3447
 20
80.7695
 30
0.0
 11
87.5453
 21
80.7695
 31
0.0
  0
LINE
  8
0
 62
     0
 10
87.5453
 20
80.7695
 30
0.0
 11
87.5453
 21
77.669
 31
0.0
  0
LINE
  8
0
 62
     0
 10
87.5453
 20
77.669
 30
0.0
 11
88.3447
 21
77.669
 31
0.0
  0
LINE
  8
0
 62
     0
 10
88.3447
 20
77.669
 30
0.0
 11
88.3447
 21
71.8704
 31
0.0
  0
LINE
  8
0
 62
     0
 10
88.3447
 20
71.8704
 30
0.0
 11
87.5453
 21
71.8704
 31
0.0
  0
LINE
  8
0
 62
     0
 10
87.5453
 20
71.8704
 30
0.0
 11
87.5453
 21
68.7698
 31
0.0
  0
LINE
  8
0
 62
     0
 10
87.5453
 20
68.7698
 30
0.0
 11
88.3447
 21
68.7698
 31
0.0
  0
LINE
  8
0
 62
     0
 10
88.3447
 20
68.7698
 30
0.0
 11
88.3447
 21
67.7693
 31
0.0
  0
LINE
  8
0
 62
     0
 10
88.3447
 20
67.7693
 30
0.0
 11
102.344
 21
67.7693
 31
0.0
  0
LINE
  8
0
 62
     0
 10
102.344
 20
67.7693
 30
0.0
 11
102.344
 21
68.7698
 31
0.0
  0
LINE
  8
0
 62
     0
 10
102.344
 20
68.7698
 30
0.0
 11
103.145
 21
68.7698
 31
0.0
  0
LINE
  8
0
 62
     0
 10
103.145
 20
68.7698
 30
0.0
 11
103.145
 21
71.8704
 31
0.0
  0
LINE
  8
0
 62
     0
 10
103.145
 20
71.8704
 30
0.0
 11
102.344
 21
71.8704
 31
0.0
  0
LINE
  8
0
 62
     0
 10
102.344
 20
71.8704
 30
0.0
 11
102.344
 21
77.669
 31
0.0
  0
LINE
  8
0
 62
     0
 10
102.344
 20
77.669
 30
0.0
 11
103.145
 21
77.669
 31
0.0
  0
LINE
  8
0
 62
     0
 10
103.145
 20
77.669
 30
0.0
 11
103.145
 21
80.7695
 31
0.0
  0
LINE
  8
0
 62
     0
 10
103.145
 20
80.7695
 30
0.0
 11
102.344
 21
80.7695
 31
0.0
  0
LINE
  8
0
 62
     0
 10
102.344
 20
80.7695
 30
0.0
 11
102.344
 21
81.77
 31
0.0
  0
LINE
  8
0
 62
     0
 10
102.344
 20
81.77
 30
0.0
 11
88.3447
 21
81.77
 31
0.0
  0
LINE
  8
0
 62
     0
 10
107.395
 20
81.77
 30
0.0
 11
107.395
 21
80.7695
 31
0.0
  0
LINE
  8
0
 62
     0
 10
107.395
 20
80.7695
 30
0.0
 11
106.595
 21
80.7695
 31
0.0
  0
LINE
  8
0
 62
     0
 10
106.595
 20
80.7695
 30
0.0
 11
106.595
 21
77.669
 31
0.0
  0
LINE
  8
0
 62
     0
 10
106.595
 20
77.669
 30
0.0
 11
107.395
 21
77.669
 31
0.0
  0
LINE
  8
0
 62
     0
 10
107.395
 20
77.669
 30
0.0
 11
107.395
 21
71.8704
 31
0.0
  0
LINE
  8
0
 62
     0
 10
107.395
 20
71.8704
 30
0.0
 11
106.595
 21
71.8704
 31
0.0
  0
LINE
  8
0
 62
     0
 10
106.595
 20
71.8704
 30
0.0
 11
106.595
 21
68.7698
 31
0.0
  0
LINE
  8
0
 62
     0
 10
106.595
 20
68.7698
 30
0.0
 11
107.395
 21
68.7698
 31
0.0
  0
LINE
  8
0
 62
     0
 10
107.395
 20
68.7698
 30
0.0
 11
107.395
 21
67.7693
 31
0.0
  0
LINE
  8
0
 62
     0
 10
107.395
 20
67.7693
 30
0.0
 11
121.394
 21
67.7693
 31
0.0
  0
LINE
  8
0
 62
     0
 10
121.394
 20
67.7693
 30
0.0
 11
121.394
 21
68.7698
 31
0.0
  0
LINE
  8
0
 62
     0
 10
121.394
 20
68.7698
 30
0.0
 11
122.195
 21
68.7698
 31
0.0
  0
LINE
  8
0
 62
     0
 10
122.195
 20
68.7698
 30
0.0
 11
122.195
 21
71.8704
 31
0.0
  0
LINE
  8
0
 62
     0
 10
122.195
 20
71.8704
 30
0.0
 11
121.394
 21
71.8704
 31
0.0
  0
LINE
  8
0
 62
     0
 10
121.394
 20
71.8704
 30
0.0
 11
121.394
 21
77.669
 31
0.0
  0
LINE
  8
0
 62
     0
 10
121.394
 20
77.669
 30
0.0
 11
122.195
 21
77.669
 31
0.0
  0
LINE
  8
0
 62
     0
 10
122.195
 20
77.669
 30
0.0
 11
122.195
 21
80.7695
 31
0.0
  0
LINE
  8
0
 62
     0
 10
122.195
 20
80.7695
 30
0.0
 11
121.394
 21
80.7695
 31
0.0
  0
LINE
  8
0
 62
     0
 10
121.394
 20
80.7695
 30
0.0
 11
121.394
 21
81.77
 31
0.0
  0
LINE
  8
0
 62
     0
 10
121.394
 20
81.77
 30
0.0
 11
107.395
 21
81.77
 31
0.0
  0
LINE
  8
0
 62
     0
 10
126.445
 20
81.77
 30
0.0
 11
126.445
 21
80.7695
 31
0.0
  0
LINE
  8
0
 62
     0
 10
126.445
 20
80.7695
 30
0.0
 11
125.644
 21
80.7695
 31
0.0
  0
LINE
  8
0
 62
     0
 10
125.644
 20
80.7695
 30
0.0
 11
125.644
 21
77.669
 31
0.0
  0
LINE
  8
0
 62
     0
 10
125.644
 20
77.669
 30
0.0
 11
126.445
 21
77.669
 31
0.0
  0
LINE
  8
0
 62
     0
 10
126.445
 20
77.669
 30
0.0
 11
126.445
 21
71.8704
 31
0.0
  0
LINE
  8
0
 62
     0
 10
126.445
 20
71.8704
 30
0.0
 11
125.644
 21
71.8704
 31
0.0
  0
LINE
  8
0
 62
     0
 10
125.644
 20
71.8704
 30
0.0
 11
125.644
 21
68.7698
 31
0.0
  0
LINE
  8
0
 62
     0
 10
125.644
 20
68.7698
 30
0.0
 11
126.445
 21
68.7698
 31
0.0
  0
LINE
  8
0
 62
     0
 10
126.445
 20
68.7698
 30
0.0
 11
126.445
 21
67.7693
 31
0.0
  0
LINE
  8
0
 62
     0
 10
126.445
 20
67.7693
 30
0.0
 11
140.444
 21
67.7693
 31
0.0
  0
LINE
  8
0
 62
     0
 10
140.444
 20
67.7693
 30
0.0
 11
140.444
 21
68.7698
 31
0.0
  0
LINE
  8
0
 62
     0
 10
140.444
 20
68.7698
 30
0.0
 11
141.245
 21
68.7698
 31
0.0
  0
LINE
  8
0
 62
     0
 10
141.245
 20
68.7698
 30
0.0
 11
141.245
 21
71.8704
 31
0.0
  0
LINE
  8
0
 62
     0
 10
141.245
 20
71.8704
 30
0.0
 11
140.444
 21
71.8704
 31
0.0
  0
LINE
  8
0
 62
     0
 10
140.444
 20
71.8704
 30
0.0
 11
140.444
 21
77.669
 31
0.0
  0
LINE
  8
0
 62
     0
 10
140.444
 20
77.669
 30
0.0
 11
141.245
 21
77.669
 31
0.0
  0
LINE
  8
0
 62
     0
 10
141.245
 20
77.669
 30
0.0
 11
141.245
 21
80.7695
 31
0.0
  0
LINE
  8
0
 62
     0
 10
141.245
 20
80.7695
 30
0.0
 11
140.444
 21
80.7695
 31
0.0
  0
LINE
  8
0
 62
     0
 10
140.444
 20
80.7695
 30
0.0
 11
140.444
 21
81.77
 31
0.0
  0
LINE
  8
0
 62
     0
 10
140.444
 20
81.77
 30
0.0
 11
126.445
 21
81.77
 31
0.0
  0
LINE
  8
0
 62
     0
 10
145.495
 20
81.77
 30
0.0
 11
145.495
 21
80.7695
 31
0.0
  0
LINE
  8
0
 62
     0
 10
145.495
 20
80.7695
 30
0.0
 11
144.695
 21
80.7695
 31
0.0
  0
LINE
  8
0
 62
     0
 10
144.695
 20
80.7695
 30
0.0
 11
144.695
 21
77.669
 31
0.0
  0
LINE
  8
0
 62
     0
 10
144.695
 20
77.669
 30
0.0
 11
145.495
 21
77.669
 31
0.0
  0
LINE
  8
0
 62
     0
 10
145.495
 20
77.669
 30
0.0
 11
145.495
 21
71.8704
 31
0.0
  0
LINE
  8
0
 62
     0
 10
145.495
 20
71.8704
 30
0.0
 11
144.695
 21
71.8704
 31
0.0
  0
LINE
  8
0
 62
     0
 10
144.695
 20
71.8704
 30
0.0
 11
144.695
 21
68.7698
 31
0.0
  0
LINE
  8
0
 62
     0
 10
144.695
 20
68.7698
 30
0.0
 11
145.495
 21
68.7698
 31
0.0
  0
LINE
  8
0
 62
     0
 10
145.495
 20
68.7698
 30
0.0
 11
145.495
 21
67.7693
 31
0.0
  0
LINE
  8
0
 62
     0
 10
145.495
 20
67.7693
 30
0.0
 11
159.494
 21
67.7693
 31
0.0
  0
LINE
  8
0
 62
     0
 10
159.494
 20
67.7693
 30
0.0
 11
159.494
 21
68.7698
 31
0.0
  0
LINE
  8
0
 62
     0
 10
159.494
 20
68.7698
 30
0.0
 11
160.295
 21
68.7698
 31
0.0
  0
LINE
  8
0
 62
     0
 10
160.295
 20
68.7698
 30
0.0
 11
160.295
 21
71.8704
 31
0.0
  0
LINE
  8
0
 62
     0
 10
160.295
 20
71.8704
 30
0.0
 11
159.494
 21
71.8704
 31
0.0
  0
LINE
  8
0
 62
     0
 10
159.494
 20
71.8704
 30
0.0
 11
159.494
 21
77.669
 31
0.0
  0
LINE
  8
0
 62
     0
 10
159.494
 20
77.669
 30
0.0
 11
160.295
 21
77.669
 31
0.0
  0
LINE
  8
0
 62
     0
 10
160.295
 20
77.669
 30
0.0
 11
160.295
 21
80.7695
 31
0.0
  0
LINE
  8
0
 62
     0
 10
160.295
 20
80.7695
 30
0.0
 11
159.494
 21
80.7695
 31
0.0
  0
LINE
  8
0
 62
     0
 10
159.494
 20
80.7695
 30
0.0
 11
159.494
 21
81.77
 31
0.0
  0
LINE
  8
0
 62
     0
 10
159.494
 20
81.77
 30
0.0
 11
145.495
 21
81.77
 31
0.0
  0
LINE
  8
0
 62
     0
 10
164.545
 20
81.77
 30
0.0
 11
164.545
 21
80.7695
 31
0.0
  0
LINE
  8
0
 62
     0
 10
164.545
 20
80.7695
 30
0.0
 11
163.745
 21
80.7695
 31
0.0
  0
LINE
  8
0
 62
     0
 10
163.745
 20
80.7695
 30
0.0
 11
163.745
 21
77.669
 31
0.0
  0
LINE
  8
0
 62
     0
 10
163.745
 20
77.669
 30
0.0
 11
164.545
 21
77.669
 31
0.0
  0
LINE
  8
0
 62
     0
 10
164.545
 20
77.669
 30
0.0
 11
164.545
 21
71.8704
 31
0.0
  0
LINE
  8
0
 62
     0
 10
164.545
 20
71.8704
 30
0.0
 11
163.745
 21
71.8704
 31
0.0
  0
LINE
  8
0
 62
     0
 10
163.745
 20
71.8704
 30
0.0
 11
163.745
 21
68.7698
 31
0.0
  0
LINE
  8
0
 62
     0
 10
163.745
 20
68.7698
 30
0.0
 11
164.545
 21
68.7698
 31
0.0
  0
LINE
  8
0
 62
     0
 10
164.545
 20
68.7698
 30
0.0
 11
164.545
 21
67.7693
 31
0.0
  0
LINE
  8
0
 62
     0
 10
164.545
 20
67.7693
 30
0.0
 11
178.544
 21
67.7693
 31
0.0
  0
LINE
  8
0
 62
     0
 10
178.544
 20
67.7693
 30
0.0
 11
178.544
 21
68.7698
 31
0.0
  0
LINE
  8
0
 62
     0
 10
178.544
 20
68.7698
 30
0.0
 11
179.345
 21
68.7698
 31
0.0
  0
LINE
  8
0
 62
     0
 10
179.345
 20
68.7698
 30
0.0
 11
179.345
 21
71.8704
 31
0.0
  0
LINE
  8
0
 62
     0
 10
179.345
 20
71.8704
 30
0.0
 11
178.544
 21
71.8704
 31
0.0
  0
LINE
  8
0
 62
     0
 10
178.544
 20
71.8704
 30
0.0
 11
178.544
 21
77.669
 31
0.0
  0
LINE
  8
0
 62
     0
 10
178.544
 20
77.669
 30
0.0
 11
179.345
 21
77.669
 31
0.0
  0
LINE
  8
0
 62
     0
 10
179.345
 20
77.669
 30
0.0
 11
179.345
 21
80.7695
 31
0.0
  0
LINE
  8
0
 62
     0
 10
179.345
 20
80.7695
 30
0.0
 11
178.544
 21
80.7695
 31
0.0
  0
LINE
  8
0
 62
     0
 10
178.544
 20
80.7695
 30
0.0
 11
178.544
 21
81.77
 31
0.0
  0
LINE
  8
0
 62
     0
 10
178.544
 20
81.77
 30
0.0
 11
164.545
 21
81.77
 31
0.0
  0
LINE
  8
0
 62
     0
 10
183.595
 20
81.77
 30
0.0
 11
183.595
 21
80.7695
 31
0.0
  0
LINE
  8
0
 62
     0
 10
183.595
 20
80.7695
 30
0.0
 11
182.795
 21
80.7695
 31
0.0
  0
LINE
  8
0
 62
     0
 10
182.795
 20
80.7695
 30
0.0
 11
182.795
 21
77.669
 31
0.0
  0
LINE
  8
0
 62
     0
 10
182.795
 20
77.669
 30
0.0
 11
183.595
 21
77.669
 31
0.0
  0
LINE
  8
0
 62
     0
 10
183.595
 20
77.669
 30
0.0
 11
183.595
 21
71.8704
 31
0.0
  0
LINE
  8
0
 62
     0
 10
183.595
 20
71.8704
 30
0.0
 11
182.795
 21
71.8704
 31
0.0
  0
LINE
  8
0
 62
     0
 10
182.795
 20
71.8704
 30
0.0
 11
182.795
 21
68.7698
 31
0.0
  0
LINE
  8
0
 62
     0
 10
182.795
 20
68.7698
 30
0.0
 11
183.595
 21
68.7698
 31
0.0
  0
LINE
  8
0
 62
     0
 10
183.595
 20
68.7698
 30
0.0
 11
183.595
 21
67.7693
 31
0.0
  0
LINE
  8
0
 62
     0
 10
183.595
 20
67.7693
 30
0.0
 11
197.594
 21
67.7693
 31
0.0
  0
LINE
  8
0
 62
     0
 10
197.594
 20
67.7693
 30
0.0
 11
197.594
 21
68.7698
 31
0.0
  0
LINE
  8
0
 62
     0
 10
197.594
 20
68.7698
 30
0.0
 11
198.395
 21
68.7698
 31
0.0
  0
LINE
  8
0
 62
     0
 10
198.395
 20
68.7698
 30
0.0
 11
198.395
 21
71.8704
 31
0.0
  0
LINE
  8
0
 62
     0
 10
198.395
 20
71.8704
 30
0.0
 11
197.594
 21
71.8704
 31
0.0
  0
LINE
  8
0
 62
     0
 10
197.594
 20
71.8704
 30
0.0
 11
197.594
 21
77.669
 31
0.0
  0
LINE
  8
0
 62
     0
 10
197.594
 20
77.669
 30
0.0
 11
198.395
 21
77.669
 31
0.0
  0
LINE
  8
0
 62
     0
 10
198.395
 20
77.669
 30
0.0
 11
198.395
 21
80.7695
 31
0.0
  0
LINE
  8
0
 62
     0
 10
198.395
 20
80.7695
 30
0.0
 11
197.594
 21
80.7695
 31
0.0
  0
LINE
  8
0
 62
     0
 10
197.594
 20
80.7695
 30
0.0
 11
197.594
 21
81.77
 31
0.0
  0
LINE
  8
0
 62
     0
 10
197.594
 20
81.77
 30
0.0
 11
183.595
 21
81.77
 31
0.0
  0
LINE
  8
0
 62
     0
 10
202.645
 20
81.77
 30
0.0
 11
202.645
 21
80.7695
 31
0.0
  0
LINE
  8
0
 62
     0
 10
202.645
 20
80.7695
 30
0.0
 11
201.845
 21
80.7695
 31
0.0
  0
LINE
  8
0
 62
     0
 10
201.845
 20
80.7695
 30
0.0
 11
201.845
 21
77.669
 31
0.0
  0
LINE
  8
0
 62
     0
 10
201.845
 20
77.669
 30
0.0
 11
202.645
 21
77.669
 31
0.0
  0
LINE
  8
0
 62
     0
 10
202.645
 20
77.669
 30
0.0
 11
202.645
 21
71.8704
 31
0.0
  0
LINE
  8
0
 62
     0
 10
202.645
 20
71.8704
 30
0.0
 11
201.845
 21
71.8704
 31
0.0
  0
LINE
  8
0
 62
     0
 10
201.845
 20
71.8704
 30
0.0
 11
201.845
 21
68.7698
 31
0.0
  0
LINE
  8
0
 62
     0
 10
201.845
 20
68.7698
 30
0.0
 11
202.645
 21
68.7698
 31
0.0
  0
LINE
  8
0
 62
     0
 10
202.645
 20
68.7698
 30
0.0
 11
202.645
 21
67.7693
 31
0.0
  0
LINE
  8
0
 62
     0
 10
202.645
 20
67.7693
 30
0.0
 11
216.644
 21
67.7693
 31
0.0
  0
LINE
  8
0
 62
     0
 10
216.644
 20
67.7693
 30
0.0
 11
216.644
 21
68.7698
 31
0.0
  0
LINE
  8
0
 62
     0
 10
216.644
 20
68.7698
 30
0.0
 11
217.445
 21
68.7698
 31
0.0
  0
LINE
  8
0
 62
     0
 10
217.445
 20
68.7698
 30
0.0
 11
217.445
 21
71.8704
 31
0.0
  0
LINE
  8
0
 62
     0
 10
217.445
 20
71.8704
 30
0.0
 11
216.644
 21
71.8704
 31
0.0
  0
LINE
  8
0
 62
     0
 10
216.644
 20
71.8704
 30
0.0
 11
216.644
 21
77.669
 31
0.0
  0
LINE
  8
0
 62
     0
 10
216.644
 20
77.669
 30
0.0
 11
217.445
 21
77.669
 31
0.0
  0
LINE
  8
0
 62
     0
 10
217.445
 20
77.669
 30
0.0
 11
217.445
 21
80.7695
 31
0.0
  0
LINE
  8
0
 62
     0
 10
217.445
 20
80.7695
 30
0.0
 11
216.644
 21
80.7695
 31
0.0
  0
LINE
  8
0
 62
     0
 10
216.644
 20
80.7695
 30
0.0
 11
216.644
 21
81.77
 31
0.0
  0
LINE
  8
0
 62
     0
 10
216.644
 20
81.77
 30
0.0
 11
202.645
 21
81.77
 31
0.0
  0
LINE
  8
0
 62
     0
 10
221.695
 20
81.77
 30
0.0
 11
221.695
 21
80.7695
 31
0.0
  0
LINE
  8
0
 62
     0
 10
221.695
 20
80.7695
 30
0.0
 11
220.895
 21
80.7695
 31
0.0
  0
LINE
  8
0
 62
     0
 10
220.895
 20
80.7695
 30
0.0
 11
220.895
 21
77.669
 31
0.0
  0
LINE
  8
0
 62
     0
 10
220.895
 20
77.669
 30
0.0
 11
221.695
 21
77.669
 31
0.0
  0
LINE
  8
0
 62
     0
 10
221.695
 20
77.669
 30
0.0
 11
221.695
 21
71.8704
 31
0.0
  0
LINE
  8
0
 62
     0
 10
221.695
 20
71.8704
 30
0.0
 11
220.895
 21
71.8704
 31
0.0
  0
LINE
  8
0
 62
     0
 10
220.895
 20
71.8704
 30
0.0
 11
220.895
 21
68.7698
 31
0.0
  0
LINE
  8
0
 62
     0
 10
220.895
 20
68.7698
 30
0.0
 11
221.695
 21
68.7698
 31
0.0
  0
LINE
  8
0
 62
     0
 10
221.695
 20
68.7698
 30
0.0
 11
221.695
 21
67.7693
 31
0.0
  0
LINE
  8
0
 62
     0
 10
221.695
 20
67.7693
 30
0.0
 11
235.694
 21
67.7693
 31
0.0
  0
LINE
  8
0
 62
     0
 10
235.694
 20
67.7693
 30
0.0
 11
235.694
 21
68.7698
 31
0.0
  0
LINE
  8
0
 62
     0
 10
235.694
 20
68.7698
 30
0.0
 11
236.495
 21
68.7698
 31
0.0
  0
LINE
  8
0
 62
     0
 10
236.495
 20
68.7698
 30
0.0
 11
236.495
 21
71.8704
 31
0.0
  0
LINE
  8
0
 62
     0
 10
236.495
 20
71.8704
 30
0.0
 11
235.694
 21
71.8704
 31
0.0
  0
LINE
  8
0
 62
     0
 10
235.694
 20
71.8704
 30
0.0
 11
235.694
 21
77.669
 31
0.0
  0
LINE
  8
0
 62
     0
 10
235.694
 20
77.669
 30
0.0
 11
236.495
 21
77.669
 31
0.0
  0
LINE
  8
0
 62
     0
 10
236.495
 20
77.669
 30
0.0
 11
236.495
 21
80.7695
 31
0.0
  0
LINE
  8
0
 62
     0
 10
236.495
 20
80.7695
 30
0.0
 11
235.694
 21
80.7695
 31
0.0
  0
LINE
  8
0
 62
     0
 10
235.694
 20
80.7695
 30
0.0
 11
235.694
 21
81.77
 31
0.0
  0
LINE
  8
0
 62
     0
 10
235.694
 20
81.77
 30
0.0
 11
221.695
 21
81.77
 31
0.0
  0
LINE
  8
0
 62
     0
 10
240.745
 20
81.77
 30
0.0
 11
240.745
 21
80.7695
 31
0.0
  0
LINE
  8
0
 62
     0
 10
240.745
 20
80.7695
 30
0.0
 11
239.945
 21
80.7695
 31
0.0
  0
LINE
  8
0
 62
     0
 10
239.945
 20
80.7695
 30
0.0
 11
239.945
 21
77.669
 31
0.0
  0
LINE
  8
0
 62
     0
 10
239.945
 20
77.669
 30
0.0
 11
240.745
 21
77.669
 31
0.0
  0
LINE
  8
0
 62
     0
 10
240.745
 20
77.669
 30
0.0
 11
240.745
 21
71.8704
 31
0.0
  0
LINE
  8
0
 62
     0
 10
240.745
 20
71.8704
 30
0.0
 11
239.945
 21
71.8704
 31
0.0
  0
LINE
  8
0
 62
     0
 10
239.945
 20
71.8704
 30
0.0
 11
239.945
 21
68.7698
 31
0.0
  0
LINE
  8
0
 62
     0
 10
239.945
 20
68.7698
 30
0.0
 11
240.745
 21
68.7698
 31
0.0
  0
LINE
  8
0
 62
     0
 10
240.745
 20
68.7698
 30
0.0
 11
240.745
 21
67.7693
 31
0.0
  0
LINE
  8
0
 62
     0
 10
240.745
 20
67.7693
 30
0.0
 11
254.744
 21
67.7693
 31
0.0
  0
LINE
  8
0
 62
     0
 10
254.744
 20
67.7693
 30
0.0
 11
254.744
 21
68.7698
 31
0.0
  0
LINE
  8
0
 62
     0
 10
254.744
 20
68.7698
 30
0.0
 11
255.545
 21
68.7698
 31
0.0
  0
LINE
  8
0
 62
     0
 10
255.545
 20
68.7698
 30
0.0
 11
255.545
 21
71.8704
 31
0.0
  0
LINE
  8
0
 62
     0
 10
255.545
 20
71.8704
 30
0.0
 11
254.744
 21
71.8704
 31
0.0
  0
LINE
  8
0
 62
     0
 10
254.744
 20
71.8704
 30
0.0
 11
254.744
 21
77.669
 31
0.0
  0
LINE
  8
0
 62
     0
 10
254.744
 20
77.669
 30
0.0
 11
255.545
 21
77.669
 31
0.0
  0
LINE
  8
0
 62
     0
 10
255.545
 20
77.669
 30
0.0
 11
255.545
 21
80.7695
 31
0.0
  0
LINE
  8
0
 62
     0
 10
255.545
 20
80.7695
 30
0.0
 11
254.744
 21
80.7695
 31
0.0
  0
LINE
  8
0
 62
     0
 10
254.744
 20
80.7695
 30
0.0
 11
254.744
 21
81.77
 31
0.0
  0
LINE
  8
0
 62
     0
 10
254.744
 20
81.77
 30
0.0
 11
240.745
 21
81.77
 31
0.0
  0
LINE
  8
0
 62
     0
 10
264.557
 20
81.77
 30
0.0
 11
264.557
 21
80.7695
 31
0.0
  0
LINE
  8
0
 62
     0
 10
264.557
 20
80.7695
 30
0.0
 11
263.756
 21
80.7695
 31
0.0
  0
LINE
  8
0
 62
     0
 10
263.756
 20
80.7695
 30
0.0
 11
263.756
 21
77.669
 31
0.0
  0
LINE
  8
0
 62
     0
 10
263.756
 20
77.669
 30
0.0
 11
264.557
 21
77.669
 31
0.0
  0
LINE
  8
0
 62
     0
 10
264.557
 20
77.669
 30
0.0
 11
264.557
 21
71.8704
 31
0.0
  0
LINE
  8
0
 62
     0
 10
264.557
 20
71.8704
 30
0.0
 11
263.756
 21
71.8704
 31
0.0
  0
LINE
  8
0
 62
     0
 10
263.756
 20
71.8704
 30
0.0
 11
263.756
 21
68.7698
 31
0.0
  0
LINE
  8
0
 62
     0
 10
263.756
 20
68.7698
 30
0.0
 11
264.557
 21
68.7698
 31
0.0
  0
LINE
  8
0
 62
     0
 10
264.557
 20
68.7698
 30
0.0
 11
264.557
 21
67.7693
 31
0.0
  0
LINE
  8
0
 62
     0
 10
264.557
 20
67.7693
 30
0.0
 11
278.557
 21
67.7693
 31
0.0
  0
LINE
  8
0
 62
     0
 10
278.557
 20
67.7693
 30
0.0
 11
278.557
 21
68.7698
 31
0.0
  0
LINE
  8
0
 62
     0
 10
278.557
 20
68.7698
 30
0.0
 11
279.357
 21
68.7698
 31
0.0
  0
LINE
  8
0
 62
     0
 10
279.357
 20
68.7698
 30
0.0
 11
279.357
 21
71.8704
 31
0.0
  0
LINE
  8
0
 62
     0
 10
279.357
 20
71.8704
 30
0.0
 11
278.557
 21
71.8704
 31
0.0
  0
LINE
  8
0
 62
     0
 10
278.557
 20
71.8704
 30
0.0
 11
278.557
 21
77.669
 31
0.0
  0
LINE
  8
0
 62
     0
 10
278.557
 20
77.669
 30
0.0
 11
279.357
 21
77.669
 31
0.0
  0
LINE
  8
0
 62
     0
 10
279.357
 20
77.669
 30
0.0
 11
279.357
 21
80.7695
 31
0.0
  0
LINE
  8
0
 62
     0
 10
279.357
 20
80.7695
 30
0.0
 11
278.557
 21
80.7695
 31
0.0
  0
LINE
  8
0
 62
     0
 10
278.557
 20
80.7695
 30
0.0
 11
278.557
 21
81.77
 31
0.0
  0
LINE
  8
0
 62
     0
 10
278.557
 20
81.77
 30
0.0
 11
264.557
 21
81.77
 31
0.0
  0
LINE
  8
0
 62
     0
 10
293.132
 20
81.77
 30
0.0
 11
293.132
 21
80.7695
 31
0.0
  0
LINE
  8
0
 62
     0
 10
293.132
 20
80.7695
 30
0.0
 11
292.331
 21
80.7695
 31
0.0
  0
LINE
  8
0
 62
     0
 10
292.331
 20
80.7695
 30
0.0
 11
292.331
 21
77.669
 31
0.0
  0
LINE
  8
0
 62
     0
 10
292.331
 20
77.669
 30
0.0
 11
293.132
 21
77.669
 31
0.0
  0
LINE
  8
0
 62
     0
 10
293.132
 20
77.669
 30
0.0
 11
293.132
 21
71.8704
 31
0.0
  0
LINE
  8
0
 62
     0
 10
293.132
 20
71.8704
 30
0.0
 11
292.331
 21
71.8704
 31
0.0
  0
LINE
  8
0
 62
     0
 10
292.331
 20
71.8704
 30
0.0
 11
292.331
 21
68.7698
 31
0.0
  0
LINE
  8
0
 62
     0
 10
292.331
 20
68.7698
 30
0.0
 11
293.132
 21
68.7698
 31
0.0
  0
LINE
  8
0
 62
     0
 10
293.132
 20
68.7698
 30
0.0
 11
293.132
 21
67.7693
 31
0.0
  0
LINE
  8
0
 62
     0
 10
293.132
 20
67.7693
 30
0.0
 11
307.132
 21
67.7693
 31
0.0
  0
LINE
  8
0
 62
     0
 10
307.132
 20
67.7693
 30
0.0
 11
307.132
 21
68.7698
 31
0.0
  0
LINE
  8
0
 62
     0
 10
307.132
 20
68.7698
 30
0.0
 11
307.932
 21
68.7698
 31
0.0
  0
LINE
  8
0
 62
     0
 10
307.932
 20
68.7698
 30
0.0
 11
307.932
 21
71.8704
 31
0.0
  0
LINE
  8
0
 62
     0
 10
307.932
 20
71.8704
 30
0.0
 11
307.132
 21
71.8704
 31
0.0
  0
LINE
  8
0
 62
     0
 10
307.132
 20
71.8704
 30
0.0
 11
307.132
 21
77.669
 31
0.0
  0
LINE
  8
0
 62
     0
 10
307.132
 20
77.669
 30
0.0
 11
307.932
 21
77.669
 31
0.0
  0
LINE
  8
0
 62
     0
 10
307.932
 20
77.669
 30
0.0
 11
307.932
 21
80.7695
 31
0.0
  0
LINE
  8
0
 62
     0
 10
307.932
 20
80.7695
 30
0.0
 11
307.132
 21
80.7695
 31
0.0
  0
LINE
  8
0
 62
     0
 10
307.132
 20
80.7695
 30
0.0
 11
307.132
 21
81.77
 31
0.0
  0
LINE
  8
0
 62
     0
 10
307.132
 20
81.77
 30
0.0
 11
293.132
 21
81.77
 31
0.0
  0
LINE
  8
0
 62
     0
 10
312.182
 20
81.77
 30
0.0
 11
312.182
 21
80.7695
 31
0.0
  0
LINE
  8
0
 62
     0
 10
312.182
 20
80.7695
 30
0.0
 11
311.381
 21
80.7695
 31
0.0
  0
LINE
  8
0
 62
     0
 10
311.381
 20
80.7695
 30
0.0
 11
311.381
 21
77.669
 31
0.0
  0
LINE
  8
0
 62
     0
 10
311.381
 20
77.669
 30
0.0
 11
312.182
 21
77.669
 31
0.0
  0
LINE
  8
0
 62
     0
 10
312.182
 20
77.669
 30
0.0
 11
312.182
 21
71.8704
 31
0.0
  0
LINE
  8
0
 62
     0
 10
312.182
 20
71.8704
 30
0.0
 11
311.381
 21
71.8704
 31
0.0
  0
LINE
  8
0
 62
     0
 10
311.381
 20
71.8704
 30
0.0
 11
311.381
 21
68.7698
 31
0.0
  0
LINE
  8
0
 62
     0
 10
311.381
 20
68.7698
 30
0.0
 11
312.182
 21
68.7698
 31
0.0
  0
LINE
  8
0
 62
     0
 10
312.182
 20
68.7698
 30
0.0
 11
312.182
 21
67.7693
 31
0.0
  0
LINE
  8
0
 62
     0
 10
312.182
 20
67.7693
 30
0.0
 11
326.182
 21
67.7693
 31
0.0
  0
LINE
  8
0
 62
     0
 10
326.182
 20
67.7693
 30
0.0
 11
326.182
 21
68.7698
 31
0.0
  0
LINE
  8
0
 62
     0
 10
326.182
 20
68.7698
 30
0.0
 11
326.982
 21
68.7698
 31
0.0
  0
LINE
  8
0
 62
     0
 10
326.982
 20
68.7698
 30
0.0
 11
326.982
 21
71.8704
 31
0.0
  0
LINE
  8
0
 62
     0
 10
326.982
 20
71.8704
 30
0.0
 11
326.182
 21
71.8704
 31
0.0
  0
LINE
  8
0
 62
     0
 10
326.182
 20
71.8704
 30
0.0
 11
326.182
 21
77.669
 31
0.0
  0
LINE
  8
0
 62
     0
 10
326.182
 20
77.669
 30
0.0
 11
326.982
 21
77.669
 31
0.0
  0
LINE
  8
0
 62
     0
 10
326.982
 20
77.669
 30
0.0
 11
326.982
 21
80.7695
 31
0.0
  0
LINE
  8
0
 62
     0
 10
326.982
 20
80.7695
 30
0.0
 11
326.182
 21
80.7695
 31
0.0
  0
LINE
  8
0
 62
     0
 10
326.182
 20
80.7695
 30
0.0
 11
326.182
 21
81.77
 31
0.0
  0
LINE
  8
0
 62
     0
 10
326.182
 20
81.77
 30
0.0
 11
312.182
 21
81.77
 31
0.0
  0
LINE
  8
0
 62
     0
 10
331.232
 20
81.77
 30
0.0
 11
331.232
 21
80.7695
 31
0.0
  0
LINE
  8
0
 62
     0
 10
331.232
 20
80.7695
 30
0.0
 11
330.431
 21
80.7695
 31
0.0
  0
LINE
  8
0
 62
     0
 10
330.431
 20
80.7695
 30
0.0
 11
330.431
 21
77.669
 31
0.0
  0
LINE
  8
0
 62
     0
 10
330.431
 20
77.669
 30
0.0
 11
331.232
 21
77.669
 31
0.0
  0
LINE
  8
0
 62
     0
 10
331.232
 20
77.669
 30
0.0
 11
331.232
 21
71.8704
 31
0.0
  0
LINE
  8
0
 62
     0
 10
331.232
 20
71.8704
 30
0.0
 11
330.431
 21
71.8704
 31
0.0
  0
LINE
  8
0
 62
     0
 10
330.431
 20
71.8704
 30
0.0
 11
330.431
 21
68.7698
 31
0.0
  0
LINE
  8
0
 62
     0
 10
330.431
 20
68.7698
 30
0.0
 11
331.232
 21
68.7698
 31
0.0
  0
LINE
  8
0
 62
     0
 10
331.232
 20
68.7698
 30
0.0
 11
331.232
 21
67.7693
 31
0.0
  0
LINE
  8
0
 62
     0
 10
331.232
 20
67.7693
 30
0.0
 11
345.232
 21
67.7693
 31
0.0
  0
LINE
  8
0
 62
     0
 10
345.232
 20
67.7693
 30
0.0
 11
345.232
 21
68.7698
 31
0.0
  0
LINE
  8
0
 62
     0
 10
345.232
 20
68.7698
 30
0.0
 11
346.032
 21
68.7698
 31
0.0
  0
LINE
  8
0
 62
     0
 10
346.032
 20
68.7698
 30
0.0
 11
346.032
 21
71.8704
 31
0.0
  0
LINE
  8
0
 62
     0
 10
346.032
 20
71.8704
 30
0.0
 11
345.232
 21
71.8704
 31
0.0
  0
LINE
  8
0
 62
     0
 10
345.232
 20
71.8704
 30
0.0
 11
345.232
 21
77.669
 31
0.0
  0
LINE
  8
0
 62
     0
 10
345.232
 20
77.669
 30
0.0
 11
346.032
 21
77.669
 31
0.0
  0
LINE
  8
0
 62
     0
 10
346.032
 20
77.669
 30
0.0
 11
346.032
 21
80.7695
 31
0.0
  0
LINE
  8
0
 62
     0
 10
346.032
 20
80.7695
 30
0.0
 11
345.232
 21
80.7695
 31
0.0
  0
LINE
  8
0
 62
     0
 10
345.232
 20
80.7695
 30
0.0
 11
345.232
 21
81.77
 31
0.0
  0
LINE
  8
0
 62
     0
 10
345.232
 20
81.77
 30
0.0
 11
331.232
 21
81.77
 31
0.0
  0
LINE
  8
0
 62
     0
 10
259.795
 20
100.82
 30
0.0
 11
259.795
 21
99.8195
 31
0.0
  0
LINE
  8
0
 62
     0
 10
259.795
 20
99.8195
 30
0.0
 11
258.995
 21
99.8195
 31
0.0
  0
LINE
  8
0
 62
     0
 10
258.995
 20
99.8195
 30
0.0
 11
258.995
 21
96.719
 31
0.0
  0
LINE
  8
0
 62
     0
 10
258.995
 20
96.719
 30
0.0
 11
259.795
 21
96.719
 31
0.0
  0
LINE
  8
0
 62
     0
 10
259.795
 20
96.719
 30
0.0
 11
259.795
 21
96.1196
 31
0.0
  0
LINE
  8
0
 62
     0
 10
259.795
 20
96.1196
 30
0.0
 11
258.269
 21
96.1196
 31
0.0
  0
LINE
  8
0
 62
     0
 10
258.269
 20
96.1196
 30
0.0
 11
258.269
 21
99.3496
 31
0.0
  0
LINE
  8
0
 62
     0
 10
258.269
 20
99.3496
 30
0.0
 11
256.545
 21
99.3496
 31
0.0
  0
LINE
  8
0
 62
     0
 10
256.545
 20
99.3496
 30
0.0
 11
256.545
 21
100.27
 31
0.0
  0
LINE
  8
0
 62
     0
 10
256.545
 20
100.27
 30
0.0
 11
253.243
 21
100.27
 31
0.0
  0
LINE
  8
0
 62
     0
 10
253.243
 20
100.27
 30
0.0
 11
253.243
 21
99.3496
 31
0.0
  0
LINE
  8
0
 62
     0
 10
253.243
 20
99.3496
 30
0.0
 11
251.52
 21
99.3496
 31
0.0
  0
LINE
  8
0
 62
     0
 10
251.52
 20
99.3496
 30
0.0
 11
251.52
 21
96.1196
 31
0.0
  0
LINE
  8
0
 62
     0
 10
251.52
 20
96.1196
 30
0.0
 11
250.694
 21
96.1196
 31
0.0
  0
LINE
  8
0
 62
     0
 10
250.694
 20
96.1196
 30
0.0
 11
250.694
 21
93.3193
 31
0.0
  0
LINE
  8
0
 62
     0
 10
250.694
 20
93.3193
 30
0.0
 11
251.52
 21
93.3193
 31
0.0
  0
LINE
  8
0
 62
     0
 10
251.52
 20
93.3193
 30
0.0
 11
251.52
 21
87.0493
 31
0.0
  0
LINE
  8
0
 62
     0
 10
251.52
 20
87.0493
 30
0.0
 11
253.243
 21
87.0493
 31
0.0
  0
LINE
  8
0
 62
     0
 10
253.243
 20
87.0493
 30
0.0
 11
253.243
 21
86.0697
 31
0.0
  0
LINE
  8
0
 62
     0
 10
253.243
 20
86.0697
 30
0.0
 11
256.545
 21
86.0697
 31
0.0
  0
LINE
  8
0
 62
     0
 10
256.545
 20
86.0697
 30
0.0
 11
256.545
 21
87.0493
 31
0.0
  0
LINE
  8
0
 62
     0
 10
256.545
 20
87.0493
 30
0.0
 11
258.269
 21
87.0493
 31
0.0
  0
LINE
  8
0
 62
     0
 10
258.269
 20
87.0493
 30
0.0
 11
258.269
 21
91.5197
 31
0.0
  0
LINE
  8
0
 62
     0
 10
258.269
 20
91.5197
 30
0.0
 11
259.795
 21
91.5197
 31
0.0
  0
LINE
  8
0
 62
     0
 10
259.795
 20
91.5197
 30
0.0
 11
259.795
 21
90.9204
 31
0.0
  0
LINE
  8
0
 62
     0
 10
259.795
 20
90.9204
 30
0.0
 11
258.995
 21
90.9204
 31
0.0
  0
LINE
  8
0
 62
     0
 10
258.995
 20
90.9204
 30
0.0
 11
258.995
 21
87.8198
 31
0.0
  0
LINE
  8
0
 62
     0
 10
258.995
 20
87.8198
 30
0.0
 11
259.795
 21
87.8198
 31
0.0
  0
LINE
  8
0
 62
     0
 10
259.795
 20
87.8198
 30
0.0
 11
259.795
 21
86.8193
 31
0.0
  0
LINE
  8
0
 62
     0
 10
259.795
 20
86.8193
 30
0.0
 11
273.794
 21
86.8193
 31
0.0
  0
LINE
  8
0
 62
     0
 10
273.794
 20
86.8193
 30
0.0
 11
273.794
 21
87.8198
 31
0.0
  0
LINE
  8
0
 62
     0
 10
273.794
 20
87.8198
 30
0.0
 11
274.595
 21
87.8198
 31
0.0
  0
LINE
  8
0
 62
     0
 10
274.595
 20
87.8198
 30
0.0
 11
274.595
 21
90.9204
 31
0.0
  0
LINE
  8
0
 62
     0
 10
274.595
 20
90.9204
 30
0.0
 11
273.794
 21
90.9204
 31
0.0
  0
LINE
  8
0
 62
     0
 10
273.794
 20
90.9204
 30
0.0
 11
273.794
 21
91.5197
 31
0.0
  0
LINE
  8
0
 62
     0
 10
273.794
 20
91.5197
 30
0.0
 11
275.32
 21
91.5197
 31
0.0
  0
LINE
  8
0
 62
     0
 10
275.32
 20
91.5197
 30
0.0
 11
275.32
 21
87.0493
 31
0.0
  0
LINE
  8
0
 62
     0
 10
275.32
 20
87.0493
 30
0.0
 11
277.045
 21
87.0493
 31
0.0
  0
LINE
  8
0
 62
     0
 10
277.045
 20
87.0493
 30
0.0
 11
277.045
 21
86.0697
 31
0.0
  0
LINE
  8
0
 62
     0
 10
277.045
 20
86.0697
 30
0.0
 11
280.345
 21
86.0697
 31
0.0
  0
LINE
  8
0
 62
     0
 10
280.345
 20
86.0697
 30
0.0
 11
280.345
 21
87.0493
 31
0.0
  0
LINE
  8
0
 62
     0
 10
280.345
 20
87.0493
 30
0.0
 11
282.069
 21
87.0493
 31
0.0
  0
LINE
  8
0
 62
     0
 10
282.069
 20
87.0493
 30
0.0
 11
282.069
 21
93.3193
 31
0.0
  0
LINE
  8
0
 62
     0
 10
282.069
 20
93.3193
 30
0.0
 11
282.895
 21
93.3193
 31
0.0
  0
LINE
  8
0
 62
     0
 10
282.895
 20
93.3193
 30
0.0
 11
282.895
 21
96.1196
 31
0.0
  0
LINE
  8
0
 62
     0
 10
282.895
 20
96.1196
 30
0.0
 11
282.069
 21
96.1196
 31
0.0
  0
LINE
  8
0
 62
     0
 10
282.069
 20
96.1196
 30
0.0
 11
282.069
 21
99.3496
 31
0.0
  0
LINE
  8
0
 62
     0
 10
282.069
 20
99.3496
 30
0.0
 11
280.345
 21
99.3496
 31
0.0
  0
LINE
  8
0
 62
     0
 10
280.345
 20
99.3496
 30
0.0
 11
280.345
 21
100.27
 31
0.0
  0
LINE
  8
0
 62
     0
 10
280.345
 20
100.27
 30
0.0
 11
277.045
 21
100.27
 31
0.0
  0
LINE
  8
0
 62
     0
 10
277.045
 20
100.27
 30
0.0
 11
277.045
 21
99.3496
 31
0.0
  0
LINE
  8
0
 62
     0
 10
277.045
 20
99.3496
 30
0.0
 11
275.32
 21
99.3496
 31
0.0
  0
LINE
  8
0
 62
     0
 10
275.32
 20
99.3496
 30
0.0
 11
275.32
 21
96.1196
 31
0.0
  0
LINE
  8
0
 62
     0
 10
275.32
 20
96.1196
 30
0.0
 11
273.794
 21
96.1196
 31
0.0
  0
LINE
  8
0
 62
     0
 10
273.794
 20
96.1196
 30
0.0
 11
273.794
 21
96.719
 31
0.0
  0
LINE
  8
0
 62
     0
 10
273.794
 20
96.719
 30
0.0
 11
274.595
 21
96.719
 31
0.0
  0
LINE
  8
0
 62
     0
 10
274.595
 20
96.719
 30
0.0
 11
274.595
 21
99.8195
 31
0.0
  0
LINE
  8
0
 62
     0
 10
274.595
 20
99.8195
 30
0.0
 11
273.794
 21
99.8195
 31
0.0
  0
LINE
  8
0
 62
     0
 10
273.794
 20
99.8195
 30
0.0
 11
273.794
 21
100.82
 31
0.0
  0
LINE
  8
0
 62
     0
 10
273.794
 20
100.82
 30
0.0
 11
259.795
 21
100.82
 31
0.0
  0
LINE
  8
0
 62
     0
 10
2.61965
 20
100.82
 30
0.0
 11
2.61965
 21
99.8195
 31
0.0
  0
LINE
  8
0
 62
     0
 10
2.61965
 20
99.8195
 30
0.0
 11
1.82039
 21
99.8195
 31
0.0
  0
LINE
  8
0
 62
     0
 10
1.82039
 20
99.8195
 30
0.0
 11
1.82039
 21
96.719
 31
0.0
  0
LINE
  8
0
 62
     0
 10
1.82039
 20
96.719
 30
0.0
 11
2.61965
 21
96.719
 31
0.0
  0
LINE
  8
0
 62
     0
 10
2.61965
 20
96.719
 30
0.0
 11
2.61965
 21
90.9204
 31
0.0
  0
LINE
  8
0
 62
     0
 10
2.61965
 20
90.9204
 30
0.0
 11
1.82039
 21
90.9204
 31
0.0
  0
LINE
  8
0
 62
     0
 10
1.82039
 20
90.9204
 30
0.0
 11
1.82039
 21
87.8198
 31
0.0
  0
LINE
  8
0
 62
     0
 10
1.82039
 20
87.8198
 30
0.0
 11
2.61965
 21
87.8198
 31
0.0
  0
LINE
  8
0
 62
     0
 10
2.61965
 20
87.8198
 30
0.0
 11
2.61965
 21
86.8193
 31
0.0
  0
LINE
  8
0
 62
     0
 10
2.61965
 20
86.8193
 30
0.0
 11
16.6192
 21
86.8193
 31
0.0
  0
LINE
  8
0
 62
     0
 10
16.6192
 20
86.8193
 30
0.0
 11
16.6192
 21
87.8198
 31
0.0
  0
LINE
  8
0
 62
     0
 10
16.6192
 20
87.8198
 30
0.0
 11
17.4198
 21
87.8198
 31
0.0
  0
LINE
  8
0
 62
     0
 10
17.4198
 20
87.8198
 30
0.0
 11
17.4198
 21
90.9204
 31
0.0
  0
LINE
  8
0
 62
     0
 10
17.4198
 20
90.9204
 30
0.0
 11
16.6192
 21
90.9204
 31
0.0
  0
LINE
  8
0
 62
     0
 10
16.6192
 20
90.9204
 30
0.0
 11
16.6192
 21
96.719
 31
0.0
  0
LINE
  8
0
 62
     0
 10
16.6192
 20
96.719
 30
0.0
 11
17.4198
 21
96.719
 31
0.0
  0
LINE
  8
0
 62
     0
 10
17.4198
 20
96.719
 30
0.0
 11
17.4198
 21
99.8195
 31
0.0
  0
LINE
  8
0
 62
     0
 10
17.4198
 20
99.8195
 30
0.0
 11
16.6192
 21
99.8195
 31
0.0
  0
LINE
  8
0
 62
     0
 10
16.6192
 20
99.8195
 30
0.0
 11
16.6192
 21
100.82
 31
0.0
  0
LINE
  8
0
 62
     0
 10
16.6192
 20
100.82
 30
0.0
 11
2.61965
 21
100.82
 31
0.0
  0
LINE
  8
0
 62
     0
 10
21.6697
 20
100.82
 30
0.0
 11
21.6697
 21
99.8195
 31
0.0
  0
LINE
  8
0
 62
     0
 10
21.6697
 20
99.8195
 30
0.0
 11
20.8704
 21
99.8195
 31
0.0
  0
LINE
  8
0
 62
     0
 10
20.8704
 20
99.8195
 30
0.0
 11
20.8704
 21
96.719
 31
0.0
  0
LINE
  8
0
 62
     0
 10
20.8704
 20
96.719
 30
0.0
 11
21.6697
 21
96.719
 31
0.0
  0
LINE
  8
0
 62
     0
 10
21.6697
 20
96.719
 30
0.0
 11
21.6697
 21
90.9204
 31
0.0
  0
LINE
  8
0
 62
     0
 10
21.6697
 20
90.9204
 30
0.0
 11
20.8704
 21
90.9204
 31
0.0
  0
LINE
  8
0
 62
     0
 10
20.8704
 20
90.9204
 30
0.0
 11
20.8704
 21
87.8198
 31
0.0
  0
LINE
  8
0
 62
     0
 10
20.8704
 20
87.8198
 30
0.0
 11
21.6697
 21
87.8198
 31
0.0
  0
LINE
  8
0
 62
     0
 10
21.6697
 20
87.8198
 30
0.0
 11
21.6697
 21
86.8193
 31
0.0
  0
LINE
  8
0
 62
     0
 10
21.6697
 20
86.8193
 30
0.0
 11
35.669
 21
86.8193
 31
0.0
  0
LINE
  8
0
 62
     0
 10
35.669
 20
86.8193
 30
0.0
 11
35.669
 21
87.8198
 31
0.0
  0
LINE
  8
0
 62
     0
 10
35.669
 20
87.8198
 30
0.0
 11
36.4698
 21
87.8198
 31
0.0
  0
LINE
  8
0
 62
     0
 10
36.4698
 20
87.8198
 30
0.0
 11
36.4698
 21
90.9204
 31
0.0
  0
LINE
  8
0
 62
     0
 10
36.4698
 20
90.9204
 30
0.0
 11
35.669
 21
90.9204
 31
0.0
  0
LINE
  8
0
 62
     0
 10
35.669
 20
90.9204
 30
0.0
 11
35.669
 21
96.719
 31
0.0
  0
LINE
  8
0
 62
     0
 10
35.669
 20
96.719
 30
0.0
 11
36.4698
 21
96.719
 31
0.0
  0
LINE
  8
0
 62
     0
 10
36.4698
 20
96.719
 30
0.0
 11
36.4698
 21
99.8195
 31
0.0
  0
LINE
  8
0
 62
     0
 10
36.4698
 20
99.8195
 30
0.0
 11
35.669
 21
99.8195
 31
0.0
  0
LINE
  8
0
 62
     0
 10
35.669
 20
99.8195
 30
0.0
 11
35.669
 21
100.82
 31
0.0
  0
LINE
  8
0
 62
     0
 10
35.669
 20
100.82
 30
0.0
 11
21.6697
 21
100.82
 31
0.0
  0
LINE
  8
0
 62
     0
 10
40.7197
 20
100.82
 30
0.0
 11
40.7197
 21
99.8195
 31
0.0
  0
LINE
  8
0
 62
     0
 10
40.7197
 20
99.8195
 30
0.0
 11
39.9203
 21
99.8195
 31
0.0
  0
LINE
  8
0
 62
     0
 10
39.9203
 20
99.8195
 30
0.0
 11
39.9203
 21
96.719
 31
0.0
  0
LINE
  8
0
 62
     0
 10
39.9203
 20
96.719
 30
0.0
 11
40.7197
 21
96.719
 31
0.0
  0
LINE
  8
0
 62
     0
 10
40.7197
 20
96.719
 30
0.0
 11
40.7197
 21
90.9204
 31
0.0
  0
LINE
  8
0
 62
     0
 10
40.7197
 20
90.9204
 30
0.0
 11
39.9203
 21
90.9204
 31
0.0
  0
LINE
  8
0
 62
     0
 10
39.9203
 20
90.9204
 30
0.0
 11
39.9203
 21
87.8198
 31
0.0
  0
LINE
  8
0
 62
     0
 10
39.9203
 20
87.8198
 30
0.0
 11
40.7197
 21
87.8198
 31
0.0
  0
LINE
  8
0
 62
     0
 10
40.7197
 20
87.8198
 30
0.0
 11
40.7197
 21
86.8193
 31
0.0
  0
LINE
  8
0
 62
     0
 10
40.7197
 20
86.8193
 30
0.0
 11
54.719
 21
86.8193
 31
0.0
  0
LINE
  8
0
 62
     0
 10
54.719
 20
86.8193
 30
0.0
 11
54.719
 21
87.8198
 31
0.0
  0
LINE
  8
0
 62
     0
 10
54.719
 20
87.8198
 30
0.0
 11
55.5198
 21
87.8198
 31
0.0
  0
LINE
  8
0
 62
     0
 10
55.5198
 20
87.8198
 30
0.0
 11
55.5198
 21
90.9204
 31
0.0
  0
LINE
  8
0
 62
     0
 10
55.5198
 20
90.9204
 30
0.0
 11
54.719
 21
90.9204
 31
0.0
  0
LINE
  8
0
 62
     0
 10
54.719
 20
90.9204
 30
0.0
 11
54.719
 21
96.719
 31
0.0
  0
LINE
  8
0
 62
     0
 10
54.719
 20
96.719
 30
0.0
 11
55.5198
 21
96.719
 31
0.0
  0
LINE
  8
0
 62
     0
 10
55.5198
 20
96.719
 30
0.0
 11
55.5198
 21
99.8195
 31
0.0
  0
LINE
  8
0
 62
     0
 10
55.5198
 20
99.8195
 30
0.0
 11
54.719
 21
99.8195
 31
0.0
  0
LINE
  8
0
 62
     0
 10
54.719
 20
99.8195
 30
0.0
 11
54.719
 21
100.82
 31
0.0
  0
LINE
  8
0
 62
     0
 10
54.719
 20
100.82
 30
0.0
 11
40.7197
 21
100.82
 31
0.0
  0
LINE
  8
0
 62
     0
 10
59.7697
 20
100.82
 30
0.0
 11
59.7697
 21
99.8195
 31
0.0
  0
LINE
  8
0
 62
     0
 10
59.7697
 20
99.8195
 30
0.0
 11
58.9703
 21
99.8195
 31
0.0
  0
LINE
  8
0
 62
     0
 10
58.9703
 20
99.8195
 30
0.0
 11
58.9703
 21
96.719
 31
0.0
  0
LINE
  8
0
 62
     0
 10
58.9703
 20
96.719
 30
0.0
 11
59.7697
 21
96.719
 31
0.0
  0
LINE
  8
0
 62
     0
 10
59.7697
 20
96.719
 30
0.0
 11
59.7697
 21
90.9204
 31
0.0
  0
LINE
  8
0
 62
     0
 10
59.7697
 20
90.9204
 30
0.0
 11
58.9703
 21
90.9204
 31
0.0
  0
LINE
  8
0
 62
     0
 10
58.9703
 20
90.9204
 30
0.0
 11
58.9703
 21
87.8198
 31
0.0
  0
LINE
  8
0
 62
     0
 10
58.9703
 20
87.8198
 30
0.0
 11
59.7697
 21
87.8198
 31
0.0
  0
LINE
  8
0
 62
     0
 10
59.7697
 20
87.8198
 30
0.0
 11
59.7697
 21
86.8193
 31
0.0
  0
LINE
  8
0
 62
     0
 10
59.7697
 20
86.8193
 30
0.0
 11
73.769
 21
86.8193
 31
0.0
  0
LINE
  8
0
 62
     0
 10
73.769
 20
86.8193
 30
0.0
 11
73.769
 21
87.8198
 31
0.0
  0
LINE
  8
0
 62
     0
 10
73.769
 20
87.8198
 30
0.0
 11
74.5698
 21
87.8198
 31
0.0
  0
LINE
  8
0
 62
     0
 10
74.5698
 20
87.8198
 30
0.0
 11
74.5698
 21
90.9204
 31
0.0
  0
LINE
  8
0
 62
     0
 10
74.5698
 20
90.9204
 30
0.0
 11
73.769
 21
90.9204
 31
0.0
  0
LINE
  8
0
 62
     0
 10
73.769
 20
90.9204
 30
0.0
 11
73.769
 21
96.719
 31
0.0
  0
LINE
  8
0
 62
     0
 10
73.769
 20
96.719
 30
0.0
 11
74.5698
 21
96.719
 31
0.0
  0
LINE
  8
0
 62
     0
 10
74.5698
 20
96.719
 30
0.0
 11
74.5698
 21
99.8195
 31
0.0
  0
LINE
  8
0
 62
     0
 10
74.5698
 20
99.8195
 30
0.0
 11
73.769
 21
99.8195
 31
0.0
  0
LINE
  8
0
 62
     0
 10
73.769
 20
99.8195
 30
0.0
 11
73.769
 21
100.82
 31
0.0
  0
LINE
  8
0
 62
     0
 10
73.769
 20
100.82
 30
0.0
 11
59.7697
 21
100.82
 31
0.0
  0
LINE
  8
0
 62
     0
 10
78.8197
 20
100.82
 30
0.0
 11
78.8197
 21
99.8195
 31
0.0
  0
LINE
  8
0
 62
     0
 10
78.8197
 20
99.8195
 30
0.0
 11
78.0203
 21
99.8195
 31
0.0
  0
LINE
  8
0
 62
     0
 10
78.0203
 20
99.8195
 30
0.0
 11
78.0203
 21
96.719
 31
0.0
  0
LINE
  8
0
 62
     0
 10
78.0203
 20
96.719
 30
0.0
 11
78.8197
 21
96.719
 31
0.0
  0
LINE
  8
0
 62
     0
 10
78.8197
 20
96.719
 30
0.0
 11
78.8197
 21
90.9204
 31
0.0
  0
LINE
  8
0
 62
     0
 10
78.8197
 20
90.9204
 30
0.0
 11
78.0203
 21
90.9204
 31
0.0
  0
LINE
  8
0
 62
     0
 10
78.0203
 20
90.9204
 30
0.0
 11
78.0203
 21
87.8198
 31
0.0
  0
LINE
  8
0
 62
     0
 10
78.0203
 20
87.8198
 30
0.0
 11
78.8197
 21
87.8198
 31
0.0
  0
LINE
  8
0
 62
     0
 10
78.8197
 20
87.8198
 30
0.0
 11
78.8197
 21
86.8193
 31
0.0
  0
LINE
  8
0
 62
     0
 10
78.8197
 20
86.8193
 30
0.0
 11
92.819
 21
86.8193
 31
0.0
  0
LINE
  8
0
 62
     0
 10
92.819
 20
86.8193
 30
0.0
 11
92.819
 21
87.8198
 31
0.0
  0
LINE
  8
0
 62
     0
 10
92.819
 20
87.8198
 30
0.0
 11
93.6184
 21
87.8198
 31
0.0
  0
LINE
  8
0
 62
     0
 10
93.6184
 20
87.8198
 30
0.0
 11
93.6184
 21
90.9204
 31
0.0
  0
LINE
  8
0
 62
     0
 10
93.6184
 20
90.9204
 30
0.0
 11
92.819
 21
90.9204
 31
0.0
  0
LINE
  8
0
 62
     0
 10
92.819
 20
90.9204
 30
0.0
 11
92.819
 21
96.719
 31
0.0
  0
LINE
  8
0
 62
     0
 10
92.819
 20
96.719
 30
0.0
 11
93.6184
 21
96.719
 31
0.0
  0
LINE
  8
0
 62
     0
 10
93.6184
 20
96.719
 30
0.0
 11
93.6184
 21
99.8195
 31
0.0
  0
LINE
  8
0
 62
     0
 10
93.6184
 20
99.8195
 30
0.0
 11
92.819
 21
99.8195
 31
0.0
  0
LINE
  8
0
 62
     0
 10
92.819
 20
99.8195
 30
0.0
 11
92.819
 21
100.82
 31
0.0
  0
LINE
  8
0
 62
     0
 10
92.819
 20
100.82
 30
0.0
 11
78.8197
 21
100.82
 31
0.0
  0
LINE
  8
0
 62
     0
 10
97.8683
 20
100.82
 30
0.0
 11
97.8683
 21
99.8195
 31
0.0
  0
LINE
  8
0
 62
     0
 10
97.8683
 20
99.8195
 30
0.0
 11
97.0703
 21
99.8195
 31
0.0
  0
LINE
  8
0
 62
     0
 10
97.0703
 20
99.8195
 30
0.0
 11
97.0703
 21
96.719
 31
0.0
  0
LINE
  8
0
 62
     0
 10
97.0703
 20
96.719
 30
0.0
 11
97.8683
 21
96.719
 31
0.0
  0
LINE
  8
0
 62
     0
 10
97.8683
 20
96.719
 30
0.0
 11
97.8683
 21
90.9204
 31
0.0
  0
LINE
  8
0
 62
     0
 10
97.8683
 20
90.9204
 30
0.0
 11
97.0703
 21
90.9204
 31
0.0
  0
LINE
  8
0
 62
     0
 10
97.0703
 20
90.9204
 30
0.0
 11
97.0703
 21
87.8198
 31
0.0
  0
LINE
  8
0
 62
     0
 10
97.0703
 20
87.8198
 30
0.0
 11
97.8683
 21
87.8198
 31
0.0
  0
LINE
  8
0
 62
     0
 10
97.8683
 20
87.8198
 30
0.0
 11
97.8683
 21
86.8193
 31
0.0
  0
LINE
  8
0
 62
     0
 10
97.8683
 20
86.8193
 30
0.0
 11
111.869
 21
86.8193
 31
0.0
  0
LINE
  8
0
 62
     0
 10
111.869
 20
86.8193
 30
0.0
 11
111.869
 21
87.8198
 31
0.0
  0
LINE
  8
0
 62
     0
 10
111.869
 20
87.8198
 30
0.0
 11
112.668
 21
87.8198
 31
0.0
  0
LINE
  8
0
 62
     0
 10
112.668
 20
87.8198
 30
0.0
 11
112.668
 21
90.9204
 31
0.0
  0
LINE
  8
0
 62
     0
 10
112.668
 20
90.9204
 30
0.0
 11
111.869
 21
90.9204
 31
0.0
  0
LINE
  8
0
 62
     0
 10
111.869
 20
90.9204
 30
0.0
 11
111.869
 21
96.719
 31
0.0
  0
LINE
  8
0
 62
     0
 10
111.869
 20
96.719
 30
0.0
 11
112.668
 21
96.719
 31
0.0
  0
LINE
  8
0
 62
     0
 10
112.668
 20
96.719
 30
0.0
 11
112.668
 21
99.8195
 31
0.0
  0
LINE
  8
0
 62
     0
 10
112.668
 20
99.8195
 30
0.0
 11
111.869
 21
99.8195
 31
0.0
  0
LINE
  8
0
 62
     0
 10
111.869
 20
99.8195
 30
0.0
 11
111.869
 21
100.82
 31
0.0
  0
LINE
  8
0
 62
     0
 10
111.869
 20
100.82
 30
0.0
 11
97.8683
 21
100.82
 31
0.0
  0
LINE
  8
0
 62
     0
 10
116.918
 20
100.82
 30
0.0
 11
116.918
 21
99.8195
 31
0.0
  0
LINE
  8
0
 62
     0
 10
116.918
 20
99.8195
 30
0.0
 11
116.119
 21
99.8195
 31
0.0
  0
LINE
  8
0
 62
     0
 10
116.119
 20
99.8195
 30
0.0
 11
116.119
 21
96.719
 31
0.0
  0
LINE
  8
0
 62
     0
 10
116.119
 20
96.719
 30
0.0
 11
116.918
 21
96.719
 31
0.0
  0
LINE
  8
0
 62
     0
 10
116.918
 20
96.719
 30
0.0
 11
116.918
 21
90.9204
 31
0.0
  0
LINE
  8
0
 62
     0
 10
116.918
 20
90.9204
 30
0.0
 11
116.119
 21
90.9204
 31
0.0
  0
LINE
  8
0
 62
     0
 10
116.119
 20
90.9204
 30
0.0
 11
116.119
 21
87.8198
 31
0.0
  0
LINE
  8
0
 62
     0
 10
116.119
 20
87.8198
 30
0.0
 11
116.918
 21
87.8198
 31
0.0
  0
LINE
  8
0
 62
     0
 10
116.918
 20
87.8198
 30
0.0
 11
116.918
 21
86.8193
 31
0.0
  0
LINE
  8
0
 62
     0
 10
116.918
 20
86.8193
 30
0.0
 11
130.919
 21
86.8193
 31
0.0
  0
LINE
  8
0
 62
     0
 10
130.919
 20
86.8193
 30
0.0
 11
130.919
 21
87.8198
 31
0.0
  0
LINE
  8
0
 62
     0
 10
130.919
 20
87.8198
 30
0.0
 11
131.72
 21
87.8198
 31
0.0
  0
LINE
  8
0
 62
     0
 10
131.72
 20
87.8198
 30
0.0
 11
131.72
 21
90.9204
 31
0.0
  0
LINE
  8
0
 62
     0
 10
131.72
 20
90.9204
 30
0.0
 11
130.919
 21
90.9204
 31
0.0
  0
LINE
  8
0
 62
     0
 10
130.919
 20
90.9204
 30
0.0
 11
130.919
 21
96.719
 31
0.0
  0
LINE
  8
0
 62
     0
 10
130.919
 20
96.719
 30
0.0
 11
131.72
 21
96.719
 31
0.0
  0
LINE
  8
0
 62
     0
 10
131.72
 20
96.719
 30
0.0
 11
131.72
 21
99.8195
 31
0.0
  0
LINE
  8
0
 62
     0
 10
131.72
 20
99.8195
 30
0.0
 11
130.919
 21
99.8195
 31
0.0
  0
LINE
  8
0
 62
     0
 10
130.919
 20
99.8195
 30
0.0
 11
130.919
 21
100.82
 31
0.0
  0
LINE
  8
0
 62
     0
 10
130.919
 20
100.82
 30
0.0
 11
116.918
 21
100.82
 31
0.0
  0
LINE
  8
0
 62
     0
 10
135.97
 20
100.82
 30
0.0
 11
135.97
 21
99.8195
 31
0.0
  0
LINE
  8
0
 62
     0
 10
135.97
 20
99.8195
 30
0.0
 11
135.17
 21
99.8195
 31
0.0
  0
LINE
  8
0
 62
     0
 10
135.17
 20
99.8195
 30
0.0
 11
135.17
 21
96.719
 31
0.0
  0
LINE
  8
0
 62
     0
 10
135.17
 20
96.719
 30
0.0
 11
135.97
 21
96.719
 31
0.0
  0
LINE
  8
0
 62
     0
 10
135.97
 20
96.719
 30
0.0
 11
135.97
 21
90.9204
 31
0.0
  0
LINE
  8
0
 62
     0
 10
135.97
 20
90.9204
 30
0.0
 11
135.17
 21
90.9204
 31
0.0
  0
LINE
  8
0
 62
     0
 10
135.17
 20
90.9204
 30
0.0
 11
135.17
 21
87.8198
 31
0.0
  0
LINE
  8
0
 62
     0
 10
135.17
 20
87.8198
 30
0.0
 11
135.97
 21
87.8198
 31
0.0
  0
LINE
  8
0
 62
     0
 10
135.97
 20
87.8198
 30
0.0
 11
135.97
 21
86.8193
 31
0.0
  0
LINE
  8
0
 62
     0
 10
135.97
 20
86.8193
 30
0.0
 11
149.969
 21
86.8193
 31
0.0
  0
LINE
  8
0
 62
     0
 10
149.969
 20
86.8193
 30
0.0
 11
149.969
 21
87.8198
 31
0.0
  0
LINE
  8
0
 62
     0
 10
149.969
 20
87.8198
 30
0.0
 11
150.77
 21
87.8198
 31
0.0
  0
LINE
  8
0
 62
     0
 10
150.77
 20
87.8198
 30
0.0
 11
150.77
 21
90.9204
 31
0.0
  0
LINE
  8
0
 62
     0
 10
150.77
 20
90.9204
 30
0.0
 11
149.969
 21
90.9204
 31
0.0
  0
LINE
  8
0
 62
     0
 10
149.969
 20
90.9204
 30
0.0
 11
149.969
 21
96.719
 31
0.0
  0
LINE
  8
0
 62
     0
 10
149.969
 20
96.719
 30
0.0
 11
150.77
 21
96.719
 31
0.0
  0
LINE
  8
0
 62
     0
 10
150.77
 20
96.719
 30
0.0
 11
150.77
 21
99.8195
 31
0.0
  0
LINE
  8
0
 62
     0
 10
150.77
 20
99.8195
 30
0.0
 11
149.969
 21
99.8195
 31
0.0
  0
LINE
  8
0
 62
     0
 10
149.969
 20
99.8195
 30
0.0
 11
149.969
 21
100.82
 31
0.0
  0
LINE
  8
0
 62
     0
 10
149.969
 20
100.82
 30
0.0
 11
135.97
 21
100.82
 31
0.0
  0
LINE
  8
0
 62
     0
 10
155.02
 20
100.82
 30
0.0
 11
155.02
 21
99.8195
 31
0.0
  0
LINE
  8
0
 62
     0
 10
155.02
 20
99.8195
 30
0.0
 11
154.22
 21
99.8195
 31
0.0
  0
LINE
  8
0
 62
     0
 10
154.22
 20
99.8195
 30
0.0
 11
154.22
 21
96.719
 31
0.0
  0
LINE
  8
0
 62
     0
 10
154.22
 20
96.719
 30
0.0
 11
155.02
 21
96.719
 31
0.0
  0
LINE
  8
0
 62
     0
 10
155.02
 20
96.719
 30
0.0
 11
155.02
 21
90.9204
 31
0.0
  0
LINE
  8
0
 62
     0
 10
155.02
 20
90.9204
 30
0.0
 11
154.22
 21
90.9204
 31
0.0
  0
LINE
  8
0
 62
     0
 10
154.22
 20
90.9204
 30
0.0
 11
154.22
 21
87.8198
 31
0.0
  0
LINE
  8
0
 62
     0
 10
154.22
 20
87.8198
 30
0.0
 11
155.02
 21
87.8198
 31
0.0
  0
LINE
  8
0
 62
     0
 10
155.02
 20
87.8198
 30
0.0
 11
155.02
 21
86.8193
 31
0.0
  0
LINE
  8
0
 62
     0
 10
155.02
 20
86.8193
 30
0.0
 11
169.019
 21
86.8193
 31
0.0
  0
LINE
  8
0
 62
     0
 10
169.019
 20
86.8193
 30
0.0
 11
169.019
 21
87.8198
 31
0.0
  0
LINE
  8
0
 62
     0
 10
169.019
 20
87.8198
 30
0.0
 11
169.82
 21
87.8198
 31
0.0
  0
LINE
  8
0
 62
     0
 10
169.82
 20
87.8198
 30
0.0
 11
169.82
 21
90.9204
 31
0.0
  0
LINE
  8
0
 62
     0
 10
169.82
 20
90.9204
 30
0.0
 11
169.019
 21
90.9204
 31
0.0
  0
LINE
  8
0
 62
     0
 10
169.019
 20
90.9204
 30
0.0
 11
169.019
 21
96.719
 31
0.0
  0
LINE
  8
0
 62
     0
 10
169.019
 20
96.719
 30
0.0
 11
169.82
 21
96.719
 31
0.0
  0
LINE
  8
0
 62
     0
 10
169.82
 20
96.719
 30
0.0
 11
169.82
 21
99.8195
 31
0.0
  0
LINE
  8
0
 62
     0
 10
169.82
 20
99.8195
 30
0.0
 11
169.019
 21
99.8195
 31
0.0
  0
LINE
  8
0
 62
     0
 10
169.019
 20
99.8195
 30
0.0
 11
169.019
 21
100.82
 31
0.0
  0
LINE
  8
0
 62
     0
 10
169.019
 20
100.82
 30
0.0
 11
155.02
 21
100.82
 31
0.0
  0
LINE
  8
0
 62
     0
 10
174.07
 20
100.82
 30
0.0
 11
174.07
 21
99.8195
 31
0.0
  0
LINE
  8
0
 62
     0
 10
174.07
 20
99.8195
 30
0.0
 11
173.27
 21
99.8195
 31
0.0
  0
LINE
  8
0
 62
     0
 10
173.27
 20
99.8195
 30
0.0
 11
173.27
 21
96.719
 31
0.0
  0
LINE
  8
0
 62
     0
 10
173.27
 20
96.719
 30
0.0
 11
174.07
 21
96.719
 31
0.0
  0
LINE
  8
0
 62
     0
 10
174.07
 20
96.719
 30
0.0
 11
174.07
 21
90.9204
 31
0.0
  0
LINE
  8
0
 62
     0
 10
174.07
 20
90.9204
 30
0.0
 11
173.27
 21
90.9204
 31
0.0
  0
LINE
  8
0
 62
     0
 10
173.27
 20
90.9204
 30
0.0
 11
173.27
 21
87.8198
 31
0.0
  0
LINE
  8
0
 62
     0
 10
173.27
 20
87.8198
 30
0.0
 11
174.07
 21
87.8198
 31
0.0
  0
LINE
  8
0
 62
     0
 10
174.07
 20
87.8198
 30
0.0
 11
174.07
 21
86.8193
 31
0.0
  0
LINE
  8
0
 62
     0
 10
174.07
 20
86.8193
 30
0.0
 11
188.069
 21
86.8193
 31
0.0
  0
LINE
  8
0
 62
     0
 10
188.069
 20
86.8193
 30
0.0
 11
188.069
 21
87.8198
 31
0.0
  0
LINE
  8
0
 62
     0
 10
188.069
 20
87.8198
 30
0.0
 11
188.87
 21
87.8198
 31
0.0
  0
LINE
  8
0
 62
     0
 10
188.87
 20
87.8198
 30
0.0
 11
188.87
 21
90.9204
 31
0.0
  0
LINE
  8
0
 62
     0
 10
188.87
 20
90.9204
 30
0.0
 11
188.069
 21
90.9204
 31
0.0
  0
LINE
  8
0
 62
     0
 10
188.069
 20
90.9204
 30
0.0
 11
188.069
 21
96.719
 31
0.0
  0
LINE
  8
0
 62
     0
 10
188.069
 20
96.719
 30
0.0
 11
188.87
 21
96.719
 31
0.0
  0
LINE
  8
0
 62
     0
 10
188.87
 20
96.719
 30
0.0
 11
188.87
 21
99.8195
 31
0.0
  0
LINE
  8
0
 62
     0
 10
188.87
 20
99.8195
 30
0.0
 11
188.069
 21
99.8195
 31
0.0
  0
LINE
  8
0
 62
     0
 10
188.069
 20
99.8195
 30
0.0
 11
188.069
 21
100.82
 31
0.0
  0
LINE
  8
0
 62
     0
 10
188.069
 20
100.82
 30
0.0
 11
174.07
 21
100.82
 31
0.0
  0
LINE
  8
0
 62
     0
 10
193.12
 20
100.82
 30
0.0
 11
193.12
 21
99.8195
 31
0.0
  0
LINE
  8
0
 62
     0
 10
193.12
 20
99.8195
 30
0.0
 11
192.32
 21
99.8195
 31
0.0
  0
LINE
  8
0
 62
     0
 10
192.32
 20
99.8195
 30
0.0
 11
192.32
 21
96.719
 31
0.0
  0
LINE
  8
0
 62
     0
 10
192.32
 20
96.719
 30
0.0
 11
193.12
 21
96.719
 31
0.0
  0
LINE
  8
0
 62
     0
 10
193.12
 20
96.719
 30
0.0
 11
193.12
 21
90.9204
 31
0.0
  0
LINE
  8
0
 62
     0
 10
193.12
 20
90.9204
 30
0.0
 11
192.32
 21
90.9204
 31
0.0
  0
LINE
  8
0
 62
     0
 10
192.32
 20
90.9204
 30
0.0
 11
192.32
 21
87.8198
 31
0.0
  0
LINE
  8
0
 62
     0
 10
192.32
 20
87.8198
 30
0.0
 11
193.12
 21
87.8198
 31
0.0
  0
LINE
  8
0
 62
     0
 10
193.12
 20
87.8198
 30
0.0
 11
193.12
 21
86.8193
 31
0.0
  0
LINE
  8
0
 62
     0
 10
193.12
 20
86.8193
 30
0.0
 11
207.119
 21
86.8193
 31
0.0
  0
LINE
  8
0
 62
     0
 10
207.119
 20
86.8193
 30
0.0
 11
207.119
 21
87.8198
 31
0.0
  0
LINE
  8
0
 62
     0
 10
207.119
 20
87.8198
 30
0.0
 11
207.92
 21
87.8198
 31
0.0
  0
LINE
  8
0
 62
     0
 10
207.92
 20
87.8198
 30
0.0
 11
207.92
 21
90.9204
 31
0.0
  0
LINE
  8
0
 62
     0
 10
207.92
 20
90.9204
 30
0.0
 11
207.119
 21
90.9204
 31
0.0
  0
LINE
  8
0
 62
     0
 10
207.119
 20
90.9204
 30
0.0
 11
207.119
 21
96.719
 31
0.0
  0
LINE
  8
0
 62
     0
 10
207.119
 20
96.719
 30
0.0
 11
207.92
 21
96.719
 31
0.0
  0
LINE
  8
0
 62
     0
 10
207.92
 20
96.719
 30
0.0
 11
207.92
 21
99.8195
 31
0.0
  0
LINE
  8
0
 62
     0
 10
207.92
 20
99.8195
 30
0.0
 11
207.119
 21
99.8195
 31
0.0
  0
LINE
  8
0
 62
     0
 10
207.119
 20
99.8195
 30
0.0
 11
207.119
 21
100.82
 31
0.0
  0
LINE
  8
0
 62
     0
 10
207.119
 20
100.82
 30
0.0
 11
193.12
 21
100.82
 31
0.0
  0
LINE
  8
0
 62
     0
 10
212.17
 20
100.82
 30
0.0
 11
212.17
 21
99.8195
 31
0.0
  0
LINE
  8
0
 62
     0
 10
212.17
 20
99.8195
 30
0.0
 11
211.37
 21
99.8195
 31
0.0
  0
LINE
  8
0
 62
     0
 10
211.37
 20
99.8195
 30
0.0
 11
211.37
 21
96.719
 31
0.0
  0
LINE
  8
0
 62
     0
 10
211.37
 20
96.719
 30
0.0
 11
212.17
 21
96.719
 31
0.0
  0
LINE
  8
0
 62
     0
 10
212.17
 20
96.719
 30
0.0
 11
212.17
 21
90.9204
 31
0.0
  0
LINE
  8
0
 62
     0
 10
212.17
 20
90.9204
 30
0.0
 11
211.37
 21
90.9204
 31
0.0
  0
LINE
  8
0
 62
     0
 10
211.37
 20
90.9204
 30
0.0
 11
211.37
 21
87.8198
 31
0.0
  0
LINE
  8
0
 62
     0
 10
211.37
 20
87.8198
 30
0.0
 11
212.17
 21
87.8198
 31
0.0
  0
LINE
  8
0
 62
     0
 10
212.17
 20
87.8198
 30
0.0
 11
212.17
 21
86.8193
 31
0.0
  0
LINE
  8
0
 62
     0
 10
212.17
 20
86.8193
 30
0.0
 11
226.169
 21
86.8193
 31
0.0
  0
LINE
  8
0
 62
     0
 10
226.169
 20
86.8193
 30
0.0
 11
226.169
 21
87.8198
 31
0.0
  0
LINE
  8
0
 62
     0
 10
226.169
 20
87.8198
 30
0.0
 11
226.97
 21
87.8198
 31
0.0
  0
LINE
  8
0
 62
     0
 10
226.97
 20
87.8198
 30
0.0
 11
226.97
 21
90.9204
 31
0.0
  0
LINE
  8
0
 62
     0
 10
226.97
 20
90.9204
 30
0.0
 11
226.169
 21
90.9204
 31
0.0
  0
LINE
  8
0
 62
     0
 10
226.169
 20
90.9204
 30
0.0
 11
226.169
 21
96.719
 31
0.0
  0
LINE
  8
0
 62
     0
 10
226.169
 20
96.719
 30
0.0
 11
226.97
 21
96.719
 31
0.0
  0
LINE
  8
0
 62
     0
 10
226.97
 20
96.719
 30
0.0
 11
226.97
 21
99.8195
 31
0.0
  0
LINE
  8
0
 62
     0
 10
226.97
 20
99.8195
 30
0.0
 11
226.169
 21
99.8195
 31
0.0
  0
LINE
  8
0
 62
     0
 10
226.169
 20
99.8195
 30
0.0
 11
226.169
 21
100.82
 31
0.0
  0
LINE
  8
0
 62
     0
 10
226.169
 20
100.82
 30
0.0
 11
212.17
 21
100.82
 31
0.0
  0
LINE
  8
0
 62
     0
 10
231.22
 20
100.82
 30
0.0
 11
231.22
 21
99.8195
 31
0.0
  0
LINE
  8
0
 62
     0
 10
231.22
 20
99.8195
 30
0.0
 11
230.42
 21
99.8195
 31
0.0
  0
LINE
  8
0
 62
     0
 10
230.42
 20
99.8195
 30
0.0
 11
230.42
 21
96.719
 31
0.0
  0
LINE
  8
0
 62
     0
 10
230.42
 20
96.719
 30
0.0
 11
231.22
 21
96.719
 31
0.0
  0
LINE
  8
0
 62
     0
 10
231.22
 20
96.719
 30
0.0
 11
231.22
 21
90.9204
 31
0.0
  0
LINE
  8
0
 62
     0
 10
231.22
 20
90.9204
 30
0.0
 11
230.42
 21
90.9204
 31
0.0
  0
LINE
  8
0
 62
     0
 10
230.42
 20
90.9204
 30
0.0
 11
230.42
 21
87.8198
 31
0.0
  0
LINE
  8
0
 62
     0
 10
230.42
 20
87.8198
 30
0.0
 11
231.22
 21
87.8198
 31
0.0
  0
LINE
  8
0
 62
     0
 10
231.22
 20
87.8198
 30
0.0
 11
231.22
 21
86.8193
 31
0.0
  0
LINE
  8
0
 62
     0
 10
231.22
 20
86.8193
 30
0.0
 11
245.219
 21
86.8193
 31
0.0
  0
LINE
  8
0
 62
     0
 10
245.219
 20
86.8193
 30
0.0
 11
245.219
 21
87.8198
 31
0.0
  0
LINE
  8
0
 62
     0
 10
245.219
 20
87.8198
 30
0.0
 11
246.02
 21
87.8198
 31
0.0
  0
LINE
  8
0
 62
     0
 10
246.02
 20
87.8198
 30
0.0
 11
246.02
 21
90.9204
 31
0.0
  0
LINE
  8
0
 62
     0
 10
246.02
 20
90.9204
 30
0.0
 11
245.219
 21
90.9204
 31
0.0
  0
LINE
  8
0
 62
     0
 10
245.219
 20
90.9204
 30
0.0
 11
245.219
 21
96.719
 31
0.0
  0
LINE
  8
0
 62
     0
 10
245.219
 20
96.719
 30
0.0
 11
246.02
 21
96.719
 31
0.0
  0
LINE
  8
0
 62
     0
 10
246.02
 20
96.719
 30
0.0
 11
246.02
 21
99.8195
 31
0.0
  0
LINE
  8
0
 62
     0
 10
246.02
 20
99.8195
 30
0.0
 11
245.219
 21
99.8195
 31
0.0
  0
LINE
  8
0
 62
     0
 10
245.219
 20
99.8195
 30
0.0
 11
245.219
 21
100.82
 31
0.0
  0
LINE
  8
0
 62
     0
 10
245.219
 20
100.82
 30
0.0
 11
231.22
 21
100.82
 31
0.0
  0
LINE
  8
0
 62
     0
 10
293.132
 20
100.82
 30
0.0
 11
293.132
 21
99.8195
 31
0.0
  0
LINE
  8
0
 62
     0
 10
293.132
 20
99.8195
 30
0.0
 11
292.331
 21
99.8195
 31
0.0
  0
LINE
  8
0
 62
     0
 10
292.331
 20
99.8195
 30
0.0
 11
292.331
 21
96.719
 31
0.0
  0
LINE
  8
0
 62
     0
 10
292.331
 20
96.719
 30
0.0
 11
293.132
 21
96.719
 31
0.0
  0
LINE
  8
0
 62
     0
 10
293.132
 20
96.719
 30
0.0
 11
293.132
 21
90.9204
 31
0.0
  0
LINE
  8
0
 62
     0
 10
293.132
 20
90.9204
 30
0.0
 11
292.331
 21
90.9204
 31
0.0
  0
LINE
  8
0
 62
     0
 10
292.331
 20
90.9204
 30
0.0
 11
292.331
 21
87.8198
 31
0.0
  0
LINE
  8
0
 62
     0
 10
292.331
 20
87.8198
 30
0.0
 11
293.132
 21
87.8198
 31
0.0
  0
LINE
  8
0
 62
     0
 10
293.132
 20
87.8198
 30
0.0
 11
293.132
 21
86.8193
 31
0.0
  0
LINE
  8
0
 62
     0
 10
293.132
 20
86.8193
 30
0.0
 11
307.132
 21
86.8193
 31
0.0
  0
LINE
  8
0
 62
     0
 10
307.132
 20
86.8193
 30
0.0
 11
307.132
 21
87.8198
 31
0.0
  0
LINE
  8
0
 62
     0
 10
307.132
 20
87.8198
 30
0.0
 11
307.932
 21
87.8198
 31
0.0
  0
LINE
  8
0
 62
     0
 10
307.932
 20
87.8198
 30
0.0
 11
307.932
 21
90.9204
 31
0.0
  0
LINE
  8
0
 62
     0
 10
307.932
 20
90.9204
 30
0.0
 11
307.132
 21
90.9204
 31
0.0
  0
LINE
  8
0
 62
     0
 10
307.132
 20
90.9204
 30
0.0
 11
307.132
 21
96.719
 31
0.0
  0
LINE
  8
0
 62
     0
 10
307.132
 20
96.719
 30
0.0
 11
307.932
 21
96.719
 31
0.0
  0
LINE
  8
0
 62
     0
 10
307.932
 20
96.719
 30
0.0
 11
307.932
 21
99.8195
 31
0.0
  0
LINE
  8
0
 62
     0
 10
307.932
 20
99.8195
 30
0.0
 11
307.132
 21
99.8195
 31
0.0
  0
LINE
  8
0
 62
     0
 10
307.132
 20
99.8195
 30
0.0
 11
307.132
 21
100.82
 31
0.0
  0
LINE
  8
0
 62
     0
 10
307.132
 20
100.82
 30
0.0
 11
293.132
 21
100.82
 31
0.0
  0
LINE
  8
0
 62
     0
 10
312.182
 20
100.82
 30
0.0
 11
312.182
 21
99.8195
 31
0.0
  0
LINE
  8
0
 62
     0
 10
312.182
 20
99.8195
 30
0.0
 11
311.381
 21
99.8195
 31
0.0
  0
LINE
  8
0
 62
     0
 10
311.381
 20
99.8195
 30
0.0
 11
311.381
 21
96.719
 31
0.0
  0
LINE
  8
0
 62
     0
 10
311.381
 20
96.719
 30
0.0
 11
312.182
 21
96.719
 31
0.0
  0
LINE
  8
0
 62
     0
 10
312.182
 20
96.719
 30
0.0
 11
312.182
 21
90.9204
 31
0.0
  0
LINE
  8
0
 62
     0
 10
312.182
 20
90.9204
 30
0.0
 11
311.381
 21
90.9204
 31
0.0
  0
LINE
  8
0
 62
     0
 10
311.381
 20
90.9204
 30
0.0
 11
311.381
 21
87.8198
 31
0.0
  0
LINE
  8
0
 62
     0
 10
311.381
 20
87.8198
 30
0.0
 11
312.182
 21
87.8198
 31
0.0
  0
LINE
  8
0
 62
     0
 10
312.182
 20
87.8198
 30
0.0
 11
312.182
 21
86.8193
 31
0.0
  0
LINE
  8
0
 62
     0
 10
312.182
 20
86.8193
 30
0.0
 11
326.182
 21
86.8193
 31
0.0
  0
LINE
  8
0
 62
     0
 10
326.182
 20
86.8193
 30
0.0
 11
326.182
 21
87.8198
 31
0.0
  0
LINE
  8
0
 62
     0
 10
326.182
 20
87.8198
 30
0.0
 11
326.982
 21
87.8198
 31
0.0
  0
LINE
  8
0
 62
     0
 10
326.982
 20
87.8198
 30
0.0
 11
326.982
 21
90.9204
 31
0.0
  0
LINE
  8
0
 62
     0
 10
326.982
 20
90.9204
 30
0.0
 11
326.182
 21
90.9204
 31
0.0
  0
LINE
  8
0
 62
     0
 10
326.182
 20
90.9204
 30
0.0
 11
326.182
 21
96.719
 31
0.0
  0
LINE
  8
0
 62
     0
 10
326.182
 20
96.719
 30
0.0
 11
326.982
 21
96.719
 31
0.0
  0
LINE
  8
0
 62
     0
 10
326.982
 20
96.719
 30
0.0
 11
326.982
 21
99.8195
 31
0.0
  0
LINE
  8
0
 62
     0
 10
326.982
 20
99.8195
 30
0.0
 11
326.182
 21
99.8195
 31
0.0
  0
LINE
  8
0
 62
     0
 10
326.182
 20
99.8195
 30
0.0
 11
326.182
 21
100.82
 31
0.0
  0
LINE
  8
0
 62
     0
 10
326.182
 20
100.82
 30
0.0
 11
312.182
 21
100.82
 31
0.0
  0
LINE
  8
0
 62
     0
 10
331.232
 20
100.82
 30
0.0
 11
331.232
 21
99.8195
 31
0.0
  0
LINE
  8
0
 62
     0
 10
331.232
 20
99.8195
 30
0.0
 11
330.431
 21
99.8195
 31
0.0
  0
LINE
  8
0
 62
     0
 10
330.431
 20
99.8195
 30
0.0
 11
330.431
 21
96.719
 31
0.0
  0
LINE
  8
0
 62
     0
 10
330.431
 20
96.719
 30
0.0
 11
331.232
 21
96.719
 31
0.0
  0
LINE
  8
0
 62
     0
 10
331.232
 20
96.719
 30
0.0
 11
331.232
 21
90.9204
 31
0.0
  0
LINE
  8
0
 62
     0
 10
331.232
 20
90.9204
 30
0.0
 11
330.431
 21
90.9204
 31
0.0
  0
LINE
  8
0
 62
     0
 10
330.431
 20
90.9204
 30
0.0
 11
330.431
 21
87.8198
 31
0.0
  0
LINE
  8
0
 62
     0
 10
330.431
 20
87.8198
 30
0.0
 11
331.232
 21
87.8198
 31
0.0
  0
LINE
  8
0
 62
     0
 10
331.232
 20
87.8198
 30
0.0
 11
331.232
 21
86.8193
 31
0.0
  0
LINE
  8
0
 62
     0
 10
331.232
 20
86.8193
 30
0.0
 11
345.232
 21
86.8193
 31
0.0
  0
LINE
  8
0
 62
     0
 10
345.232
 20
86.8193
 30
0.0
 11
345.232
 21
87.8198
 31
0.0
  0
LINE
  8
0
 62
     0
 10
345.232
 20
87.8198
 30
0.0
 11
346.032
 21
87.8198
 31
0.0
  0
LINE
  8
0
 62
     0
 10
346.032
 20
87.8198
 30
0.0
 11
346.032
 21
90.9204
 31
0.0
  0
LINE
  8
0
 62
     0
 10
346.032
 20
90.9204
 30
0.0
 11
345.232
 21
90.9204
 31
0.0
  0
LINE
  8
0
 62
     0
 10
345.232
 20
90.9204
 30
0.0
 11
345.232
 21
96.719
 31
0.0
  0
LINE
  8
0
 62
     0
 10
345.232
 20
96.719
 30
0.0
 11
346.032
 21
96.719
 31
0.0
  0
LINE
  8
0
 62
     0
 10
346.032
 20
96.719
 30
0.0
 11
346.032
 21
99.8195
 31
0.0
  0
LINE
  8
0
 62
     0
 10
346.032
 20
99.8195
 30
0.0
 11
345.232
 21
99.8195
 31
0.0
  0
LINE
  8
0
 62
     0
 10
345.232
 20
99.8195
 30
0.0
 11
345.232
 21
100.82
 31
0.0
  0
LINE
  8
0
 62
     0
 10
345.232
 20
100.82
 30
0.0
 11
331.232
 21
100.82
 31
0.0
  0
LINE
  8
0
 62
     0
 10
2.61965
 20
124.631
 30
0.0
 11
2.61965
 21
123.632
 31
0.0
  0
LINE
  8
0
 62
     0
 10
2.61965
 20
123.632
 30
0.0
 11
1.82039
 21
123.632
 31
0.0
  0
LINE
  8
0
 62
     0
 10
1.82039
 20
123.632
 30
0.0
 11
1.82039
 21
120.531
 31
0.0
  0
LINE
  8
0
 62
     0
 10
1.82039
 20
120.531
 30
0.0
 11
2.61965
 21
120.531
 31
0.0
  0
LINE
  8
0
 62
     0
 10
2.61965
 20
120.531
 30
0.0
 11
2.61965
 21
114.731
 31
0.0
  0
LINE
  8
0
 62
     0
 10
2.61965
 20
114.731
 30
0.0
 11
1.82039
 21
114.731
 31
0.0
  0
LINE
  8
0
 62
     0
 10
1.82039
 20
114.731
 30
0.0
 11
1.82039
 21
111.632
 31
0.0
  0
LINE
  8
0
 62
     0
 10
1.82039
 20
111.632
 30
0.0
 11
2.61965
 21
111.632
 31
0.0
  0
LINE
  8
0
 62
     0
 10
2.61965
 20
111.632
 30
0.0
 11
2.61965
 21
110.632
 31
0.0
  0
LINE
  8
0
 62
     0
 10
2.61965
 20
110.632
 30
0.0
 11
16.6192
 21
110.632
 31
0.0
  0
LINE
  8
0
 62
     0
 10
16.6192
 20
110.632
 30
0.0
 11
16.6192
 21
111.632
 31
0.0
  0
LINE
  8
0
 62
     0
 10
16.6192
 20
111.632
 30
0.0
 11
17.4198
 21
111.632
 31
0.0
  0
LINE
  8
0
 62
     0
 10
17.4198
 20
111.632
 30
0.0
 11
17.4198
 21
114.731
 31
0.0
  0
LINE
  8
0
 62
     0
 10
17.4198
 20
114.731
 30
0.0
 11
16.6192
 21
114.731
 31
0.0
  0
LINE
  8
0
 62
     0
 10
16.6192
 20
114.731
 30
0.0
 11
16.6192
 21
120.531
 31
0.0
  0
LINE
  8
0
 62
     0
 10
16.6192
 20
120.531
 30
0.0
 11
17.4198
 21
120.531
 31
0.0
  0
LINE
  8
0
 62
     0
 10
17.4198
 20
120.531
 30
0.0
 11
17.4198
 21
123.632
 31
0.0
  0
LINE
  8
0
 62
     0
 10
17.4198
 20
123.632
 30
0.0
 11
16.6192
 21
123.632
 31
0.0
  0
LINE
  8
0
 62
     0
 10
16.6192
 20
123.632
 30
0.0
 11
16.6192
 21
124.631
 31
0.0
  0
LINE
  8
0
 62
     0
 10
16.6192
 20
124.631
 30
0.0
 11
2.61965
 21
124.631
 31
0.0
  0
LINE
  8
0
 62
     0
 10
40.7197
 20
124.631
 30
0.0
 11
40.7197
 21
123.632
 31
0.0
  0
LINE
  8
0
 62
     0
 10
40.7197
 20
123.632
 30
0.0
 11
39.9203
 21
123.632
 31
0.0
  0
LINE
  8
0
 62
     0
 10
39.9203
 20
123.632
 30
0.0
 11
39.9203
 21
120.531
 31
0.0
  0
LINE
  8
0
 62
     0
 10
39.9203
 20
120.531
 30
0.0
 11
40.7197
 21
120.531
 31
0.0
  0
LINE
  8
0
 62
     0
 10
40.7197
 20
120.531
 30
0.0
 11
40.7197
 21
114.731
 31
0.0
  0
LINE
  8
0
 62
     0
 10
40.7197
 20
114.731
 30
0.0
 11
39.9203
 21
114.731
 31
0.0
  0
LINE
  8
0
 62
     0
 10
39.9203
 20
114.731
 30
0.0
 11
39.9203
 21
111.632
 31
0.0
  0
LINE
  8
0
 62
     0
 10
39.9203
 20
111.632
 30
0.0
 11
40.7197
 21
111.632
 31
0.0
  0
LINE
  8
0
 62
     0
 10
40.7197
 20
111.632
 30
0.0
 11
40.7197
 21
110.632
 31
0.0
  0
LINE
  8
0
 62
     0
 10
40.7197
 20
110.632
 30
0.0
 11
54.719
 21
110.632
 31
0.0
  0
LINE
  8
0
 62
     0
 10
54.719
 20
110.632
 30
0.0
 11
54.719
 21
111.632
 31
0.0
  0
LINE
  8
0
 62
     0
 10
54.719
 20
111.632
 30
0.0
 11
55.5198
 21
111.632
 31
0.0
  0
LINE
  8
0
 62
     0
 10
55.5198
 20
111.632
 30
0.0
 11
55.5198
 21
114.731
 31
0.0
  0
LINE
  8
0
 62
     0
 10
55.5198
 20
114.731
 30
0.0
 11
54.719
 21
114.731
 31
0.0
  0
LINE
  8
0
 62
     0
 10
54.719
 20
114.731
 30
0.0
 11
54.719
 21
120.531
 31
0.0
  0
LINE
  8
0
 62
     0
 10
54.719
 20
120.531
 30
0.0
 11
55.5198
 21
120.531
 31
0.0
  0
LINE
  8
0
 62
     0
 10
55.5198
 20
120.531
 30
0.0
 11
55.5198
 21
123.632
 31
0.0
  0
LINE
  8
0
 62
     0
 10
55.5198
 20
123.632
 30
0.0
 11
54.719
 21
123.632
 31
0.0
  0
LINE
  8
0
 62
     0
 10
54.719
 20
123.632
 30
0.0
 11
54.719
 21
124.631
 31
0.0
  0
LINE
  8
0
 62
     0
 10
54.719
 20
124.631
 30
0.0
 11
40.7197
 21
124.631
 31
0.0
  0
LINE
  8
0
 62
     0
 10
59.7697
 20
124.631
 30
0.0
 11
59.7697
 21
123.632
 31
0.0
  0
LINE
  8
0
 62
     0
 10
59.7697
 20
123.632
 30
0.0
 11
58.9703
 21
123.632
 31
0.0
  0
LINE
  8
0
 62
     0
 10
58.9703
 20
123.632
 30
0.0
 11
58.9703
 21
120.531
 31
0.0
  0
LINE
  8
0
 62
     0
 10
58.9703
 20
120.531
 30
0.0
 11
59.7697
 21
120.531
 31
0.0
  0
LINE
  8
0
 62
     0
 10
59.7697
 20
120.531
 30
0.0
 11
59.7697
 21
114.731
 31
0.0
  0
LINE
  8
0
 62
     0
 10
59.7697
 20
114.731
 30
0.0
 11
58.9703
 21
114.731
 31
0.0
  0
LINE
  8
0
 62
     0
 10
58.9703
 20
114.731
 30
0.0
 11
58.9703
 21
111.632
 31
0.0
  0
LINE
  8
0
 62
     0
 10
58.9703
 20
111.632
 30
0.0
 11
59.7697
 21
111.632
 31
0.0
  0
LINE
  8
0
 62
     0
 10
59.7697
 20
111.632
 30
0.0
 11
59.7697
 21
110.632
 31
0.0
  0
LINE
  8
0
 62
     0
 10
59.7697
 20
110.632
 30
0.0
 11
73.769
 21
110.632
 31
0.0
  0
LINE
  8
0
 62
     0
 10
73.769
 20
110.632
 30
0.0
 11
73.769
 21
111.632
 31
0.0
  0
LINE
  8
0
 62
     0
 10
73.769
 20
111.632
 30
0.0
 11
74.5698
 21
111.632
 31
0.0
  0
LINE
  8
0
 62
     0
 10
74.5698
 20
111.632
 30
0.0
 11
74.5698
 21
114.731
 31
0.0
  0
LINE
  8
0
 62
     0
 10
74.5698
 20
114.731
 30
0.0
 11
73.769
 21
114.731
 31
0.0
  0
LINE
  8
0
 62
     0
 10
73.769
 20
114.731
 30
0.0
 11
73.769
 21
120.531
 31
0.0
  0
LINE
  8
0
 62
     0
 10
73.769
 20
120.531
 30
0.0
 11
74.5698
 21
120.531
 31
0.0
  0
LINE
  8
0
 62
     0
 10
74.5698
 20
120.531
 30
0.0
 11
74.5698
 21
123.632
 31
0.0
  0
LINE
  8
0
 62
     0
 10
74.5698
 20
123.632
 30
0.0
 11
73.769
 21
123.632
 31
0.0
  0
LINE
  8
0
 62
     0
 10
73.769
 20
123.632
 30
0.0
 11
73.769
 21
124.631
 31
0.0
  0
LINE
  8
0
 62
     0
 10
73.769
 20
124.631
 30
0.0
 11
59.7697
 21
124.631
 31
0.0
  0
LINE
  8
0
 62
     0
 10
78.8197
 20
124.631
 30
0.0
 11
78.8197
 21
123.632
 31
0.0
  0
LINE
  8
0
 62
     0
 10
78.8197
 20
123.632
 30
0.0
 11
78.0203
 21
123.632
 31
0.0
  0
LINE
  8
0
 62
     0
 10
78.0203
 20
123.632
 30
0.0
 11
78.0203
 21
120.531
 31
0.0
  0
LINE
  8
0
 62
     0
 10
78.0203
 20
120.531
 30
0.0
 11
78.8197
 21
120.531
 31
0.0
  0
LINE
  8
0
 62
     0
 10
78.8197
 20
120.531
 30
0.0
 11
78.8197
 21
114.731
 31
0.0
  0
LINE
  8
0
 62
     0
 10
78.8197
 20
114.731
 30
0.0
 11
78.0203
 21
114.731
 31
0.0
  0
LINE
  8
0
 62
     0
 10
78.0203
 20
114.731
 30
0.0
 11
78.0203
 21
111.632
 31
0.0
  0
LINE
  8
0
 62
     0
 10
78.0203
 20
111.632
 30
0.0
 11
78.8197
 21
111.632
 31
0.0
  0
LINE
  8
0
 62
     0
 10
78.8197
 20
111.632
 30
0.0
 11
78.8197
 21
110.632
 31
0.0
  0
LINE
  8
0
 62
     0
 10
78.8197
 20
110.632
 30
0.0
 11
92.819
 21
110.632
 31
0.0
  0
LINE
  8
0
 62
     0
 10
92.819
 20
110.632
 30
0.0
 11
92.819
 21
111.632
 31
0.0
  0
LINE
  8
0
 62
     0
 10
92.819
 20
111.632
 30
0.0
 11
93.6184
 21
111.632
 31
0.0
  0
LINE
  8
0
 62
     0
 10
93.6184
 20
111.632
 30
0.0
 11
93.6184
 21
114.731
 31
0.0
  0
LINE
  8
0
 62
     0
 10
93.6184
 20
114.731
 30
0.0
 11
92.819
 21
114.731
 31
0.0
  0
LINE
  8
0
 62
     0
 10
92.819
 20
114.731
 30
0.0
 11
92.819
 21
120.531
 31
0.0
  0
LINE
  8
0
 62
     0
 10
92.819
 20
120.531
 30
0.0
 11
93.6184
 21
120.531
 31
0.0
  0
LINE
  8
0
 62
     0
 10
93.6184
 20
120.531
 30
0.0
 11
93.6184
 21
123.632
 31
0.0
  0
LINE
  8
0
 62
     0
 10
93.6184
 20
123.632
 30
0.0
 11
92.819
 21
123.632
 31
0.0
  0
LINE
  8
0
 62
     0
 10
92.819
 20
123.632
 30
0.0
 11
92.819
 21
124.631
 31
0.0
  0
LINE
  8
0
 62
     0
 10
92.819
 20
124.631
 30
0.0
 11
78.8197
 21
124.631
 31
0.0
  0
LINE
  8
0
 62
     0
 10
97.8683
 20
124.631
 30
0.0
 11
97.8683
 21
123.632
 31
0.0
  0
LINE
  8
0
 62
     0
 10
97.8683
 20
123.632
 30
0.0
 11
97.0703
 21
123.632
 31
0.0
  0
LINE
  8
0
 62
     0
 10
97.0703
 20
123.632
 30
0.0
 11
97.0703
 21
120.531
 31
0.0
  0
LINE
  8
0
 62
     0
 10
97.0703
 20
120.531
 30
0.0
 11
97.8683
 21
120.531
 31
0.0
  0
LINE
  8
0
 62
     0
 10
97.8683
 20
120.531
 30
0.0
 11
97.8683
 21
114.731
 31
0.0
  0
LINE
  8
0
 62
     0
 10
97.8683
 20
114.731
 30
0.0
 11
97.0703
 21
114.731
 31
0.0
  0
LINE
  8
0
 62
     0
 10
97.0703
 20
114.731
 30
0.0
 11
97.0703
 21
111.632
 31
0.0
  0
LINE
  8
0
 62
     0
 10
97.0703
 20
111.632
 30
0.0
 11
97.8683
 21
111.632
 31
0.0
  0
LINE
  8
0
 62
     0
 10
97.8683
 20
111.632
 30
0.0
 11
97.8683
 21
110.632
 31
0.0
  0
LINE
  8
0
 62
     0
 10
97.8683
 20
110.632
 30
0.0
 11
111.869
 21
110.632
 31
0.0
  0
LINE
  8
0
 62
     0
 10
111.869
 20
110.632
 30
0.0
 11
111.869
 21
111.632
 31
0.0
  0
LINE
  8
0
 62
     0
 10
111.869
 20
111.632
 30
0.0
 11
112.668
 21
111.632
 31
0.0
  0
LINE
  8
0
 62
     0
 10
112.668
 20
111.632
 30
0.0
 11
112.668
 21
114.731
 31
0.0
  0
LINE
  8
0
 62
     0
 10
112.668
 20
114.731
 30
0.0
 11
111.869
 21
114.731
 31
0.0
  0
LINE
  8
0
 62
     0
 10
111.869
 20
114.731
 30
0.0
 11
111.869
 21
120.531
 31
0.0
  0
LINE
  8
0
 62
     0
 10
111.869
 20
120.531
 30
0.0
 11
112.668
 21
120.531
 31
0.0
  0
LINE
  8
0
 62
     0
 10
112.668
 20
120.531
 30
0.0
 11
112.668
 21
123.632
 31
0.0
  0
LINE
  8
0
 62
     0
 10
112.668
 20
123.632
 30
0.0
 11
111.869
 21
123.632
 31
0.0
  0
LINE
  8
0
 62
     0
 10
111.869
 20
123.632
 30
0.0
 11
111.869
 21
124.631
 31
0.0
  0
LINE
  8
0
 62
     0
 10
111.869
 20
124.631
 30
0.0
 11
97.8683
 21
124.631
 31
0.0
  0
LINE
  8
0
 62
     0
 10
126.445
 20
124.631
 30
0.0
 11
126.445
 21
123.632
 31
0.0
  0
LINE
  8
0
 62
     0
 10
126.445
 20
123.632
 30
0.0
 11
125.644
 21
123.632
 31
0.0
  0
LINE
  8
0
 62
     0
 10
125.644
 20
123.632
 30
0.0
 11
125.644
 21
120.531
 31
0.0
  0
LINE
  8
0
 62
     0
 10
125.644
 20
120.531
 30
0.0
 11
126.445
 21
120.531
 31
0.0
  0
LINE
  8
0
 62
     0
 10
126.445
 20
120.531
 30
0.0
 11
126.445
 21
114.731
 31
0.0
  0
LINE
  8
0
 62
     0
 10
126.445
 20
114.731
 30
0.0
 11
125.644
 21
114.731
 31
0.0
  0
LINE
  8
0
 62
     0
 10
125.644
 20
114.731
 30
0.0
 11
125.644
 21
111.632
 31
0.0
  0
LINE
  8
0
 62
     0
 10
125.644
 20
111.632
 30
0.0
 11
126.445
 21
111.632
 31
0.0
  0
LINE
  8
0
 62
     0
 10
126.445
 20
111.632
 30
0.0
 11
126.445
 21
110.632
 31
0.0
  0
LINE
  8
0
 62
     0
 10
126.445
 20
110.632
 30
0.0
 11
140.444
 21
110.632
 31
0.0
  0
LINE
  8
0
 62
     0
 10
140.444
 20
110.632
 30
0.0
 11
140.444
 21
111.632
 31
0.0
  0
LINE
  8
0
 62
     0
 10
140.444
 20
111.632
 30
0.0
 11
141.245
 21
111.632
 31
0.0
  0
LINE
  8
0
 62
     0
 10
141.245
 20
111.632
 30
0.0
 11
141.245
 21
114.731
 31
0.0
  0
LINE
  8
0
 62
     0
 10
141.245
 20
114.731
 30
0.0
 11
140.444
 21
114.731
 31
0.0
  0
LINE
  8
0
 62
     0
 10
140.444
 20
114.731
 30
0.0
 11
140.444
 21
120.531
 31
0.0
  0
LINE
  8
0
 62
     0
 10
140.444
 20
120.531
 30
0.0
 11
141.245
 21
120.531
 31
0.0
  0
LINE
  8
0
 62
     0
 10
141.245
 20
120.531
 30
0.0
 11
141.245
 21
123.632
 31
0.0
  0
LINE
  8
0
 62
     0
 10
141.245
 20
123.632
 30
0.0
 11
140.444
 21
123.632
 31
0.0
  0
LINE
  8
0
 62
     0
 10
140.444
 20
123.632
 30
0.0
 11
140.444
 21
124.631
 31
0.0
  0
LINE
  8
0
 62
     0
 10
140.444
 20
124.631
 30
0.0
 11
126.445
 21
124.631
 31
0.0
  0
LINE
  8
0
 62
     0
 10
145.495
 20
124.631
 30
0.0
 11
145.495
 21
123.632
 31
0.0
  0
LINE
  8
0
 62
     0
 10
145.495
 20
123.632
 30
0.0
 11
144.695
 21
123.632
 31
0.0
  0
LINE
  8
0
 62
     0
 10
144.695
 20
123.632
 30
0.0
 11
144.695
 21
120.531
 31
0.0
  0
LINE
  8
0
 62
     0
 10
144.695
 20
120.531
 30
0.0
 11
145.495
 21
120.531
 31
0.0
  0
LINE
  8
0
 62
     0
 10
145.495
 20
120.531
 30
0.0
 11
145.495
 21
114.731
 31
0.0
  0
LINE
  8
0
 62
     0
 10
145.495
 20
114.731
 30
0.0
 11
144.695
 21
114.731
 31
0.0
  0
LINE
  8
0
 62
     0
 10
144.695
 20
114.731
 30
0.0
 11
144.695
 21
111.632
 31
0.0
  0
LINE
  8
0
 62
     0
 10
144.695
 20
111.632
 30
0.0
 11
145.495
 21
111.632
 31
0.0
  0
LINE
  8
0
 62
     0
 10
145.495
 20
111.632
 30
0.0
 11
145.495
 21
110.632
 31
0.0
  0
LINE
  8
0
 62
     0
 10
145.495
 20
110.632
 30
0.0
 11
159.494
 21
110.632
 31
0.0
  0
LINE
  8
0
 62
     0
 10
159.494
 20
110.632
 30
0.0
 11
159.494
 21
111.632
 31
0.0
  0
LINE
  8
0
 62
     0
 10
159.494
 20
111.632
 30
0.0
 11
160.295
 21
111.632
 31
0.0
  0
LINE
  8
0
 62
     0
 10
160.295
 20
111.632
 30
0.0
 11
160.295
 21
114.731
 31
0.0
  0
LINE
  8
0
 62
     0
 10
160.295
 20
114.731
 30
0.0
 11
159.494
 21
114.731
 31
0.0
  0
LINE
  8
0
 62
     0
 10
159.494
 20
114.731
 30
0.0
 11
159.494
 21
120.531
 31
0.0
  0
LINE
  8
0
 62
     0
 10
159.494
 20
120.531
 30
0.0
 11
160.295
 21
120.531
 31
0.0
  0
LINE
  8
0
 62
     0
 10
160.295
 20
120.531
 30
0.0
 11
160.295
 21
123.632
 31
0.0
  0
LINE
  8
0
 62
     0
 10
160.295
 20
123.632
 30
0.0
 11
159.494
 21
123.632
 31
0.0
  0
LINE
  8
0
 62
     0
 10
159.494
 20
123.632
 30
0.0
 11
159.494
 21
124.631
 31
0.0
  0
LINE
  8
0
 62
     0
 10
159.494
 20
124.631
 30
0.0
 11
145.495
 21
124.631
 31
0.0
  0
LINE
  8
0
 62
     0
 10
164.545
 20
124.631
 30
0.0
 11
164.545
 21
123.632
 31
0.0
  0
LINE
  8
0
 62
     0
 10
164.545
 20
123.632
 30
0.0
 11
163.745
 21
123.632
 31
0.0
  0
LINE
  8
0
 62
     0
 10
163.745
 20
123.632
 30
0.0
 11
163.745
 21
120.531
 31
0.0
  0
LINE
  8
0
 62
     0
 10
163.745
 20
120.531
 30
0.0
 11
164.545
 21
120.531
 31
0.0
  0
LINE
  8
0
 62
     0
 10
164.545
 20
120.531
 30
0.0
 11
164.545
 21
114.731
 31
0.0
  0
LINE
  8
0
 62
     0
 10
164.545
 20
114.731
 30
0.0
 11
163.745
 21
114.731
 31
0.0
  0
LINE
  8
0
 62
     0
 10
163.745
 20
114.731
 30
0.0
 11
163.745
 21
111.632
 31
0.0
  0
LINE
  8
0
 62
     0
 10
163.745
 20
111.632
 30
0.0
 11
164.545
 21
111.632
 31
0.0
  0
LINE
  8
0
 62
     0
 10
164.545
 20
111.632
 30
0.0
 11
164.545
 21
110.632
 31
0.0
  0
LINE
  8
0
 62
     0
 10
164.545
 20
110.632
 30
0.0
 11
178.544
 21
110.632
 31
0.0
  0
LINE
  8
0
 62
     0
 10
178.544
 20
110.632
 30
0.0
 11
178.544
 21
111.632
 31
0.0
  0
LINE
  8
0
 62
     0
 10
178.544
 20
111.632
 30
0.0
 11
179.345
 21
111.632
 31
0.0
  0
LINE
  8
0
 62
     0
 10
179.345
 20
111.632
 30
0.0
 11
179.345
 21
114.731
 31
0.0
  0
LINE
  8
0
 62
     0
 10
179.345
 20
114.731
 30
0.0
 11
178.544
 21
114.731
 31
0.0
  0
LINE
  8
0
 62
     0
 10
178.544
 20
114.731
 30
0.0
 11
178.544
 21
120.531
 31
0.0
  0
LINE
  8
0
 62
     0
 10
178.544
 20
120.531
 30
0.0
 11
179.345
 21
120.531
 31
0.0
  0
LINE
  8
0
 62
     0
 10
179.345
 20
120.531
 30
0.0
 11
179.345
 21
123.632
 31
0.0
  0
LINE
  8
0
 62
     0
 10
179.345
 20
123.632
 30
0.0
 11
178.544
 21
123.632
 31
0.0
  0
LINE
  8
0
 62
     0
 10
178.544
 20
123.632
 30
0.0
 11
178.544
 21
124.631
 31
0.0
  0
LINE
  8
0
 62
     0
 10
178.544
 20
124.631
 30
0.0
 11
164.545
 21
124.631
 31
0.0
  0
LINE
  8
0
 62
     0
 10
183.595
 20
124.631
 30
0.0
 11
183.595
 21
123.632
 31
0.0
  0
LINE
  8
0
 62
     0
 10
183.595
 20
123.632
 30
0.0
 11
182.795
 21
123.632
 31
0.0
  0
LINE
  8
0
 62
     0
 10
182.795
 20
123.632
 30
0.0
 11
182.795
 21
120.531
 31
0.0
  0
LINE
  8
0
 62
     0
 10
182.795
 20
120.531
 30
0.0
 11
183.595
 21
120.531
 31
0.0
  0
LINE
  8
0
 62
     0
 10
183.595
 20
120.531
 30
0.0
 11
183.595
 21
114.731
 31
0.0
  0
LINE
  8
0
 62
     0
 10
183.595
 20
114.731
 30
0.0
 11
182.795
 21
114.731
 31
0.0
  0
LINE
  8
0
 62
     0
 10
182.795
 20
114.731
 30
0.0
 11
182.795
 21
111.632
 31
0.0
  0
LINE
  8
0
 62
     0
 10
182.795
 20
111.632
 30
0.0
 11
183.595
 21
111.632
 31
0.0
  0
LINE
  8
0
 62
     0
 10
183.595
 20
111.632
 30
0.0
 11
183.595
 21
110.632
 31
0.0
  0
LINE
  8
0
 62
     0
 10
183.595
 20
110.632
 30
0.0
 11
197.594
 21
110.632
 31
0.0
  0
LINE
  8
0
 62
     0
 10
197.594
 20
110.632
 30
0.0
 11
197.594
 21
111.632
 31
0.0
  0
LINE
  8
0
 62
     0
 10
197.594
 20
111.632
 30
0.0
 11
198.395
 21
111.632
 31
0.0
  0
LINE
  8
0
 62
     0
 10
198.395
 20
111.632
 30
0.0
 11
198.395
 21
114.731
 31
0.0
  0
LINE
  8
0
 62
     0
 10
198.395
 20
114.731
 30
0.0
 11
197.594
 21
114.731
 31
0.0
  0
LINE
  8
0
 62
     0
 10
197.594
 20
114.731
 30
0.0
 11
197.594
 21
120.531
 31
0.0
  0
LINE
  8
0
 62
     0
 10
197.594
 20
120.531
 30
0.0
 11
198.395
 21
120.531
 31
0.0
  0
LINE
  8
0
 62
     0
 10
198.395
 20
120.531
 30
0.0
 11
198.395
 21
123.632
 31
0.0
  0
LINE
  8
0
 62
     0
 10
198.395
 20
123.632
 30
0.0
 11
197.594
 21
123.632
 31
0.0
  0
LINE
  8
0
 62
     0
 10
197.594
 20
123.632
 30
0.0
 11
197.594
 21
124.631
 31
0.0
  0
LINE
  8
0
 62
     0
 10
197.594
 20
124.631
 30
0.0
 11
183.595
 21
124.631
 31
0.0
  0
LINE
  8
0
 62
     0
 10
212.17
 20
124.631
 30
0.0
 11
212.17
 21
123.632
 31
0.0
  0
LINE
  8
0
 62
     0
 10
212.17
 20
123.632
 30
0.0
 11
211.37
 21
123.632
 31
0.0
  0
LINE
  8
0
 62
     0
 10
211.37
 20
123.632
 30
0.0
 11
211.37
 21
120.531
 31
0.0
  0
LINE
  8
0
 62
     0
 10
211.37
 20
120.531
 30
0.0
 11
212.17
 21
120.531
 31
0.0
  0
LINE
  8
0
 62
     0
 10
212.17
 20
120.531
 30
0.0
 11
212.17
 21
114.731
 31
0.0
  0
LINE
  8
0
 62
     0
 10
212.17
 20
114.731
 30
0.0
 11
211.37
 21
114.731
 31
0.0
  0
LINE
  8
0
 62
     0
 10
211.37
 20
114.731
 30
0.0
 11
211.37
 21
111.632
 31
0.0
  0
LINE
  8
0
 62
     0
 10
211.37
 20
111.632
 30
0.0
 11
212.17
 21
111.632
 31
0.0
  0
LINE
  8
0
 62
     0
 10
212.17
 20
111.632
 30
0.0
 11
212.17
 21
110.632
 31
0.0
  0
LINE
  8
0
 62
     0
 10
212.17
 20
110.632
 30
0.0
 11
226.169
 21
110.632
 31
0.0
  0
LINE
  8
0
 62
     0
 10
226.169
 20
110.632
 30
0.0
 11
226.169
 21
111.632
 31
0.0
  0
LINE
  8
0
 62
     0
 10
226.169
 20
111.632
 30
0.0
 11
226.97
 21
111.632
 31
0.0
  0
LINE
  8
0
 62
     0
 10
226.97
 20
111.632
 30
0.0
 11
226.97
 21
114.731
 31
0.0
  0
LINE
  8
0
 62
     0
 10
226.97
 20
114.731
 30
0.0
 11
226.169
 21
114.731
 31
0.0
  0
LINE
  8
0
 62
     0
 10
226.169
 20
114.731
 30
0.0
 11
226.169
 21
120.531
 31
0.0
  0
LINE
  8
0
 62
     0
 10
226.169
 20
120.531
 30
0.0
 11
226.97
 21
120.531
 31
0.0
  0
LINE
  8
0
 62
     0
 10
226.97
 20
120.531
 30
0.0
 11
226.97
 21
123.632
 31
0.0
  0
LINE
  8
0
 62
     0
 10
226.97
 20
123.632
 30
0.0
 11
226.169
 21
123.632
 31
0.0
  0
LINE
  8
0
 62
     0
 10
226.169
 20
123.632
 30
0.0
 11
226.169
 21
124.631
 31
0.0
  0
LINE
  8
0
 62
     0
 10
226.169
 20
124.631
 30
0.0
 11
212.17
 21
124.631
 31
0.0
  0
LINE
  8
0
 62
     0
 10
231.22
 20
124.631
 30
0.0
 11
231.22
 21
123.632
 31
0.0
  0
LINE
  8
0
 62
     0
 10
231.22
 20
123.632
 30
0.0
 11
230.42
 21
123.632
 31
0.0
  0
LINE
  8
0
 62
     0
 10
230.42
 20
123.632
 30
0.0
 11
230.42
 21
120.531
 31
0.0
  0
LINE
  8
0
 62
     0
 10
230.42
 20
120.531
 30
0.0
 11
231.22
 21
120.531
 31
0.0
  0
LINE
  8
0
 62
     0
 10
231.22
 20
120.531
 30
0.0
 11
231.22
 21
114.731
 31
0.0
  0
LINE
  8
0
 62
     0
 10
231.22
 20
114.731
 30
0.0
 11
230.42
 21
114.731
 31
0.0
  0
LINE
  8
0
 62
     0
 10
230.42
 20
114.731
 30
0.0
 11
230.42
 21
111.632
 31
0.0
  0
LINE
  8
0
 62
     0
 10
230.42
 20
111.632
 30
0.0
 11
231.22
 21
111.632
 31
0.0
  0
LINE
  8
0
 62
     0
 10
231.22
 20
111.632
 30
0.0
 11
231.22
 21
110.632
 31
0.0
  0
LINE
  8
0
 62
     0
 10
231.22
 20
110.632
 30
0.0
 11
245.219
 21
110.632
 31
0.0
  0
LINE
  8
0
 62
     0
 10
245.219
 20
110.632
 30
0.0
 11
245.219
 21
111.632
 31
0.0
  0
LINE
  8
0
 62
     0
 10
245.219
 20
111.632
 30
0.0
 11
246.02
 21
111.632
 31
0.0
  0
LINE
  8
0
 62
     0
 10
246.02
 20
111.632
 30
0.0
 11
246.02
 21
114.731
 31
0.0
  0
LINE
  8
0
 62
     0
 10
246.02
 20
114.731
 30
0.0
 11
245.219
 21
114.731
 31
0.0
  0
LINE
  8
0
 62
     0
 10
245.219
 20
114.731
 30
0.0
 11
245.219
 21
120.531
 31
0.0
  0
LINE
  8
0
 62
     0
 10
245.219
 20
120.531
 30
0.0
 11
246.02
 21
120.531
 31
0.0
  0
LINE
  8
0
 62
     0
 10
246.02
 20
120.531
 30
0.0
 11
246.02
 21
123.632
 31
0.0
  0
LINE
  8
0
 62
     0
 10
246.02
 20
123.632
 30
0.0
 11
245.219
 21
123.632
 31
0.0
  0
LINE
  8
0
 62
     0
 10
245.219
 20
123.632
 30
0.0
 11
245.219
 21
124.631
 31
0.0
  0
LINE
  8
0
 62
     0
 10
245.219
 20
124.631
 30
0.0
 11
231.22
 21
124.631
 31
0.0
  0
LINE
  8
0
 62
     0
 10
250.27
 20
124.631
 30
0.0
 11
250.27
 21
123.632
 31
0.0
  0
LINE
  8
0
 62
     0
 10
250.27
 20
123.632
 30
0.0
 11
249.47
 21
123.632
 31
0.0
  0
LINE
  8
0
 62
     0
 10
249.47
 20
123.632
 30
0.0
 11
249.47
 21
120.531
 31
0.0
  0
LINE
  8
0
 62
     0
 10
249.47
 20
120.531
 30
0.0
 11
250.27
 21
120.531
 31
0.0
  0
LINE
  8
0
 62
     0
 10
250.27
 20
120.531
 30
0.0
 11
250.27
 21
114.731
 31
0.0
  0
LINE
  8
0
 62
     0
 10
250.27
 20
114.731
 30
0.0
 11
249.47
 21
114.731
 31
0.0
  0
LINE
  8
0
 62
     0
 10
249.47
 20
114.731
 30
0.0
 11
249.47
 21
111.632
 31
0.0
  0
LINE
  8
0
 62
     0
 10
249.47
 20
111.632
 30
0.0
 11
250.27
 21
111.632
 31
0.0
  0
LINE
  8
0
 62
     0
 10
250.27
 20
111.632
 30
0.0
 11
250.27
 21
110.632
 31
0.0
  0
LINE
  8
0
 62
     0
 10
250.27
 20
110.632
 30
0.0
 11
264.269
 21
110.632
 31
0.0
  0
LINE
  8
0
 62
     0
 10
264.269
 20
110.632
 30
0.0
 11
264.269
 21
111.632
 31
0.0
  0
LINE
  8
0
 62
     0
 10
264.269
 20
111.632
 30
0.0
 11
265.07
 21
111.632
 31
0.0
  0
LINE
  8
0
 62
     0
 10
265.07
 20
111.632
 30
0.0
 11
265.07
 21
114.731
 31
0.0
  0
LINE
  8
0
 62
     0
 10
265.07
 20
114.731
 30
0.0
 11
264.269
 21
114.731
 31
0.0
  0
LINE
  8
0
 62
     0
 10
264.269
 20
114.731
 30
0.0
 11
264.269
 21
120.531
 31
0.0
  0
LINE
  8
0
 62
     0
 10
264.269
 20
120.531
 30
0.0
 11
265.07
 21
120.531
 31
0.0
  0
LINE
  8
0
 62
     0
 10
265.07
 20
120.531
 30
0.0
 11
265.07
 21
123.632
 31
0.0
  0
LINE
  8
0
 62
     0
 10
265.07
 20
123.632
 30
0.0
 11
264.269
 21
123.632
 31
0.0
  0
LINE
  8
0
 62
     0
 10
264.269
 20
123.632
 30
0.0
 11
264.269
 21
124.631
 31
0.0
  0
LINE
  8
0
 62
     0
 10
264.269
 20
124.631
 30
0.0
 11
250.27
 21
124.631
 31
0.0
  0
LINE
  8
0
 62
     0
 10
269.32
 20
124.631
 30
0.0
 11
269.32
 21
123.632
 31
0.0
  0
LINE
  8
0
 62
     0
 10
269.32
 20
123.632
 30
0.0
 11
268.52
 21
123.632
 31
0.0
  0
LINE
  8
0
 62
     0
 10
268.52
 20
123.632
 30
0.0
 11
268.52
 21
120.531
 31
0.0
  0
LINE
  8
0
 62
     0
 10
268.52
 20
120.531
 30
0.0
 11
269.32
 21
120.531
 31
0.0
  0
LINE
  8
0
 62
     0
 10
269.32
 20
120.531
 30
0.0
 11
269.32
 21
114.731
 31
0.0
  0
LINE
  8
0
 62
     0
 10
269.32
 20
114.731
 30
0.0
 11
268.52
 21
114.731
 31
0.0
  0
LINE
  8
0
 62
     0
 10
268.52
 20
114.731
 30
0.0
 11
268.52
 21
111.632
 31
0.0
  0
LINE
  8
0
 62
     0
 10
268.52
 20
111.632
 30
0.0
 11
269.32
 21
111.632
 31
0.0
  0
LINE
  8
0
 62
     0
 10
269.32
 20
111.632
 30
0.0
 11
269.32
 21
110.632
 31
0.0
  0
LINE
  8
0
 62
     0
 10
269.32
 20
110.632
 30
0.0
 11
283.319
 21
110.632
 31
0.0
  0
LINE
  8
0
 62
     0
 10
283.319
 20
110.632
 30
0.0
 11
283.319
 21
111.632
 31
0.0
  0
LINE
  8
0
 62
     0
 10
283.319
 20
111.632
 30
0.0
 11
284.12
 21
111.632
 31
0.0
  0
LINE
  8
0
 62
     0
 10
284.12
 20
111.632
 30
0.0
 11
284.12
 21
114.731
 31
0.0
  0
LINE
  8
0
 62
     0
 10
284.12
 20
114.731
 30
0.0
 11
283.319
 21
114.731
 31
0.0
  0
LINE
  8
0
 62
     0
 10
283.319
 20
114.731
 30
0.0
 11
283.319
 21
120.531
 31
0.0
  0
LINE
  8
0
 62
     0
 10
283.319
 20
120.531
 30
0.0
 11
284.12
 21
120.531
 31
0.0
  0
LINE
  8
0
 62
     0
 10
284.12
 20
120.531
 30
0.0
 11
284.12
 21
123.632
 31
0.0
  0
LINE
  8
0
 62
     0
 10
284.12
 20
123.632
 30
0.0
 11
283.319
 21
123.632
 31
0.0
  0
LINE
  8
0
 62
     0
 10
283.319
 20
123.632
 30
0.0
 11
283.319
 21
124.631
 31
0.0
  0
LINE
  8
0
 62
     0
 10
283.319
 20
124.631
 30
0.0
 11
269.32
 21
124.631
 31
0.0
  0
LINE
  8
0
 62
     0
 10
293.132
 20
124.631
 30
0.0
 11
293.132
 21
123.632
 31
0.0
  0
LINE
  8
0
 62
     0
 10
293.132
 20
123.632
 30
0.0
 11
292.331
 21
123.632
 31
0.0
  0
LINE
  8
0
 62
     0
 10
292.331
 20
123.632
 30
0.0
 11
292.331
 21
120.531
 31
0.0
  0
LINE
  8
0
 62
     0
 10
292.331
 20
120.531
 30
0.0
 11
293.132
 21
120.531
 31
0.0
  0
LINE
  8
0
 62
     0
 10
293.132
 20
120.531
 30
0.0
 11
293.132
 21
114.731
 31
0.0
  0
LINE
  8
0
 62
     0
 10
293.132
 20
114.731
 30
0.0
 11
292.331
 21
114.731
 31
0.0
  0
LINE
  8
0
 62
     0
 10
292.331
 20
114.731
 30
0.0
 11
292.331
 21
111.632
 31
0.0
  0
LINE
  8
0
 62
     0
 10
292.331
 20
111.632
 30
0.0
 11
293.132
 21
111.632
 31
0.0
  0
LINE
  8
0
 62
     0
 10
293.132
 20
111.632
 30
0.0
 11
293.132
 21
110.632
 31
0.0
  0
LINE
  8
0
 62
     0
 10
293.132
 20
110.632
 30
0.0
 11
307.132
 21
110.632
 31
0.0
  0
LINE
  8
0
 62
     0
 10
307.132
 20
110.632
 30
0.0
 11
307.132
 21
111.632
 31
0.0
  0
LINE
  8
0
 62
     0
 10
307.132
 20
111.632
 30
0.0
 11
307.932
 21
111.632
 31
0.0
  0
LINE
  8
0
 62
     0
 10
307.932
 20
111.632
 30
0.0
 11
307.932
 21
114.731
 31
0.0
  0
LINE
  8
0
 62
     0
 10
307.932
 20
114.731
 30
0.0
 11
307.132
 21
114.731
 31
0.0
  0
LINE
  8
0
 62
     0
 10
307.132
 20
114.731
 30
0.0
 11
307.132
 21
120.531
 31
0.0
  0
LINE
  8
0
 62
     0
 10
307.132
 20
120.531
 30
0.0
 11
307.932
 21
120.531
 31
0.0
  0
LINE
  8
0
 62
     0
 10
307.932
 20
120.531
 30
0.0
 11
307.932
 21
123.632
 31
0.0
  0
LINE
  8
0
 62
     0
 10
307.932
 20
123.632
 30
0.0
 11
307.132
 21
123.632
 31
0.0
  0
LINE
  8
0
 62
     0
 10
307.132
 20
123.632
 30
0.0
 11
307.132
 21
124.631
 31
0.0
  0
LINE
  8
0
 62
     0
 10
307.132
 20
124.631
 30
0.0
 11
293.132
 21
124.631
 31
0.0
  0
LINE
  8
0
 62
     0
 10
312.182
 20
124.631
 30
0.0
 11
312.182
 21
123.632
 31
0.0
  0
LINE
  8
0
 62
     0
 10
312.182
 20
123.632
 30
0.0
 11
311.381
 21
123.632
 31
0.0
  0
LINE
  8
0
 62
     0
 10
311.381
 20
123.632
 30
0.0
 11
311.381
 21
120.531
 31
0.0
  0
LINE
  8
0
 62
     0
 10
311.381
 20
120.531
 30
0.0
 11
312.182
 21
120.531
 31
0.0
  0
LINE
  8
0
 62
     0
 10
312.182
 20
120.531
 30
0.0
 11
312.182
 21
114.731
 31
0.0
  0
LINE
  8
0
 62
     0
 10
312.182
 20
114.731
 30
0.0
 11
311.381
 21
114.731
 31
0.0
  0
LINE
  8
0
 62
     0
 10
311.381
 20
114.731
 30
0.0
 11
311.381
 21
111.632
 31
0.0
  0
LINE
  8
0
 62
     0
 10
311.381
 20
111.632
 30
0.0
 11
312.182
 21
111.632
 31
0.0
  0
LINE
  8
0
 62
     0
 10
312.182
 20
111.632
 30
0.0
 11
312.182
 21
110.632
 31
0.0
  0
LINE
  8
0
 62
     0
 10
312.182
 20
110.632
 30
0.0
 11
326.182
 21
110.632
 31
0.0
  0
LINE
  8
0
 62
     0
 10
326.182
 20
110.632
 30
0.0
 11
326.182
 21
111.632
 31
0.0
  0
LINE
  8
0
 62
     0
 10
326.182
 20
111.632
 30
0.0
 11
326.982
 21
111.632
 31
0.0
  0
LINE
  8
0
 62
     0
 10
326.982
 20
111.632
 30
0.0
 11
326.982
 21
114.731
 31
0.0
  0
LINE
  8
0
 62
     0
 10
326.982
 20
114.731
 30
0.0
 11
326.182
 21
114.731
 31
0.0
  0
LINE
  8
0
 62
     0
 10
326.182
 20
114.731
 30
0.0
 11
326.182
 21
120.531
 31
0.0
  0
LINE
  8
0
 62
     0
 10
326.182
 20
120.531
 30
0.0
 11
326.982
 21
120.531
 31
0.0
  0
LINE
  8
0
 62
     0
 10
326.982
 20
120.531
 30
0.0
 11
326.982
 21
123.632
 31
0.0
  0
LINE
  8
0
 62
     0
 10
326.982
 20
123.632
 30
0.0
 11
326.182
 21
123.632
 31
0.0
  0
LINE
  8
0
 62
     0
 10
326.182
 20
123.632
 30
0.0
 11
326.182
 21
124.631
 31
0.0
  0
LINE
  8
0
 62
     0
 10
326.182
 20
124.631
 30
0.0
 11
312.182
 21
124.631
 31
0.0
  0
LINE
  8
0
 62
     0
 10
331.232
 20
124.631
 30
0.0
 11
331.232
 21
123.632
 31
0.0
  0
LINE
  8
0
 62
     0
 10
331.232
 20
123.632
 30
0.0
 11
330.431
 21
123.632
 31
0.0
  0
LINE
  8
0
 62
     0
 10
330.431
 20
123.632
 30
0.0
 11
330.431
 21
120.531
 31
0.0
  0
LINE
  8
0
 62
     0
 10
330.431
 20
120.531
 30
0.0
 11
331.232
 21
120.531
 31
0.0
  0
LINE
  8
0
 62
     0
 10
331.232
 20
120.531
 30
0.0
 11
331.232
 21
114.731
 31
0.0
  0
LINE
  8
0
 62
     0
 10
331.232
 20
114.731
 30
0.0
 11
330.431
 21
114.731
 31
0.0
  0
LINE
  8
0
 62
     0
 10
330.431
 20
114.731
 30
0.0
 11
330.431
 21
111.632
 31
0.0
  0
LINE
  8
0
 62
     0
 10
330.431
 20
111.632
 30
0.0
 11
331.232
 21
111.632
 31
0.0
  0
LINE
  8
0
 62
     0
 10
331.232
 20
111.632
 30
0.0
 11
331.232
 21
110.632
 31
0.0
  0
LINE
  8
0
 62
     0
 10
331.232
 20
110.632
 30
0.0
 11
345.232
 21
110.632
 31
0.0
  0
LINE
  8
0
 62
     0
 10
345.232
 20
110.632
 30
0.0
 11
345.232
 21
111.632
 31
0.0
  0
LINE
  8
0
 62
     0
 10
345.232
 20
111.632
 30
0.0
 11
346.032
 21
111.632
 31
0.0
  0
LINE
  8
0
 62
     0
 10
346.032
 20
111.632
 30
0.0
 11
346.032
 21
114.731
 31
0.0
  0
LINE
  8
0
 62
     0
 10
346.032
 20
114.731
 30
0.0
 11
345.232
 21
114.731
 31
0.0
  0
LINE
  8
0
 62
     0
 10
345.232
 20
114.731
 30
0.0
 11
345.232
 21
120.531
 31
0.0
  0
LINE
  8
0
 62
     0
 10
345.232
 20
120.531
 30
0.0
 11
346.032
 21
120.531
 31
0.0
  0
LINE
  8
0
 62
     0
 10
346.032
 20
120.531
 30
0.0
 11
346.032
 21
123.632
 31
0.0
  0
LINE
  8
0
 62
     0
 10
346.032
 20
123.632
 30
0.0
 11
345.232
 21
123.632
 31
0.0
  0
LINE
  8
0
 62
     0
 10
345.232
 20
123.632
 30
0.0
 11
345.232
 21
124.631
 31
0.0
  0
LINE
  8
0
 62
     0
 10
345.232
 20
124.631
 30
0.0
 11
331.232
 21
124.631
 31
0.0
  0
ENDSEC
  0
EOF
